<?xml version="1.0" encoding="us-ascii" standalone="no"?><svg xmlns="http://www.w3.org/2000/svg" xmlns:xlink="http://www.w3.org/1999/xlink" contentStyleType="text/css" height="669px" preserveAspectRatio="none" style="width:1929px;height:669px;background:#FFFFFF;" version="1.1" viewBox="0 0 1929 669" width="1929px" zoomAndPan="magnify"><defs/><g><!--cluster Model--><g id="cluster_Model"><path d="M8.5,6 L57.5,6 A3.75,3.75 0 0 1 60,8.5 L67,28.2969 L374.5,28.2969 A2.5,2.5 0 0 1 377,30.7969 L377,297.5 A2.5,2.5 0 0 1 374.5,300 L8.5,300 A2.5,2.5 0 0 1 6,297.5 L6,8.5 A2.5,2.5 0 0 1 8.5,6 " fill="none" style="stroke:#000000;stroke-width:1.5;"/><line style="stroke:#000000;stroke-width:1.5;" x1="6" x2="67" y1="28.2969" y2="28.2969"/><text fill="#000000" font-family="sans-serif" font-size="14" font-weight="bold" lengthAdjust="spacing" textLength="48" x="10" y="20.9951">Model</text></g><!--cluster View--><g id="cluster_View"><path d="M644.5,14.5 L683.5,14.5 A3.75,3.75 0 0 1 686,17 L693,36.7969 L1259.5,36.7969 A2.5,2.5 0 0 1 1262,39.2969 L1262,127 A2.5,2.5 0 0 1 1259.5,129.5 L644.5,129.5 A2.5,2.5 0 0 1 642,127 L642,17 A2.5,2.5 0 0 1 644.5,14.5 " fill="none" style="stroke:#000000;stroke-width:1.5;"/><line style="stroke:#000000;stroke-width:1.5;" x1="642" x2="693" y1="36.7969" y2="36.7969"/><text fill="#000000" font-family="sans-serif" font-size="14" font-weight="bold" lengthAdjust="spacing" textLength="38" x="646" y="29.4951">View</text></g><!--cluster ViewModel--><g id="cluster_ViewModel"><path d="M403.5,185 L490.5,185 A3.75,3.75 0 0 1 493,187.5 L500,207.2969 L1919.5,207.2969 A2.5,2.5 0 0 1 1922,209.7969 L1922,297.5 A2.5,2.5 0 0 1 1919.5,300 L403.5,300 A2.5,2.5 0 0 1 401,297.5 L401,187.5 A2.5,2.5 0 0 1 403.5,185 " fill="none" style="stroke:#000000;stroke-width:1.5;"/><line style="stroke:#000000;stroke-width:1.5;" x1="401" x2="500" y1="207.2969" y2="207.2969"/><text fill="#000000" font-family="sans-serif" font-size="14" font-weight="bold" lengthAdjust="spacing" textLength="86" x="405" y="199.9951">ViewModel</text></g><!--cluster Services--><g id="cluster_Services"><path d="M375.5,349 L443.5,349 A3.75,3.75 0 0 1 446,351.5 L453,371.2969 L1466.5,371.2969 A2.5,2.5 0 0 1 1469,373.7969 L1469,478.5 A2.5,2.5 0 0 1 1466.5,481 L375.5,481 A2.5,2.5 0 0 1 373,478.5 L373,351.5 A2.5,2.5 0 0 1 375.5,349 " fill="none" style="stroke:#000000;stroke-width:1.5;"/><line style="stroke:#000000;stroke-width:1.5;" x1="373" x2="453" y1="371.2969" y2="371.2969"/><text fill="#000000" font-family="sans-serif" font-size="14" font-weight="bold" lengthAdjust="spacing" textLength="67" x="377" y="363.9951">Services</text></g><!--cluster Repository--><g id="cluster_Repository"><path d="M475.5,530 L564.5,530 A3.75,3.75 0 0 1 567,532.5 L574,552.2969 L1682.5,552.2969 A2.5,2.5 0 0 1 1685,554.7969 L1685,659.5 A2.5,2.5 0 0 1 1682.5,662 L475.5,662 A2.5,2.5 0 0 1 473,659.5 L473,532.5 A2.5,2.5 0 0 1 475.5,530 " fill="none" style="stroke:#000000;stroke-width:1.5;"/><line style="stroke:#000000;stroke-width:1.5;" x1="473" x2="574" y1="552.2969" y2="552.2969"/><text fill="#000000" font-family="sans-serif" font-size="14" font-weight="bold" lengthAdjust="spacing" textLength="88" x="477" y="544.9951">Repository</text></g><!--class UserSettings--><g id="elem_UserSettings"><rect codeLine="2" fill="#F1F1F1" height="80.5938" id="UserSettings" rx="2.5" ry="2.5" style="stroke:#181818;stroke-width:0.5;" width="124" x="22" y="41"/><ellipse cx="37" cy="57" fill="#ADD1B2" rx="11" ry="11" style="stroke:#181818;stroke-width:1.0;"/><path d="M39.3438,52.6719 C38.4063,52.2344 37.8125,52.0938 36.9375,52.0938 C34.3125,52.0938 32.3125,54.1719 32.3125,56.8906 L32.3125,58.0156 C32.3125,60.5938 34.4219,62.4844 37.3125,62.4844 C38.5313,62.4844 39.6875,62.1875 40.4375,61.6406 C41.0156,61.2344 41.3438,60.7813 41.3438,60.3906 C41.3438,59.9375 40.9531,59.5469 40.4844,59.5469 C40.2656,59.5469 40.0625,59.625 39.875,59.8125 C39.4219,60.2969 39.4219,60.2969 39.2344,60.3906 C38.8125,60.6563 38.125,60.7813 37.3594,60.7813 C35.3125,60.7813 34.0156,59.6875 34.0156,57.9844 L34.0156,56.8906 C34.0156,55.1094 35.2656,53.7969 37,53.7969 C37.5781,53.7969 38.1875,53.9531 38.6563,54.2031 C39.1406,54.4844 39.3125,54.7031 39.4063,55.1094 C39.4688,55.5156 39.5,55.6406 39.6406,55.7656 C39.7813,55.9063 40.0156,56.0156 40.2344,56.0156 C40.5,56.0156 40.7656,55.875 40.9375,55.6563 C41.0469,55.5 41.0781,55.3125 41.0781,54.8906 L41.0781,53.4688 C41.0781,53.0313 41.0625,52.9063 40.9688,52.75 C40.8125,52.4844 40.5313,52.3438 40.2344,52.3438 C39.9375,52.3438 39.7344,52.4375 39.5156,52.75 L39.3438,52.6719 Z " fill="#000000"/><text fill="#000000" font-family="sans-serif" font-size="14" lengthAdjust="spacing" textLength="92" x="51" y="61.8467">UserSettings</text><line style="stroke:#181818;stroke-width:0.5;" x1="23" x2="145" y1="73" y2="73"/><ellipse cx="33" cy="86.6484" fill="none" rx="3" ry="3" style="stroke:#038048;stroke-width:1.0;"/><text fill="#000000" font-family="sans-serif" font-size="14" lengthAdjust="spacing" textLength="85" x="42" y="89.9951">altitude: Int</text><ellipse cx="33" cy="102.9453" fill="none" rx="3" ry="3" style="stroke:#038048;stroke-width:1.0;"/><text fill="#000000" font-family="sans-serif" font-size="14" lengthAdjust="spacing" textLength="95" x="42" y="106.292">seuilBpm: Int</text><line style="stroke:#181818;stroke-width:0.5;" x1="23" x2="145" y1="113.5938" y2="113.5938"/></g><!--class HealthData--><g id="elem_HealthData"><rect codeLine="7" fill="#F1F1F1" height="80.5938" id="HealthData" rx="2.5" ry="2.5" style="stroke:#181818;stroke-width:0.5;" width="179" x="181.5" y="41"/><ellipse cx="226.25" cy="57" fill="#ADD1B2" rx="11" ry="11" style="stroke:#181818;stroke-width:1.0;"/><path d="M228.5938,52.6719 C227.6563,52.2344 227.0625,52.0938 226.1875,52.0938 C223.5625,52.0938 221.5625,54.1719 221.5625,56.8906 L221.5625,58.0156 C221.5625,60.5938 223.6719,62.4844 226.5625,62.4844 C227.7813,62.4844 228.9375,62.1875 229.6875,61.6406 C230.2656,61.2344 230.5938,60.7813 230.5938,60.3906 C230.5938,59.9375 230.2031,59.5469 229.7344,59.5469 C229.5156,59.5469 229.3125,59.625 229.125,59.8125 C228.6719,60.2969 228.6719,60.2969 228.4844,60.3906 C228.0625,60.6563 227.375,60.7813 226.6094,60.7813 C224.5625,60.7813 223.2656,59.6875 223.2656,57.9844 L223.2656,56.8906 C223.2656,55.1094 224.5156,53.7969 226.25,53.7969 C226.8281,53.7969 227.4375,53.9531 227.9063,54.2031 C228.3906,54.4844 228.5625,54.7031 228.6563,55.1094 C228.7188,55.5156 228.75,55.6406 228.8906,55.7656 C229.0313,55.9063 229.2656,56.0156 229.4844,56.0156 C229.75,56.0156 230.0156,55.875 230.1875,55.6563 C230.2969,55.5 230.3281,55.3125 230.3281,54.8906 L230.3281,53.4688 C230.3281,53.0313 230.3125,52.9063 230.2188,52.75 C230.0625,52.4844 229.7813,52.3438 229.4844,52.3438 C229.1875,52.3438 228.9844,52.4375 228.7656,52.75 L228.5938,52.6719 Z " fill="#000000"/><text fill="#000000" font-family="sans-serif" font-size="14" lengthAdjust="spacing" textLength="81" x="246.75" y="61.8467">HealthData</text><line style="stroke:#181818;stroke-width:0.5;" x1="182.5" x2="359.5" y1="73" y2="73"/><ellipse cx="192.5" cy="86.6484" fill="none" rx="3" ry="3" style="stroke:#038048;stroke-width:1.0;"/><text fill="#000000" font-family="sans-serif" font-size="14" lengthAdjust="spacing" textLength="153" x="201.5" y="89.9951">rythmeCardiaque: Int</text><ellipse cx="192.5" cy="102.9453" fill="none" rx="3" ry="3" style="stroke:#038048;stroke-width:1.0;"/><text fill="#000000" font-family="sans-serif" font-size="14" lengthAdjust="spacing" textLength="108" x="201.5" y="106.292">respiration: Int</text><line style="stroke:#181818;stroke-width:0.5;" x1="182.5" x2="359.5" y1="113.5938" y2="113.5938"/></g><!--class NavigationData--><g id="elem_NavigationData"><rect codeLine="12" fill="#F1F1F1" height="64.2969" id="NavigationData" rx="2.5" ry="2.5" style="stroke:#181818;stroke-width:0.5;" width="145" x="22.5" y="220"/><ellipse cx="38.85" cy="236" fill="#ADD1B2" rx="11" ry="11" style="stroke:#181818;stroke-width:1.0;"/><path d="M41.1938,231.6719 C40.2563,231.2344 39.6625,231.0938 38.7875,231.0938 C36.1625,231.0938 34.1625,233.1719 34.1625,235.8906 L34.1625,237.0156 C34.1625,239.5938 36.2719,241.4844 39.1625,241.4844 C40.3813,241.4844 41.5375,241.1875 42.2875,240.6406 C42.8656,240.2344 43.1938,239.7813 43.1938,239.3906 C43.1938,238.9375 42.8031,238.5469 42.3344,238.5469 C42.1156,238.5469 41.9125,238.625 41.725,238.8125 C41.2719,239.2969 41.2719,239.2969 41.0844,239.3906 C40.6625,239.6563 39.975,239.7813 39.2094,239.7813 C37.1625,239.7813 35.8656,238.6875 35.8656,236.9844 L35.8656,235.8906 C35.8656,234.1094 37.1156,232.7969 38.85,232.7969 C39.4281,232.7969 40.0375,232.9531 40.5063,233.2031 C40.9906,233.4844 41.1625,233.7031 41.2563,234.1094 C41.3188,234.5156 41.35,234.6406 41.4906,234.7656 C41.6313,234.9063 41.8656,235.0156 42.0844,235.0156 C42.35,235.0156 42.6156,234.875 42.7875,234.6563 C42.8969,234.5 42.9281,234.3125 42.9281,233.8906 L42.9281,232.4688 C42.9281,232.0313 42.9125,231.9063 42.8188,231.75 C42.6625,231.4844 42.3813,231.3438 42.0844,231.3438 C41.7875,231.3438 41.5844,231.4375 41.3656,231.75 L41.1938,231.6719 Z " fill="#000000"/><text fill="#000000" font-family="sans-serif" font-size="14" lengthAdjust="spacing" textLength="110" x="53.15" y="240.8467">NavigationData</text><line style="stroke:#181818;stroke-width:0.5;" x1="23.5" x2="166.5" y1="252" y2="252"/><ellipse cx="33.5" cy="265.6484" fill="none" rx="3" ry="3" style="stroke:#038048;stroke-width:1.0;"/><text fill="#000000" font-family="sans-serif" font-size="14" lengthAdjust="spacing" textLength="119" x="42.5" y="268.9951">itin&#233;raire: String</text><line style="stroke:#181818;stroke-width:0.5;" x1="23.5" x2="166.5" y1="276.2969" y2="276.2969"/></g><!--class AuthActivity--><g id="elem_AuthActivity"><rect codeLine="18" fill="#F1F1F1" height="64.2969" id="AuthActivity" rx="2.5" ry="2.5" style="stroke:#181818;stroke-width:0.5;" width="210" x="857" y="49.5"/><ellipse cx="912.75" cy="65.5" fill="#ADD1B2" rx="11" ry="11" style="stroke:#181818;stroke-width:1.0;"/><path d="M915.0938,61.1719 C914.1563,60.7344 913.5625,60.5938 912.6875,60.5938 C910.0625,60.5938 908.0625,62.6719 908.0625,65.3906 L908.0625,66.5156 C908.0625,69.0938 910.1719,70.9844 913.0625,70.9844 C914.2813,70.9844 915.4375,70.6875 916.1875,70.1406 C916.7656,69.7344 917.0938,69.2813 917.0938,68.8906 C917.0938,68.4375 916.7031,68.0469 916.2344,68.0469 C916.0156,68.0469 915.8125,68.125 915.625,68.3125 C915.1719,68.7969 915.1719,68.7969 914.9844,68.8906 C914.5625,69.1563 913.875,69.2813 913.1094,69.2813 C911.0625,69.2813 909.7656,68.1875 909.7656,66.4844 L909.7656,65.3906 C909.7656,63.6094 911.0156,62.2969 912.75,62.2969 C913.3281,62.2969 913.9375,62.4531 914.4063,62.7031 C914.8906,62.9844 915.0625,63.2031 915.1563,63.6094 C915.2188,64.0156 915.25,64.1406 915.3906,64.2656 C915.5313,64.4063 915.7656,64.5156 915.9844,64.5156 C916.25,64.5156 916.5156,64.375 916.6875,64.1563 C916.7969,64 916.8281,63.8125 916.8281,63.3906 L916.8281,61.9688 C916.8281,61.5313 916.8125,61.4063 916.7188,61.25 C916.5625,60.9844 916.2813,60.8438 915.9844,60.8438 C915.6875,60.8438 915.4844,60.9375 915.2656,61.25 L915.0938,61.1719 Z " fill="#000000"/><text fill="#000000" font-family="sans-serif" font-size="14" lengthAdjust="spacing" textLength="90" x="933.25" y="70.3467">AuthActivity</text><line style="stroke:#181818;stroke-width:0.5;" x1="858" x2="1066" y1="81.5" y2="81.5"/><line style="stroke:#181818;stroke-width:0.5;" x1="858" x2="1066" y1="89.5" y2="89.5"/><ellipse cx="868" cy="103.1484" fill="#84BE84" rx="3" ry="3" style="stroke:#038048;stroke-width:1.0;"/><text fill="#000000" font-family="sans-serif" font-size="14" lengthAdjust="spacing" textLength="184" x="877" y="106.4951">afficherAuthentification()</text></g><!--class MainActivity--><g id="elem_MainActivity"><rect codeLine="22" fill="#F1F1F1" height="64.2969" id="MainActivity" rx="2.5" ry="2.5" style="stroke:#181818;stroke-width:0.5;" width="143" x="1102.5" y="49.5"/><ellipse cx="1127.4" cy="65.5" fill="#ADD1B2" rx="11" ry="11" style="stroke:#181818;stroke-width:1.0;"/><path d="M1129.7438,61.1719 C1128.8063,60.7344 1128.2125,60.5938 1127.3375,60.5938 C1124.7125,60.5938 1122.7125,62.6719 1122.7125,65.3906 L1122.7125,66.5156 C1122.7125,69.0938 1124.8219,70.9844 1127.7125,70.9844 C1128.9313,70.9844 1130.0875,70.6875 1130.8375,70.1406 C1131.4156,69.7344 1131.7438,69.2813 1131.7438,68.8906 C1131.7438,68.4375 1131.3531,68.0469 1130.8844,68.0469 C1130.6656,68.0469 1130.4625,68.125 1130.275,68.3125 C1129.8219,68.7969 1129.8219,68.7969 1129.6344,68.8906 C1129.2125,69.1563 1128.525,69.2813 1127.7594,69.2813 C1125.7125,69.2813 1124.4156,68.1875 1124.4156,66.4844 L1124.4156,65.3906 C1124.4156,63.6094 1125.6656,62.2969 1127.4,62.2969 C1127.9781,62.2969 1128.5875,62.4531 1129.0563,62.7031 C1129.5406,62.9844 1129.7125,63.2031 1129.8063,63.6094 C1129.8688,64.0156 1129.9,64.1406 1130.0406,64.2656 C1130.1813,64.4063 1130.4156,64.5156 1130.6344,64.5156 C1130.9,64.5156 1131.1656,64.375 1131.3375,64.1563 C1131.4469,64 1131.4781,63.8125 1131.4781,63.3906 L1131.4781,61.9688 C1131.4781,61.5313 1131.4625,61.4063 1131.3688,61.25 C1131.2125,60.9844 1130.9313,60.8438 1130.6344,60.8438 C1130.3375,60.8438 1130.1344,60.9375 1129.9156,61.25 L1129.7438,61.1719 Z " fill="#000000"/><text fill="#000000" font-family="sans-serif" font-size="14" lengthAdjust="spacing" textLength="89" x="1143.6" y="70.3467">MainActivity</text><line style="stroke:#181818;stroke-width:0.5;" x1="1103.5" x2="1244.5" y1="81.5" y2="81.5"/><line style="stroke:#181818;stroke-width:0.5;" x1="1103.5" x2="1244.5" y1="89.5" y2="89.5"/><ellipse cx="1113.5" cy="103.1484" fill="#84BE84" rx="3" ry="3" style="stroke:#038048;stroke-width:1.0;"/><text fill="#000000" font-family="sans-serif" font-size="14" lengthAdjust="spacing" textLength="117" x="1122.5" y="106.4951">afficherAccueil()</text></g><!--class NavigationActivity--><g id="elem_NavigationActivity"><rect codeLine="26" fill="#F1F1F1" height="64.2969" id="NavigationActivity" rx="2.5" ry="2.5" style="stroke:#181818;stroke-width:0.5;" width="164" x="658" y="49.5"/><ellipse cx="673" cy="65.5" fill="#ADD1B2" rx="11" ry="11" style="stroke:#181818;stroke-width:1.0;"/><path d="M675.3438,61.1719 C674.4063,60.7344 673.8125,60.5938 672.9375,60.5938 C670.3125,60.5938 668.3125,62.6719 668.3125,65.3906 L668.3125,66.5156 C668.3125,69.0938 670.4219,70.9844 673.3125,70.9844 C674.5313,70.9844 675.6875,70.6875 676.4375,70.1406 C677.0156,69.7344 677.3438,69.2813 677.3438,68.8906 C677.3438,68.4375 676.9531,68.0469 676.4844,68.0469 C676.2656,68.0469 676.0625,68.125 675.875,68.3125 C675.4219,68.7969 675.4219,68.7969 675.2344,68.8906 C674.8125,69.1563 674.125,69.2813 673.3594,69.2813 C671.3125,69.2813 670.0156,68.1875 670.0156,66.4844 L670.0156,65.3906 C670.0156,63.6094 671.2656,62.2969 673,62.2969 C673.5781,62.2969 674.1875,62.4531 674.6563,62.7031 C675.1406,62.9844 675.3125,63.2031 675.4063,63.6094 C675.4688,64.0156 675.5,64.1406 675.6406,64.2656 C675.7813,64.4063 676.0156,64.5156 676.2344,64.5156 C676.5,64.5156 676.7656,64.375 676.9375,64.1563 C677.0469,64 677.0781,63.8125 677.0781,63.3906 L677.0781,61.9688 C677.0781,61.5313 677.0625,61.4063 676.9688,61.25 C676.8125,60.9844 676.5313,60.8438 676.2344,60.8438 C675.9375,60.8438 675.7344,60.9375 675.5156,61.25 L675.3438,61.1719 Z " fill="#000000"/><text fill="#000000" font-family="sans-serif" font-size="14" lengthAdjust="spacing" textLength="132" x="687" y="70.3467">NavigationActivity</text><line style="stroke:#181818;stroke-width:0.5;" x1="659" x2="821" y1="81.5" y2="81.5"/><line style="stroke:#181818;stroke-width:0.5;" x1="659" x2="821" y1="89.5" y2="89.5"/><ellipse cx="669" cy="103.1484" fill="#84BE84" rx="3" ry="3" style="stroke:#038048;stroke-width:1.0;"/><text fill="#000000" font-family="sans-serif" font-size="14" lengthAdjust="spacing" textLength="132" x="678" y="106.4951">afficherItin&#233;raire()</text></g><!--class AuthViewModel--><g id="elem_AuthViewModel"><rect codeLine="32" fill="#F1F1F1" height="64.2969" id="AuthViewModel" rx="2.5" ry="2.5" style="stroke:#181818;stroke-width:0.5;" width="195" x="417.5" y="220"/><ellipse cx="455.9" cy="236" fill="#ADD1B2" rx="11" ry="11" style="stroke:#181818;stroke-width:1.0;"/><path d="M458.2438,231.6719 C457.3063,231.2344 456.7125,231.0938 455.8375,231.0938 C453.2125,231.0938 451.2125,233.1719 451.2125,235.8906 L451.2125,237.0156 C451.2125,239.5938 453.3219,241.4844 456.2125,241.4844 C457.4313,241.4844 458.5875,241.1875 459.3375,240.6406 C459.9156,240.2344 460.2438,239.7813 460.2438,239.3906 C460.2438,238.9375 459.8531,238.5469 459.3844,238.5469 C459.1656,238.5469 458.9625,238.625 458.775,238.8125 C458.3219,239.2969 458.3219,239.2969 458.1344,239.3906 C457.7125,239.6563 457.025,239.7813 456.2594,239.7813 C454.2125,239.7813 452.9156,238.6875 452.9156,236.9844 L452.9156,235.8906 C452.9156,234.1094 454.1656,232.7969 455.9,232.7969 C456.4781,232.7969 457.0875,232.9531 457.5563,233.2031 C458.0406,233.4844 458.2125,233.7031 458.3063,234.1094 C458.3688,234.5156 458.4,234.6406 458.5406,234.7656 C458.6813,234.9063 458.9156,235.0156 459.1344,235.0156 C459.4,235.0156 459.6656,234.875 459.8375,234.6563 C459.9469,234.5 459.9781,234.3125 459.9781,233.8906 L459.9781,232.4688 C459.9781,232.0313 459.9625,231.9063 459.8688,231.75 C459.7125,231.4844 459.4313,231.3438 459.1344,231.3438 C458.8375,231.3438 458.6344,231.4375 458.4156,231.75 L458.2438,231.6719 Z " fill="#000000"/><text fill="#000000" font-family="sans-serif" font-size="14" lengthAdjust="spacing" textLength="111" x="475.1" y="240.8467">AuthViewModel</text><line style="stroke:#181818;stroke-width:0.5;" x1="418.5" x2="611.5" y1="252" y2="252"/><line style="stroke:#181818;stroke-width:0.5;" x1="418.5" x2="611.5" y1="260" y2="260"/><ellipse cx="428.5" cy="273.6484" fill="#84BE84" rx="3" ry="3" style="stroke:#038048;stroke-width:1.0;"/><text fill="#000000" font-family="sans-serif" font-size="14" lengthAdjust="spacing" textLength="169" x="437.5" y="276.9951">authentifierUtilisateur()</text></g><!--class AltitudeViewModel--><g id="elem_AltitudeViewModel"><rect codeLine="36" fill="#F1F1F1" height="64.2969" id="AltitudeViewModel" rx="2.5" ry="2.5" style="stroke:#181818;stroke-width:0.5;" width="240" x="1433" y="220"/><ellipse cx="1481.25" cy="236" fill="#ADD1B2" rx="11" ry="11" style="stroke:#181818;stroke-width:1.0;"/><path d="M1483.5938,231.6719 C1482.6563,231.2344 1482.0625,231.0938 1481.1875,231.0938 C1478.5625,231.0938 1476.5625,233.1719 1476.5625,235.8906 L1476.5625,237.0156 C1476.5625,239.5938 1478.6719,241.4844 1481.5625,241.4844 C1482.7813,241.4844 1483.9375,241.1875 1484.6875,240.6406 C1485.2656,240.2344 1485.5938,239.7813 1485.5938,239.3906 C1485.5938,238.9375 1485.2031,238.5469 1484.7344,238.5469 C1484.5156,238.5469 1484.3125,238.625 1484.125,238.8125 C1483.6719,239.2969 1483.6719,239.2969 1483.4844,239.3906 C1483.0625,239.6563 1482.375,239.7813 1481.6094,239.7813 C1479.5625,239.7813 1478.2656,238.6875 1478.2656,236.9844 L1478.2656,235.8906 C1478.2656,234.1094 1479.5156,232.7969 1481.25,232.7969 C1481.8281,232.7969 1482.4375,232.9531 1482.9063,233.2031 C1483.3906,233.4844 1483.5625,233.7031 1483.6563,234.1094 C1483.7188,234.5156 1483.75,234.6406 1483.8906,234.7656 C1484.0313,234.9063 1484.2656,235.0156 1484.4844,235.0156 C1484.75,235.0156 1485.0156,234.875 1485.1875,234.6563 C1485.2969,234.5 1485.3281,234.3125 1485.3281,233.8906 L1485.3281,232.4688 C1485.3281,232.0313 1485.3125,231.9063 1485.2188,231.75 C1485.0625,231.4844 1484.7813,231.3438 1484.4844,231.3438 C1484.1875,231.3438 1483.9844,231.4375 1483.7656,231.75 L1483.5938,231.6719 Z " fill="#000000"/><text fill="#000000" font-family="sans-serif" font-size="14" lengthAdjust="spacing" textLength="135" x="1501.75" y="240.8467">AltitudeViewModel</text><line style="stroke:#181818;stroke-width:0.5;" x1="1434" x2="1672" y1="252" y2="252"/><line style="stroke:#181818;stroke-width:0.5;" x1="1434" x2="1672" y1="260" y2="260"/><ellipse cx="1444" cy="273.6484" fill="#84BE84" rx="3" ry="3" style="stroke:#038048;stroke-width:1.0;"/><text fill="#000000" font-family="sans-serif" font-size="14" lengthAdjust="spacing" textLength="214" x="1453" y="276.9951">modifierAltitude(altitude: Int)</text></g><!--class EmergencyViewModel--><g id="elem_EmergencyViewModel"><rect codeLine="40" fill="#F1F1F1" height="64.2969" id="EmergencyViewModel" rx="2.5" ry="2.5" style="stroke:#181818;stroke-width:0.5;" width="197" x="1708.5" y="220"/><ellipse cx="1726.65" cy="236" fill="#ADD1B2" rx="11" ry="11" style="stroke:#181818;stroke-width:1.0;"/><path d="M1728.9938,231.6719 C1728.0563,231.2344 1727.4625,231.0938 1726.5875,231.0938 C1723.9625,231.0938 1721.9625,233.1719 1721.9625,235.8906 L1721.9625,237.0156 C1721.9625,239.5938 1724.0719,241.4844 1726.9625,241.4844 C1728.1813,241.4844 1729.3375,241.1875 1730.0875,240.6406 C1730.6656,240.2344 1730.9938,239.7813 1730.9938,239.3906 C1730.9938,238.9375 1730.6031,238.5469 1730.1344,238.5469 C1729.9156,238.5469 1729.7125,238.625 1729.525,238.8125 C1729.0719,239.2969 1729.0719,239.2969 1728.8844,239.3906 C1728.4625,239.6563 1727.775,239.7813 1727.0094,239.7813 C1724.9625,239.7813 1723.6656,238.6875 1723.6656,236.9844 L1723.6656,235.8906 C1723.6656,234.1094 1724.9156,232.7969 1726.65,232.7969 C1727.2281,232.7969 1727.8375,232.9531 1728.3063,233.2031 C1728.7906,233.4844 1728.9625,233.7031 1729.0563,234.1094 C1729.1188,234.5156 1729.15,234.6406 1729.2906,234.7656 C1729.4313,234.9063 1729.6656,235.0156 1729.8844,235.0156 C1730.15,235.0156 1730.4156,234.875 1730.5875,234.6563 C1730.6969,234.5 1730.7281,234.3125 1730.7281,233.8906 L1730.7281,232.4688 C1730.7281,232.0313 1730.7125,231.9063 1730.6188,231.75 C1730.4625,231.4844 1730.1813,231.3438 1729.8844,231.3438 C1729.5875,231.3438 1729.3844,231.4375 1729.1656,231.75 L1728.9938,231.6719 Z " fill="#000000"/><text fill="#000000" font-family="sans-serif" font-size="14" lengthAdjust="spacing" textLength="158" x="1741.35" y="240.8467">EmergencyViewModel</text><line style="stroke:#181818;stroke-width:0.5;" x1="1709.5" x2="1904.5" y1="252" y2="252"/><line style="stroke:#181818;stroke-width:0.5;" x1="1709.5" x2="1904.5" y1="260" y2="260"/><ellipse cx="1719.5" cy="273.6484" fill="#84BE84" rx="3" ry="3" style="stroke:#038048;stroke-width:1.0;"/><text fill="#000000" font-family="sans-serif" font-size="14" lengthAdjust="spacing" textLength="171" x="1728.5" y="276.9951">activerBoutonUrgence()</text></g><!--class NavigationViewModel--><g id="elem_NavigationViewModel"><rect codeLine="44" fill="#F1F1F1" height="64.2969" id="NavigationViewModel" rx="2.5" ry="2.5" style="stroke:#181818;stroke-width:0.5;" width="298" x="648" y="220"/><ellipse cx="716.25" cy="236" fill="#ADD1B2" rx="11" ry="11" style="stroke:#181818;stroke-width:1.0;"/><path d="M718.5938,231.6719 C717.6563,231.2344 717.0625,231.0938 716.1875,231.0938 C713.5625,231.0938 711.5625,233.1719 711.5625,235.8906 L711.5625,237.0156 C711.5625,239.5938 713.6719,241.4844 716.5625,241.4844 C717.7813,241.4844 718.9375,241.1875 719.6875,240.6406 C720.2656,240.2344 720.5938,239.7813 720.5938,239.3906 C720.5938,238.9375 720.2031,238.5469 719.7344,238.5469 C719.5156,238.5469 719.3125,238.625 719.125,238.8125 C718.6719,239.2969 718.6719,239.2969 718.4844,239.3906 C718.0625,239.6563 717.375,239.7813 716.6094,239.7813 C714.5625,239.7813 713.2656,238.6875 713.2656,236.9844 L713.2656,235.8906 C713.2656,234.1094 714.5156,232.7969 716.25,232.7969 C716.8281,232.7969 717.4375,232.9531 717.9063,233.2031 C718.3906,233.4844 718.5625,233.7031 718.6563,234.1094 C718.7188,234.5156 718.75,234.6406 718.8906,234.7656 C719.0313,234.9063 719.2656,235.0156 719.4844,235.0156 C719.75,235.0156 720.0156,234.875 720.1875,234.6563 C720.2969,234.5 720.3281,234.3125 720.3281,233.8906 L720.3281,232.4688 C720.3281,232.0313 720.3125,231.9063 720.2188,231.75 C720.0625,231.4844 719.7813,231.3438 719.4844,231.3438 C719.1875,231.3438 718.9844,231.4375 718.7656,231.75 L718.5938,231.6719 Z " fill="#000000"/><text fill="#000000" font-family="sans-serif" font-size="14" lengthAdjust="spacing" textLength="153" x="736.75" y="240.8467">NavigationViewModel</text><line style="stroke:#181818;stroke-width:0.5;" x1="649" x2="945" y1="252" y2="252"/><line style="stroke:#181818;stroke-width:0.5;" x1="649" x2="945" y1="260" y2="260"/><ellipse cx="659" cy="273.6484" fill="#84BE84" rx="3" ry="3" style="stroke:#038048;stroke-width:1.0;"/><text fill="#000000" font-family="sans-serif" font-size="14" lengthAdjust="spacing" textLength="272" x="668" y="276.9951">d&#233;marrerNavigation(itin&#233;raire: String)</text></g><!--class MusicViewModel--><g id="elem_MusicViewModel"><rect codeLine="48" fill="#F1F1F1" height="64.2969" id="MusicViewModel" rx="2.5" ry="2.5" style="stroke:#181818;stroke-width:0.5;" width="148" x="1250" y="220"/><ellipse cx="1265" cy="236" fill="#ADD1B2" rx="11" ry="11" style="stroke:#181818;stroke-width:1.0;"/><path d="M1267.3438,231.6719 C1266.4063,231.2344 1265.8125,231.0938 1264.9375,231.0938 C1262.3125,231.0938 1260.3125,233.1719 1260.3125,235.8906 L1260.3125,237.0156 C1260.3125,239.5938 1262.4219,241.4844 1265.3125,241.4844 C1266.5313,241.4844 1267.6875,241.1875 1268.4375,240.6406 C1269.0156,240.2344 1269.3438,239.7813 1269.3438,239.3906 C1269.3438,238.9375 1268.9531,238.5469 1268.4844,238.5469 C1268.2656,238.5469 1268.0625,238.625 1267.875,238.8125 C1267.4219,239.2969 1267.4219,239.2969 1267.2344,239.3906 C1266.8125,239.6563 1266.125,239.7813 1265.3594,239.7813 C1263.3125,239.7813 1262.0156,238.6875 1262.0156,236.9844 L1262.0156,235.8906 C1262.0156,234.1094 1263.2656,232.7969 1265,232.7969 C1265.5781,232.7969 1266.1875,232.9531 1266.6563,233.2031 C1267.1406,233.4844 1267.3125,233.7031 1267.4063,234.1094 C1267.4688,234.5156 1267.5,234.6406 1267.6406,234.7656 C1267.7813,234.9063 1268.0156,235.0156 1268.2344,235.0156 C1268.5,235.0156 1268.7656,234.875 1268.9375,234.6563 C1269.0469,234.5 1269.0781,234.3125 1269.0781,233.8906 L1269.0781,232.4688 C1269.0781,232.0313 1269.0625,231.9063 1268.9688,231.75 C1268.8125,231.4844 1268.5313,231.3438 1268.2344,231.3438 C1267.9375,231.3438 1267.7344,231.4375 1267.5156,231.75 L1267.3438,231.6719 Z " fill="#000000"/><text fill="#000000" font-family="sans-serif" font-size="14" lengthAdjust="spacing" textLength="116" x="1279" y="240.8467">MusicViewModel</text><line style="stroke:#181818;stroke-width:0.5;" x1="1251" x2="1397" y1="252" y2="252"/><line style="stroke:#181818;stroke-width:0.5;" x1="1251" x2="1397" y1="260" y2="260"/><ellipse cx="1261" cy="273.6484" fill="#84BE84" rx="3" ry="3" style="stroke:#038048;stroke-width:1.0;"/><text fill="#000000" font-family="sans-serif" font-size="14" lengthAdjust="spacing" textLength="103" x="1270" y="276.9951">jouerMusique()</text></g><!--class HealthMonitoringViewModel--><g id="elem_HealthMonitoringViewModel"><rect codeLine="52" fill="#F1F1F1" height="64.2969" id="HealthMonitoringViewModel" rx="2.5" ry="2.5" style="stroke:#181818;stroke-width:0.5;" width="234" x="981" y="220"/><ellipse cx="996" cy="236" fill="#ADD1B2" rx="11" ry="11" style="stroke:#181818;stroke-width:1.0;"/><path d="M998.3438,231.6719 C997.4063,231.2344 996.8125,231.0938 995.9375,231.0938 C993.3125,231.0938 991.3125,233.1719 991.3125,235.8906 L991.3125,237.0156 C991.3125,239.5938 993.4219,241.4844 996.3125,241.4844 C997.5313,241.4844 998.6875,241.1875 999.4375,240.6406 C1000.0156,240.2344 1000.3438,239.7813 1000.3438,239.3906 C1000.3438,238.9375 999.9531,238.5469 999.4844,238.5469 C999.2656,238.5469 999.0625,238.625 998.875,238.8125 C998.4219,239.2969 998.4219,239.2969 998.2344,239.3906 C997.8125,239.6563 997.125,239.7813 996.3594,239.7813 C994.3125,239.7813 993.0156,238.6875 993.0156,236.9844 L993.0156,235.8906 C993.0156,234.1094 994.2656,232.7969 996,232.7969 C996.5781,232.7969 997.1875,232.9531 997.6563,233.2031 C998.1406,233.4844 998.3125,233.7031 998.4063,234.1094 C998.4688,234.5156 998.5,234.6406 998.6406,234.7656 C998.7813,234.9063 999.0156,235.0156 999.2344,235.0156 C999.5,235.0156 999.7656,234.875 999.9375,234.6563 C1000.0469,234.5 1000.0781,234.3125 1000.0781,233.8906 L1000.0781,232.4688 C1000.0781,232.0313 1000.0625,231.9063 999.9688,231.75 C999.8125,231.4844 999.5313,231.3438 999.2344,231.3438 C998.9375,231.3438 998.7344,231.4375 998.5156,231.75 L998.3438,231.6719 Z " fill="#000000"/><text fill="#000000" font-family="sans-serif" font-size="14" lengthAdjust="spacing" textLength="202" x="1010" y="240.8467">HealthMonitoringViewModel</text><line style="stroke:#181818;stroke-width:0.5;" x1="982" x2="1214" y1="252" y2="252"/><line style="stroke:#181818;stroke-width:0.5;" x1="982" x2="1214" y1="260" y2="260"/><ellipse cx="992" cy="273.6484" fill="#84BE84" rx="3" ry="3" style="stroke:#038048;stroke-width:1.0;"/><text fill="#000000" font-family="sans-serif" font-size="14" lengthAdjust="spacing" textLength="117" x="1001" y="276.9951">surveillerSant&#233;()</text></g><!--class MaskCommunicationService--><g id="elem_MaskCommunicationService"><rect codeLine="58" fill="#F1F1F1" height="80.5938" id="MaskCommunicationService" rx="2.5" ry="2.5" style="stroke:#181818;stroke-width:0.5;" width="237" x="1215.5" y="384"/><ellipse cx="1231.85" cy="400" fill="#ADD1B2" rx="11" ry="11" style="stroke:#181818;stroke-width:1.0;"/><path d="M1234.1938,395.6719 C1233.2563,395.2344 1232.6625,395.0938 1231.7875,395.0938 C1229.1625,395.0938 1227.1625,397.1719 1227.1625,399.8906 L1227.1625,401.0156 C1227.1625,403.5938 1229.2719,405.4844 1232.1625,405.4844 C1233.3813,405.4844 1234.5375,405.1875 1235.2875,404.6406 C1235.8656,404.2344 1236.1938,403.7813 1236.1938,403.3906 C1236.1938,402.9375 1235.8031,402.5469 1235.3344,402.5469 C1235.1156,402.5469 1234.9125,402.625 1234.725,402.8125 C1234.2719,403.2969 1234.2719,403.2969 1234.0844,403.3906 C1233.6625,403.6563 1232.975,403.7813 1232.2094,403.7813 C1230.1625,403.7813 1228.8656,402.6875 1228.8656,400.9844 L1228.8656,399.8906 C1228.8656,398.1094 1230.1156,396.7969 1231.85,396.7969 C1232.4281,396.7969 1233.0375,396.9531 1233.5063,397.2031 C1233.9906,397.4844 1234.1625,397.7031 1234.2563,398.1094 C1234.3188,398.5156 1234.35,398.6406 1234.4906,398.7656 C1234.6313,398.9063 1234.8656,399.0156 1235.0844,399.0156 C1235.35,399.0156 1235.6156,398.875 1235.7875,398.6563 C1235.8969,398.5 1235.9281,398.3125 1235.9281,397.8906 L1235.9281,396.4688 C1235.9281,396.0313 1235.9125,395.9063 1235.8188,395.75 C1235.6625,395.4844 1235.3813,395.3438 1235.0844,395.3438 C1234.7875,395.3438 1234.5844,395.4375 1234.3656,395.75 L1234.1938,395.6719 Z " fill="#000000"/><text fill="#000000" font-family="sans-serif" font-size="14" lengthAdjust="spacing" textLength="202" x="1246.15" y="404.8467">MaskCommunicationService</text><line style="stroke:#181818;stroke-width:0.5;" x1="1216.5" x2="1451.5" y1="416" y2="416"/><line style="stroke:#181818;stroke-width:0.5;" x1="1216.5" x2="1451.5" y1="424" y2="424"/><ellipse cx="1226.5" cy="437.6484" fill="#84BE84" rx="3" ry="3" style="stroke:#038048;stroke-width:1.0;"/><text fill="#000000" font-family="sans-serif" font-size="14" lengthAdjust="spacing" textLength="211" x="1235.5" y="440.9951">changerAltitude(altitude: Int)</text><ellipse cx="1226.5" cy="453.9453" fill="#84BE84" rx="3" ry="3" style="stroke:#038048;stroke-width:1.0;"/><text fill="#000000" font-family="sans-serif" font-size="14" lengthAdjust="spacing" textLength="119" x="1235.5" y="457.292">activerUrgence()</text></g><!--class HealthService--><g id="elem_HealthService"><rect codeLine="63" fill="#F1F1F1" height="64.2969" id="HealthService" rx="2.5" ry="2.5" style="stroke:#181818;stroke-width:0.5;" width="195" x="985.5" y="392.5"/><ellipse cx="1028.85" cy="408.5" fill="#ADD1B2" rx="11" ry="11" style="stroke:#181818;stroke-width:1.0;"/><path d="M1031.1938,404.1719 C1030.2563,403.7344 1029.6625,403.5938 1028.7875,403.5938 C1026.1625,403.5938 1024.1625,405.6719 1024.1625,408.3906 L1024.1625,409.5156 C1024.1625,412.0938 1026.2719,413.9844 1029.1625,413.9844 C1030.3813,413.9844 1031.5375,413.6875 1032.2875,413.1406 C1032.8656,412.7344 1033.1938,412.2813 1033.1938,411.8906 C1033.1938,411.4375 1032.8031,411.0469 1032.3344,411.0469 C1032.1156,411.0469 1031.9125,411.125 1031.725,411.3125 C1031.2719,411.7969 1031.2719,411.7969 1031.0844,411.8906 C1030.6625,412.1563 1029.975,412.2813 1029.2094,412.2813 C1027.1625,412.2813 1025.8656,411.1875 1025.8656,409.4844 L1025.8656,408.3906 C1025.8656,406.6094 1027.1156,405.2969 1028.85,405.2969 C1029.4281,405.2969 1030.0375,405.4531 1030.5063,405.7031 C1030.9906,405.9844 1031.1625,406.2031 1031.2563,406.6094 C1031.3188,407.0156 1031.35,407.1406 1031.4906,407.2656 C1031.6313,407.4063 1031.8656,407.5156 1032.0844,407.5156 C1032.35,407.5156 1032.6156,407.375 1032.7875,407.1563 C1032.8969,407 1032.9281,406.8125 1032.9281,406.3906 L1032.9281,404.9688 C1032.9281,404.5313 1032.9125,404.4063 1032.8188,404.25 C1032.6625,403.9844 1032.3813,403.8438 1032.0844,403.8438 C1031.7875,403.8438 1031.5844,403.9375 1031.3656,404.25 L1031.1938,404.1719 Z " fill="#000000"/><text fill="#000000" font-family="sans-serif" font-size="14" lengthAdjust="spacing" textLength="100" x="1049.15" y="413.3467">HealthService</text><line style="stroke:#181818;stroke-width:0.5;" x1="986.5" x2="1179.5" y1="424.5" y2="424.5"/><line style="stroke:#181818;stroke-width:0.5;" x1="986.5" x2="1179.5" y1="432.5" y2="432.5"/><ellipse cx="996.5" cy="446.1484" fill="#84BE84" rx="3" ry="3" style="stroke:#038048;stroke-width:1.0;"/><text fill="#000000" font-family="sans-serif" font-size="14" lengthAdjust="spacing" textLength="169" x="1005.5" y="449.4951">obtenirDonn&#233;esSant&#233;()</text></g><!--class NavigationService--><g id="elem_NavigationService"><rect codeLine="67" fill="#F1F1F1" height="64.2969" id="NavigationService" rx="2.5" ry="2.5" style="stroke:#181818;stroke-width:0.5;" width="161" x="789.5" y="392.5"/><ellipse cx="804.5" cy="408.5" fill="#ADD1B2" rx="11" ry="11" style="stroke:#181818;stroke-width:1.0;"/><path d="M806.8438,404.1719 C805.9063,403.7344 805.3125,403.5938 804.4375,403.5938 C801.8125,403.5938 799.8125,405.6719 799.8125,408.3906 L799.8125,409.5156 C799.8125,412.0938 801.9219,413.9844 804.8125,413.9844 C806.0313,413.9844 807.1875,413.6875 807.9375,413.1406 C808.5156,412.7344 808.8438,412.2813 808.8438,411.8906 C808.8438,411.4375 808.4531,411.0469 807.9844,411.0469 C807.7656,411.0469 807.5625,411.125 807.375,411.3125 C806.9219,411.7969 806.9219,411.7969 806.7344,411.8906 C806.3125,412.1563 805.625,412.2813 804.8594,412.2813 C802.8125,412.2813 801.5156,411.1875 801.5156,409.4844 L801.5156,408.3906 C801.5156,406.6094 802.7656,405.2969 804.5,405.2969 C805.0781,405.2969 805.6875,405.4531 806.1563,405.7031 C806.6406,405.9844 806.8125,406.2031 806.9063,406.6094 C806.9688,407.0156 807,407.1406 807.1406,407.2656 C807.2813,407.4063 807.5156,407.5156 807.7344,407.5156 C808,407.5156 808.2656,407.375 808.4375,407.1563 C808.5469,407 808.5781,406.8125 808.5781,406.3906 L808.5781,404.9688 C808.5781,404.5313 808.5625,404.4063 808.4688,404.25 C808.3125,403.9844 808.0313,403.8438 807.7344,403.8438 C807.4375,403.8438 807.2344,403.9375 807.0156,404.25 L806.8438,404.1719 Z " fill="#000000"/><text fill="#000000" font-family="sans-serif" font-size="14" lengthAdjust="spacing" textLength="129" x="818.5" y="413.3467">NavigationService</text><line style="stroke:#181818;stroke-width:0.5;" x1="790.5" x2="949.5" y1="424.5" y2="424.5"/><line style="stroke:#181818;stroke-width:0.5;" x1="790.5" x2="949.5" y1="432.5" y2="432.5"/><ellipse cx="800.5" cy="446.1484" fill="#84BE84" rx="3" ry="3" style="stroke:#038048;stroke-width:1.0;"/><text fill="#000000" font-family="sans-serif" font-size="14" lengthAdjust="spacing" textLength="130" x="809.5" y="449.4951">obtenirItin&#233;raire()</text></g><!--class AuthenticationService--><g id="elem_AuthenticationService"><rect codeLine="71" fill="#F1F1F1" height="64.2969" id="AuthenticationService" rx="2.5" ry="2.5" style="stroke:#181818;stroke-width:0.5;" width="365" x="389.5" y="392.5"/><ellipse cx="487.25" cy="408.5" fill="#ADD1B2" rx="11" ry="11" style="stroke:#181818;stroke-width:1.0;"/><path d="M489.5938,404.1719 C488.6563,403.7344 488.0625,403.5938 487.1875,403.5938 C484.5625,403.5938 482.5625,405.6719 482.5625,408.3906 L482.5625,409.5156 C482.5625,412.0938 484.6719,413.9844 487.5625,413.9844 C488.7813,413.9844 489.9375,413.6875 490.6875,413.1406 C491.2656,412.7344 491.5938,412.2813 491.5938,411.8906 C491.5938,411.4375 491.2031,411.0469 490.7344,411.0469 C490.5156,411.0469 490.3125,411.125 490.125,411.3125 C489.6719,411.7969 489.6719,411.7969 489.4844,411.8906 C489.0625,412.1563 488.375,412.2813 487.6094,412.2813 C485.5625,412.2813 484.2656,411.1875 484.2656,409.4844 L484.2656,408.3906 C484.2656,406.6094 485.5156,405.2969 487.25,405.2969 C487.8281,405.2969 488.4375,405.4531 488.9063,405.7031 C489.3906,405.9844 489.5625,406.2031 489.6563,406.6094 C489.7188,407.0156 489.75,407.1406 489.8906,407.2656 C490.0313,407.4063 490.2656,407.5156 490.4844,407.5156 C490.75,407.5156 491.0156,407.375 491.1875,407.1563 C491.2969,407 491.3281,406.8125 491.3281,406.3906 L491.3281,404.9688 C491.3281,404.5313 491.3125,404.4063 491.2188,404.25 C491.0625,403.9844 490.7813,403.8438 490.4844,403.8438 C490.1875,403.8438 489.9844,403.9375 489.7656,404.25 L489.5938,404.1719 Z " fill="#000000"/><text fill="#000000" font-family="sans-serif" font-size="14" lengthAdjust="spacing" textLength="161" x="507.75" y="413.3467">AuthenticationService</text><line style="stroke:#181818;stroke-width:0.5;" x1="390.5" x2="753.5" y1="424.5" y2="424.5"/><line style="stroke:#181818;stroke-width:0.5;" x1="390.5" x2="753.5" y1="432.5" y2="432.5"/><ellipse cx="400.5" cy="446.1484" fill="#84BE84" rx="3" ry="3" style="stroke:#038048;stroke-width:1.0;"/><text fill="#000000" font-family="sans-serif" font-size="14" lengthAdjust="spacing" textLength="339" x="409.5" y="449.4951">authentifier(email: String, motDePasse: String)</text></g><!--class UserSettingsRepository--><g id="elem_UserSettingsRepository"><rect codeLine="77" fill="#F1F1F1" height="80.5938" id="UserSettingsRepository" rx="2.5" ry="2.5" style="stroke:#181818;stroke-width:0.5;" width="361" x="1307.5" y="565"/><ellipse cx="1398.25" cy="581" fill="#ADD1B2" rx="11" ry="11" style="stroke:#181818;stroke-width:1.0;"/><path d="M1400.5938,576.6719 C1399.6563,576.2344 1399.0625,576.0938 1398.1875,576.0938 C1395.5625,576.0938 1393.5625,578.1719 1393.5625,580.8906 L1393.5625,582.0156 C1393.5625,584.5938 1395.6719,586.4844 1398.5625,586.4844 C1399.7813,586.4844 1400.9375,586.1875 1401.6875,585.6406 C1402.2656,585.2344 1402.5938,584.7813 1402.5938,584.3906 C1402.5938,583.9375 1402.2031,583.5469 1401.7344,583.5469 C1401.5156,583.5469 1401.3125,583.625 1401.125,583.8125 C1400.6719,584.2969 1400.6719,584.2969 1400.4844,584.3906 C1400.0625,584.6563 1399.375,584.7813 1398.6094,584.7813 C1396.5625,584.7813 1395.2656,583.6875 1395.2656,581.9844 L1395.2656,580.8906 C1395.2656,579.1094 1396.5156,577.7969 1398.25,577.7969 C1398.8281,577.7969 1399.4375,577.9531 1399.9063,578.2031 C1400.3906,578.4844 1400.5625,578.7031 1400.6563,579.1094 C1400.7188,579.5156 1400.75,579.6406 1400.8906,579.7656 C1401.0313,579.9063 1401.2656,580.0156 1401.4844,580.0156 C1401.75,580.0156 1402.0156,579.875 1402.1875,579.6563 C1402.2969,579.5 1402.3281,579.3125 1402.3281,578.8906 L1402.3281,577.4688 C1402.3281,577.0313 1402.3125,576.9063 1402.2188,576.75 C1402.0625,576.4844 1401.7813,576.3438 1401.4844,576.3438 C1401.1875,576.3438 1400.9844,576.4375 1400.7656,576.75 L1400.5938,576.6719 Z " fill="#000000"/><text fill="#000000" font-family="sans-serif" font-size="14" lengthAdjust="spacing" textLength="171" x="1418.75" y="585.8467">UserSettingsRepository</text><line style="stroke:#181818;stroke-width:0.5;" x1="1308.5" x2="1667.5" y1="597" y2="597"/><line style="stroke:#181818;stroke-width:0.5;" x1="1308.5" x2="1667.5" y1="605" y2="605"/><ellipse cx="1318.5" cy="618.6484" fill="#84BE84" rx="3" ry="3" style="stroke:#038048;stroke-width:1.0;"/><text fill="#000000" font-family="sans-serif" font-size="14" lengthAdjust="spacing" textLength="335" x="1327.5" y="621.9951">sauvegarderR&#233;glages(utilisateur: UserSettings)</text><ellipse cx="1318.5" cy="634.9453" fill="#84BE84" rx="3" ry="3" style="stroke:#038048;stroke-width:1.0;"/><text fill="#000000" font-family="sans-serif" font-size="14" lengthAdjust="spacing" textLength="231" x="1327.5" y="638.292">chargerR&#233;glages(): UserSettings</text></g><!--class HealthDataRepository--><g id="elem_HealthDataRepository"><rect codeLine="82" fill="#F1F1F1" height="80.5938" id="HealthDataRepository" rx="2.5" ry="2.5" style="stroke:#181818;stroke-width:0.5;" width="379" x="893.5" y="565"/><ellipse cx="998.75" cy="581" fill="#ADD1B2" rx="11" ry="11" style="stroke:#181818;stroke-width:1.0;"/><path d="M1001.0938,576.6719 C1000.1563,576.2344 999.5625,576.0938 998.6875,576.0938 C996.0625,576.0938 994.0625,578.1719 994.0625,580.8906 L994.0625,582.0156 C994.0625,584.5938 996.1719,586.4844 999.0625,586.4844 C1000.2813,586.4844 1001.4375,586.1875 1002.1875,585.6406 C1002.7656,585.2344 1003.0938,584.7813 1003.0938,584.3906 C1003.0938,583.9375 1002.7031,583.5469 1002.2344,583.5469 C1002.0156,583.5469 1001.8125,583.625 1001.625,583.8125 C1001.1719,584.2969 1001.1719,584.2969 1000.9844,584.3906 C1000.5625,584.6563 999.875,584.7813 999.1094,584.7813 C997.0625,584.7813 995.7656,583.6875 995.7656,581.9844 L995.7656,580.8906 C995.7656,579.1094 997.0156,577.7969 998.75,577.7969 C999.3281,577.7969 999.9375,577.9531 1000.4063,578.2031 C1000.8906,578.4844 1001.0625,578.7031 1001.1563,579.1094 C1001.2188,579.5156 1001.25,579.6406 1001.3906,579.7656 C1001.5313,579.9063 1001.7656,580.0156 1001.9844,580.0156 C1002.25,580.0156 1002.5156,579.875 1002.6875,579.6563 C1002.7969,579.5 1002.8281,579.3125 1002.8281,578.8906 L1002.8281,577.4688 C1002.8281,577.0313 1002.8125,576.9063 1002.7188,576.75 C1002.5625,576.4844 1002.2813,576.3438 1001.9844,576.3438 C1001.6875,576.3438 1001.4844,576.4375 1001.2656,576.75 L1001.0938,576.6719 Z " fill="#000000"/><text fill="#000000" font-family="sans-serif" font-size="14" lengthAdjust="spacing" textLength="160" x="1019.25" y="585.8467">HealthDataRepository</text><line style="stroke:#181818;stroke-width:0.5;" x1="894.5" x2="1271.5" y1="597" y2="597"/><line style="stroke:#181818;stroke-width:0.5;" x1="894.5" x2="1271.5" y1="605" y2="605"/><ellipse cx="904.5" cy="618.6484" fill="#84BE84" rx="3" ry="3" style="stroke:#038048;stroke-width:1.0;"/><text fill="#000000" font-family="sans-serif" font-size="14" lengthAdjust="spacing" textLength="353" x="913.5" y="621.9951">sauvegarderDonn&#233;esSant&#233;(donn&#233;es: HealthData)</text><ellipse cx="904.5" cy="634.9453" fill="#84BE84" rx="3" ry="3" style="stroke:#038048;stroke-width:1.0;"/><text fill="#000000" font-family="sans-serif" font-size="14" lengthAdjust="spacing" textLength="260" x="913.5" y="638.292">chargerDonn&#233;esSant&#233;(): HealthData</text></g><!--class NavigationRepository--><g id="elem_NavigationRepository"><rect codeLine="87" fill="#F1F1F1" height="80.5938" id="NavigationRepository" rx="2.5" ry="2.5" style="stroke:#181818;stroke-width:0.5;" width="369" x="489.5" y="565"/><ellipse cx="592.25" cy="581" fill="#ADD1B2" rx="11" ry="11" style="stroke:#181818;stroke-width:1.0;"/><path d="M594.5938,576.6719 C593.6563,576.2344 593.0625,576.0938 592.1875,576.0938 C589.5625,576.0938 587.5625,578.1719 587.5625,580.8906 L587.5625,582.0156 C587.5625,584.5938 589.6719,586.4844 592.5625,586.4844 C593.7813,586.4844 594.9375,586.1875 595.6875,585.6406 C596.2656,585.2344 596.5938,584.7813 596.5938,584.3906 C596.5938,583.9375 596.2031,583.5469 595.7344,583.5469 C595.5156,583.5469 595.3125,583.625 595.125,583.8125 C594.6719,584.2969 594.6719,584.2969 594.4844,584.3906 C594.0625,584.6563 593.375,584.7813 592.6094,584.7813 C590.5625,584.7813 589.2656,583.6875 589.2656,581.9844 L589.2656,580.8906 C589.2656,579.1094 590.5156,577.7969 592.25,577.7969 C592.8281,577.7969 593.4375,577.9531 593.9063,578.2031 C594.3906,578.4844 594.5625,578.7031 594.6563,579.1094 C594.7188,579.5156 594.75,579.6406 594.8906,579.7656 C595.0313,579.9063 595.2656,580.0156 595.4844,580.0156 C595.75,580.0156 596.0156,579.875 596.1875,579.6563 C596.2969,579.5 596.3281,579.3125 596.3281,578.8906 L596.3281,577.4688 C596.3281,577.0313 596.3125,576.9063 596.2188,576.75 C596.0625,576.4844 595.7813,576.3438 595.4844,576.3438 C595.1875,576.3438 594.9844,576.4375 594.7656,576.75 L594.5938,576.6719 Z " fill="#000000"/><text fill="#000000" font-family="sans-serif" font-size="14" lengthAdjust="spacing" textLength="155" x="612.75" y="585.8467">NavigationRepository</text><line style="stroke:#181818;stroke-width:0.5;" x1="490.5" x2="857.5" y1="597" y2="597"/><line style="stroke:#181818;stroke-width:0.5;" x1="490.5" x2="857.5" y1="605" y2="605"/><ellipse cx="500.5" cy="618.6484" fill="#84BE84" rx="3" ry="3" style="stroke:#038048;stroke-width:1.0;"/><text fill="#000000" font-family="sans-serif" font-size="14" lengthAdjust="spacing" textLength="343" x="509.5" y="621.9951">sauvegarderItin&#233;raire(donn&#233;es: NavigationData)</text><ellipse cx="500.5" cy="634.9453" fill="#84BE84" rx="3" ry="3" style="stroke:#038048;stroke-width:1.0;"/><text fill="#000000" font-family="sans-serif" font-size="14" lengthAdjust="spacing" textLength="250" x="509.5" y="638.292">chargerItin&#233;raire(): NavigationData</text></g><!--link AuthActivity to AuthViewModel--><g id="link_AuthActivity_AuthViewModel"><path codeLine="93" d="M900.736,113.543 C881.647,122.277 860.279,131.122 840,137.5 C749.405,165.994 718.236,141.875 630,177 C603.31,187.625 581.0478,201.2596 559.8338,216.3536 " fill="none" id="AuthActivity-to-AuthViewModel" style="stroke:#181818;stroke-width:1.0;"/><polygon fill="#181818" points="554.945,219.832,564.5972,217.8735,559.019,216.9333,559.9593,211.3551,554.945,219.832" style="stroke:#181818;stroke-width:1.0;"/><text fill="#000000" font-family="sans-serif" font-size="13" lengthAdjust="spacing" textLength="37" x="769" y="165.0669">utilise</text></g><!--link MainActivity to AltitudeViewModel--><g id="link_MainActivity_AltitudeViewModel"><path codeLine="94" d="M1245.65,107.842 C1294.33,125.699 1359.83,150.982 1416,177 C1443.96,189.952 1468.9465,203.1266 1493.8765,216.9926 " fill="none" id="MainActivity-to-AltitudeViewModel" style="stroke:#181818;stroke-width:1.0;"/><polygon fill="#181818" points="1499.12,219.909,1493.199,212.0387,1494.7504,217.4786,1489.3104,219.03,1499.12,219.909" style="stroke:#181818;stroke-width:1.0;"/><text fill="#000000" font-family="sans-serif" font-size="13" lengthAdjust="spacing" textLength="37" x="1397" y="165.0669">utilise</text></g><!--link MainActivity to EmergencyViewModel--><g id="link_MainActivity_EmergencyViewModel"><path codeLine="95" d="M1245.78,86.865 C1347.86,94.999 1539.41,117.449 1691,177 C1718.01,187.612 1740.6201,201.3572 1762.0601,216.5092 " fill="none" id="MainActivity-to-EmergencyViewModel" style="stroke:#181818;stroke-width:1.0;"/><polygon fill="#181818" points="1766.96,219.972,1761.9187,211.5112,1762.8768,217.0863,1757.3016,218.0443,1766.96,219.972" style="stroke:#181818;stroke-width:1.0;"/><text fill="#000000" font-family="sans-serif" font-size="13" lengthAdjust="spacing" textLength="37" x="1665" y="165.0669">utilise</text></g><!--link MainActivity to NavigationViewModel--><g id="link_MainActivity_NavigationViewModel"><path codeLine="96" d="M1128.05,113.777 C1114.55,122.169 1099.5,130.771 1085,137.5 C1033.69,161.316 1016.82,156.737 964,177 C930.247,189.949 898.8995,203.5535 868.4495,217.4195 " fill="none" id="MainActivity-to-NavigationViewModel" style="stroke:#181818;stroke-width:1.0;"/><polygon fill="#181818" points="862.989,219.906,872.8375,219.8165,867.5394,217.8339,869.5221,212.5358,862.989,219.906" style="stroke:#181818;stroke-width:1.0;"/><text fill="#000000" font-family="sans-serif" font-size="13" lengthAdjust="spacing" textLength="37" x="1047" y="165.0669">utilise</text></g><!--link MainActivity to MusicViewModel--><g id="link_MainActivity_MusicViewModel"><path codeLine="97" d="M1201.86,113.799 C1228.8,144.064 1265.4107,185.1783 1292.3007,215.3873 " fill="none" id="MainActivity-to-MusicViewModel" style="stroke:#181818;stroke-width:1.0;"/><polygon fill="#181818" points="1296.29,219.869,1293.2939,210.4869,1292.9656,216.1343,1287.3183,215.806,1296.29,219.869" style="stroke:#181818;stroke-width:1.0;"/><text fill="#000000" font-family="sans-serif" font-size="13" lengthAdjust="spacing" textLength="37" x="1250" y="165.0669">utilise</text></g><!--link MainActivity to HealthMonitoringViewModel--><g id="link_MainActivity_HealthMonitoringViewModel"><path codeLine="98" d="M1159.88,113.799 C1146.23,144.064 1128.1376,184.1909 1114.5076,214.3999 " fill="none" id="MainActivity-to-HealthMonitoringViewModel" style="stroke:#181818;stroke-width:1.0;"/><polygon fill="#181818" points="1112.04,219.869,1119.3875,213.3104,1114.0963,215.3114,1112.0953,210.0203,1112.04,219.869" style="stroke:#181818;stroke-width:1.0;"/><text fill="#000000" font-family="sans-serif" font-size="13" lengthAdjust="spacing" textLength="37" x="1141" y="165.0669">utilise</text></g><!--link AuthViewModel to AuthenticationService--><g id="link_AuthViewModel_AuthenticationService"><path codeLine="100" d="M525.455,284.272 C535.739,315.036 549.4476,356.0406 559.7096,386.7356 " fill="none" id="AuthViewModel-to-AuthenticationService" style="stroke:#181818;stroke-width:1.0;"/><polygon fill="#181818" points="561.612,392.426,562.552,382.6221,560.0266,387.684,554.9648,385.1587,561.612,392.426" style="stroke:#181818;stroke-width:1.0;"/><text fill="#000000" font-family="sans-serif" font-size="13" lengthAdjust="spacing" textLength="37" x="542" y="329.0669">utilise</text></g><!--link AltitudeViewModel to MaskCommunicationService--><g id="link_AltitudeViewModel_MaskCommunicationService"><path codeLine="101" d="M1513.09,284.074 C1477.06,312.121 1428.6142,349.84 1389.5642,380.244 " fill="none" id="AltitudeViewModel-to-MaskCommunicationService" style="stroke:#181818;stroke-width:1.0;"/><polygon fill="#181818" points="1384.83,383.93,1394.3887,381.5571,1388.7752,380.8583,1389.474,375.2448,1384.83,383.93" style="stroke:#181818;stroke-width:1.0;"/><text fill="#000000" font-family="sans-serif" font-size="13" lengthAdjust="spacing" textLength="37" x="1470" y="329.0669">utilise</text></g><!--link EmergencyViewModel to MaskCommunicationService--><g id="link_EmergencyViewModel_MaskCommunicationService"><path codeLine="102" d="M1745.35,284.052 C1727.97,292.303 1708.92,300.888 1691,308 C1612.89,339 1528.5925,366.3461 1458.4825,387.5761 " fill="none" id="EmergencyViewModel-to-MaskCommunicationService" style="stroke:#181818;stroke-width:1.0;"/><polygon fill="#181818" points="1452.74,389.315,1462.513,390.535,1457.5254,387.8659,1460.1945,382.8783,1452.74,389.315" style="stroke:#181818;stroke-width:1.0;"/><text fill="#000000" font-family="sans-serif" font-size="13" lengthAdjust="spacing" textLength="37" x="1663" y="329.0669">utilise</text></g><!--link NavigationViewModel to NavigationService--><g id="link_NavigationViewModel_NavigationService"><path codeLine="103" d="M810.389,284.272 C823.561,315.036 841.1913,356.2153 854.3343,386.9103 " fill="none" id="NavigationViewModel-to-NavigationService" style="stroke:#181818;stroke-width:1.0;"/><polygon fill="#181818" points="856.696,392.426,856.8306,382.5781,854.7279,387.8296,849.4764,385.727,856.696,392.426" style="stroke:#181818;stroke-width:1.0;"/><text fill="#000000" font-family="sans-serif" font-size="13" lengthAdjust="spacing" textLength="37" x="830" y="329.0669">utilise</text></g><!--link MusicViewModel to MaskCommunicationService--><g id="link_MusicViewModel_MaskCommunicationService"><path codeLine="104" d="M1325.83,284.272 C1327.47,312.248 1329.5383,347.4083 1331.3183,377.7203 " fill="none" id="MusicViewModel-to-MaskCommunicationService" style="stroke:#181818;stroke-width:1.0;"/><polygon fill="#181818" points="1331.67,383.71,1335.1355,374.491,1331.3769,378.7186,1327.1493,374.96,1331.67,383.71" style="stroke:#181818;stroke-width:1.0;"/><text fill="#000000" font-family="sans-serif" font-size="13" lengthAdjust="spacing" textLength="37" x="1329" y="329.0669">utilise</text></g><!--link HealthMonitoringViewModel to HealthService--><g id="link_HealthMonitoringViewModel_HealthService"><path codeLine="105" d="M1095.25,284.272 C1092.54,315.036 1088.9557,355.7541 1086.2557,386.4491 " fill="none" id="HealthMonitoringViewModel-to-HealthService" style="stroke:#181818;stroke-width:1.0;"/><polygon fill="#181818" points="1085.73,392.426,1090.5032,383.8111,1086.1681,387.4452,1082.534,383.1101,1085.73,392.426" style="stroke:#181818;stroke-width:1.0;"/><text fill="#000000" font-family="sans-serif" font-size="13" lengthAdjust="spacing" textLength="37" x="1093" y="329.0669">utilise</text></g><!--link MaskCommunicationService to UserSettingsRepository--><g id="link_MaskCommunicationService_UserSettingsRepository"><path codeLine="107" d="M1368.18,465.226 C1393.7,494.889 1424.5066,530.7009 1450.0066,560.3369 " fill="none" id="MaskCommunicationService-to-UserSettingsRepository" style="stroke:#181818;stroke-width:1.0;stroke-dasharray:7.0,7.0;"/><polygon fill="#181818" points="1453.92,564.885,1451.082,555.4539,1450.6588,561.0949,1445.0178,560.6717,1453.92,564.885" style="stroke:#181818;stroke-width:1.0;"/><text fill="#000000" font-family="sans-serif" font-size="13" lengthAdjust="spacing" textLength="68" x="1407" y="510.0669">d&#233;pend de</text></g><!--link HealthService to HealthDataRepository--><g id="link_HealthService_HealthDataRepository"><path codeLine="108" d="M1083,456.679 C1083,486.729 1083,526.314 1083,558.913 " fill="none" id="HealthService-to-HealthDataRepository" style="stroke:#181818;stroke-width:1.0;stroke-dasharray:7.0,7.0;"/><polygon fill="#181818" points="1083,564.913,1087,555.913,1083,559.913,1079,555.913,1083,564.913" style="stroke:#181818;stroke-width:1.0;"/><text fill="#000000" font-family="sans-serif" font-size="13" lengthAdjust="spacing" textLength="68" x="1084" y="510.0669">d&#233;pend de</text></g><!--link NavigationService to NavigationRepository--><g id="link_NavigationService_NavigationRepository"><path codeLine="109" d="M835.859,456.679 C802.956,486.729 757.4714,528.2678 721.7774,560.8668 " fill="none" id="NavigationService-to-NavigationRepository" style="stroke:#181818;stroke-width:1.0;stroke-dasharray:7.0,7.0;"/><polygon fill="#181818" points="717.347,564.913,726.69,561.7973,721.039,561.5412,721.2951,555.8901,717.347,564.913" style="stroke:#181818;stroke-width:1.0;"/><text fill="#000000" font-family="sans-serif" font-size="13" lengthAdjust="spacing" textLength="68" x="791" y="510.0669">d&#233;pend de</text></g><!--SRC=[ZLNBRjim4BpxAuISRBJ91_WGm8aBD0SNGGptpaeRQHk9LFXmOHJz87-7VwoKB9iFhPZe9dDdj3kp7BSiVsCbP3SRKK1za_sTPVR9QwPKjbCWjw0ryb8D1ztpXTKQjIbWcJrnxNvMOB1-Q1ltyx-Pn_OTBAvQCyryBddGLGEFJ1R8tarCAK6rA9b6mITOVx0zbdr1p8osxzDHCfIMTQkbdMA0MuBsClPFX3_Xr2kZgrMkSO_w44pz-efv1R8x1wxHllNVdI_6NMqOyYH7dXl0ceAwWL84JswuAqay5k5er_lrAE2z3WLofx56nJGOIJMu6jmdUHfHz1oNedcmAmJRjmPa2Jm_q6rr4e1y44OBlkiB8IqQILESZWsJ4gIhcnFhGHbf5EOavszXG7R7TckfbixhlX4SjUZ8IH9bvDxkGMtl6UFwT2Izt8BSOmugj7B3rDkZQ1h3XpqSodpwl6AyJ9lXovmG-3mDyGdnImD7kHRSgWag6eEqQ9g5skfeUxibdPpNt-8vD0phYxLViqReDJnRcf7TljOlq0hLENQOZa9N4rZ9p1vAcsCWNqx7ihPqQcxSLLe678l09Akx1rg4fQaa_R2Lo9TYU5rw7EDMOZFzwfIn7tRZ- -jQ2IDyt4wm5N6vyp38xTlR-oZibjdP39W5uTmNZX8jKKm4LgAQ2gP4UHGtYShfU76WMQZ0HPFn5NAGiHHzMrDPuu24B9z4KXA5qeqnaKwV_DAqPaxHCMesoNntTpyL3ClC_kUqm8kik7pNHv4tEC2Cf-zmv5tpSVy1]--></g></svg>