<?xml version="1.0" encoding="us-ascii" standalone="no"?><svg xmlns="http://www.w3.org/2000/svg" xmlns:xlink="http://www.w3.org/1999/xlink" contentStyleType="text/css" height="539px" preserveAspectRatio="none" style="width:820px;height:539px;background:#FFFFFF;" version="1.1" viewBox="0 0 820 539" width="820px" zoomAndPan="magnify"><defs/><g><!--class e01--><g id="elem_e01"><rect codeLine="7" fill="#F1F1F1" height="96.8906" id="e01" rx="2.5" ry="2.5" style="stroke:#181818;stroke-width:0.5;" width="240" x="415" y="7"/><ellipse cx="515.25" cy="23" fill="#ADD1B2" rx="11" ry="11" style="stroke:#181818;stroke-width:1.0;"/><path d="M514.0469,23.875 L515.5,23.875 L515.5,23.9844 C515.5,24.3906 515.5313,24.5469 515.6094,24.7031 C515.7656,24.9531 516.0469,25.1094 516.3438,25.1094 C516.5938,25.1094 516.8594,24.9688 517.0156,24.75 C517.1406,24.5938 517.1719,24.4375 517.1719,23.9844 L517.1719,22.0625 C517.1719,21.9063 517.1719,21.8594 517.1563,21.7031 C517.0938,21.2344 516.7813,20.9219 516.3281,20.9219 C516.0781,20.9219 515.8125,21.0625 515.6406,21.2813 C515.5313,21.4531 515.5,21.6094 515.5,22.0625 L515.5,22.1875 L514.0469,22.1875 L514.0469,19.7813 L518.0313,19.7813 L518.0313,20.6406 C518.0313,21.0469 518.0625,21.2188 518.1406,21.375 C518.3125,21.625 518.5938,21.7813 518.875,21.7813 C519.1406,21.7813 519.4063,21.6406 519.5781,21.4219 C519.6875,21.25 519.7188,21.1094 519.7188,20.6406 L519.7188,18.0938 L512.0938,18.0938 C511.6563,18.0938 511.5313,18.1094 511.375,18.2031 C511.125,18.3594 510.9688,18.6563 510.9688,18.9375 C510.9688,19.2188 511.1094,19.4688 511.3281,19.6406 C511.4844,19.75 511.6719,19.7813 512.0938,19.7813 L512.3438,19.7813 L512.3438,26.2969 L512.0938,26.2969 C511.6875,26.2969 511.5313,26.3125 511.375,26.4219 C511.125,26.5938 510.9688,26.8594 510.9688,27.1563 C510.9688,27.4219 511.1094,27.6719 511.3281,27.8281 C511.4688,27.9531 511.7031,28 512.0938,28 L520.0938,28 L520.0938,25.4219 C520.0938,24.9844 520.0625,24.8438 519.9844,24.6875 C519.8125,24.4375 519.5313,24.2813 519.25,24.2813 C518.9844,24.2813 518.7188,24.3906 518.5469,24.6406 C518.4375,24.7969 518.4063,24.9375 518.4063,25.4219 L518.4063,26.2969 L514.0469,26.2969 L514.0469,23.875 Z " fill="#000000"/><text fill="#000000" font-family="sans-serif" font-size="14" lengthAdjust="spacing" textLength="31" x="535.75" y="27.8467">User</text><line style="stroke:#181818;stroke-width:0.5;" x1="416" x2="654" y1="39" y2="39"/><ellipse cx="426" cy="52.6484" fill="#000000" rx="3" ry="3" style="stroke:#000000;stroke-width:1.0;"/><text fill="#000000" font-family="sans-serif" font-size="14" lengthAdjust="spacing" textLength="214" x="435" y="55.9951">user_id : number &#171;generated&#187;</text><line style="stroke:#181818;stroke-width:1.0;" x1="416" x2="654" y1="63.2969" y2="63.2969"/><ellipse cx="426" cy="76.9453" fill="#000000" rx="3" ry="3" style="stroke:#000000;stroke-width:1.0;"/><text fill="#000000" font-family="sans-serif" font-size="14" lengthAdjust="spacing" textLength="84" x="435" y="80.292">name : text</text><text fill="#000000" font-family="sans-serif" font-size="14" lengthAdjust="spacing" textLength="126" x="435" y="96.5889">description : text</text></g><!--class e02--><g id="elem_e02"><rect codeLine="14" fill="#F1F1F1" height="145.7813" id="e02" rx="2.5" ry="2.5" style="stroke:#181818;stroke-width:0.5;" width="241" x="270.5" y="164"/><ellipse cx="370.25" cy="180" fill="#ADD1B2" rx="11" ry="11" style="stroke:#181818;stroke-width:1.0;"/><path d="M369.0469,180.875 L370.5,180.875 L370.5,180.9844 C370.5,181.3906 370.5313,181.5469 370.6094,181.7031 C370.7656,181.9531 371.0469,182.1094 371.3438,182.1094 C371.5938,182.1094 371.8594,181.9688 372.0156,181.75 C372.1406,181.5938 372.1719,181.4375 372.1719,180.9844 L372.1719,179.0625 C372.1719,178.9063 372.1719,178.8594 372.1563,178.7031 C372.0938,178.2344 371.7813,177.9219 371.3281,177.9219 C371.0781,177.9219 370.8125,178.0625 370.6406,178.2813 C370.5313,178.4531 370.5,178.6094 370.5,179.0625 L370.5,179.1875 L369.0469,179.1875 L369.0469,176.7813 L373.0313,176.7813 L373.0313,177.6406 C373.0313,178.0469 373.0625,178.2188 373.1406,178.375 C373.3125,178.625 373.5938,178.7813 373.875,178.7813 C374.1406,178.7813 374.4063,178.6406 374.5781,178.4219 C374.6875,178.25 374.7188,178.1094 374.7188,177.6406 L374.7188,175.0938 L367.0938,175.0938 C366.6563,175.0938 366.5313,175.1094 366.375,175.2031 C366.125,175.3594 365.9688,175.6563 365.9688,175.9375 C365.9688,176.2188 366.1094,176.4688 366.3281,176.6406 C366.4844,176.75 366.6719,176.7813 367.0938,176.7813 L367.3438,176.7813 L367.3438,183.2969 L367.0938,183.2969 C366.6875,183.2969 366.5313,183.3125 366.375,183.4219 C366.125,183.5938 365.9688,183.8594 365.9688,184.1563 C365.9688,184.4219 366.1094,184.6719 366.3281,184.8281 C366.4688,184.9531 366.7031,185 367.0938,185 L375.0938,185 L375.0938,182.4219 C375.0938,181.9844 375.0625,181.8438 374.9844,181.6875 C374.8125,181.4375 374.5313,181.2813 374.25,181.2813 C373.9844,181.2813 373.7188,181.3906 373.5469,181.6406 C373.4375,181.7969 373.4063,181.9375 373.4063,182.4219 L373.4063,183.2969 L369.0469,183.2969 L369.0469,180.875 Z " fill="#000000"/><text fill="#000000" font-family="sans-serif" font-size="14" lengthAdjust="spacing" textLength="33" x="390.75" y="184.8467">Card</text><line style="stroke:#181818;stroke-width:0.5;" x1="271.5" x2="510.5" y1="196" y2="196"/><ellipse cx="281.5" cy="209.6484" fill="#000000" rx="3" ry="3" style="stroke:#000000;stroke-width:1.0;"/><text fill="#000000" font-family="sans-serif" font-size="14" lengthAdjust="spacing" textLength="215" x="290.5" y="212.9951">card_id : number &#171;generated&#187;</text><text fill="#000000" font-family="sans-serif" font-size="14" lengthAdjust="spacing" textLength="164" x="290.5" y="229.292">sync_enabled: boolean</text><text fill="#000000" font-family="sans-serif" font-size="14" lengthAdjust="spacing" textLength="117" x="290.5" y="245.5889">version: number</text><text fill="#000000" font-family="sans-serif" font-size="14" lengthAdjust="spacing" textLength="189" x="290.5" y="261.8857">last_sync_version: number</text><line style="stroke:#181818;stroke-width:1.0;" x1="271.5" x2="510.5" y1="269.1875" y2="269.1875"/><ellipse cx="281.5" cy="282.8359" fill="#000000" rx="3" ry="3" style="stroke:#000000;stroke-width:1.0;"/><text fill="#000000" font-family="sans-serif" font-size="14" lengthAdjust="spacing" textLength="157" x="290.5" y="286.1826">user_id : number &#171;FK&#187;</text><text fill="#000000" font-family="sans-serif" font-size="14" lengthAdjust="spacing" textLength="139" x="290.5" y="302.4795">other_details : text</text></g><!--class e05--><g id="elem_e05"><rect codeLine="24" fill="#F1F1F1" height="113.1875" id="e05" rx="2.5" ry="2.5" style="stroke:#181818;stroke-width:0.5;" width="298" x="7" y="394.5"/><ellipse cx="109.75" cy="410.5" fill="#ADD1B2" rx="11" ry="11" style="stroke:#181818;stroke-width:1.0;"/><path d="M108.5469,411.375 L110,411.375 L110,411.4844 C110,411.8906 110.0313,412.0469 110.1094,412.2031 C110.2656,412.4531 110.5469,412.6094 110.8438,412.6094 C111.0938,412.6094 111.3594,412.4688 111.5156,412.25 C111.6406,412.0938 111.6719,411.9375 111.6719,411.4844 L111.6719,409.5625 C111.6719,409.4063 111.6719,409.3594 111.6563,409.2031 C111.5938,408.7344 111.2813,408.4219 110.8281,408.4219 C110.5781,408.4219 110.3125,408.5625 110.1406,408.7813 C110.0313,408.9531 110,409.1094 110,409.5625 L110,409.6875 L108.5469,409.6875 L108.5469,407.2813 L112.5313,407.2813 L112.5313,408.1406 C112.5313,408.5469 112.5625,408.7188 112.6406,408.875 C112.8125,409.125 113.0938,409.2813 113.375,409.2813 C113.6406,409.2813 113.9063,409.1406 114.0781,408.9219 C114.1875,408.75 114.2188,408.6094 114.2188,408.1406 L114.2188,405.5938 L106.5938,405.5938 C106.1563,405.5938 106.0313,405.6094 105.875,405.7031 C105.625,405.8594 105.4688,406.1563 105.4688,406.4375 C105.4688,406.7188 105.6094,406.9688 105.8281,407.1406 C105.9844,407.25 106.1719,407.2813 106.5938,407.2813 L106.8438,407.2813 L106.8438,413.7969 L106.5938,413.7969 C106.1875,413.7969 106.0313,413.8125 105.875,413.9219 C105.625,414.0938 105.4688,414.3594 105.4688,414.6563 C105.4688,414.9219 105.6094,415.1719 105.8281,415.3281 C105.9688,415.4531 106.2031,415.5 106.5938,415.5 L114.5938,415.5 L114.5938,412.9219 C114.5938,412.4844 114.5625,412.3438 114.4844,412.1875 C114.3125,411.9375 114.0313,411.7813 113.75,411.7813 C113.4844,411.7813 113.2188,411.8906 113.0469,412.1406 C112.9375,412.2969 112.9063,412.4375 112.9063,412.9219 L112.9063,413.7969 L108.5469,413.7969 L108.5469,411.375 Z " fill="#000000"/><text fill="#000000" font-family="sans-serif" font-size="14" lengthAdjust="spacing" textLength="84" x="130.25" y="415.3467">CardHistory</text><line style="stroke:#181818;stroke-width:0.5;" x1="8" x2="304" y1="426.5" y2="426.5"/><ellipse cx="18" cy="440.1484" fill="#000000" rx="3" ry="3" style="stroke:#000000;stroke-width:1.0;"/><text fill="#000000" font-family="sans-serif" font-size="14" lengthAdjust="spacing" textLength="272" x="27" y="443.4951">card_history_id : number &#171;generated&#187;</text><text fill="#000000" font-family="sans-serif" font-size="14" lengthAdjust="spacing" textLength="121" x="27" y="459.792">version : number</text><line style="stroke:#181818;stroke-width:1.0;" x1="8" x2="304" y1="467.0938" y2="467.0938"/><ellipse cx="18" cy="480.7422" fill="#000000" rx="3" ry="3" style="stroke:#000000;stroke-width:1.0;"/><text fill="#000000" font-family="sans-serif" font-size="14" lengthAdjust="spacing" textLength="158" x="27" y="484.0889">card_id : number &#171;FK&#187;</text><text fill="#000000" font-family="sans-serif" font-size="14" lengthAdjust="spacing" textLength="139" x="27" y="500.3857">other_details : text</text></g><!--class e04--><g id="elem_e04"><rect codeLine="32" fill="#F1F1F1" height="113.1875" id="e04" rx="2.5" ry="2.5" style="stroke:#181818;stroke-width:0.5;" width="203" x="578.5" y="394.5"/><ellipse cx="622.75" cy="410.5" fill="#ADD1B2" rx="11" ry="11" style="stroke:#181818;stroke-width:1.0;"/><path d="M621.5469,411.375 L623,411.375 L623,411.4844 C623,411.8906 623.0313,412.0469 623.1094,412.2031 C623.2656,412.4531 623.5469,412.6094 623.8438,412.6094 C624.0938,412.6094 624.3594,412.4688 624.5156,412.25 C624.6406,412.0938 624.6719,411.9375 624.6719,411.4844 L624.6719,409.5625 C624.6719,409.4063 624.6719,409.3594 624.6563,409.2031 C624.5938,408.7344 624.2813,408.4219 623.8281,408.4219 C623.5781,408.4219 623.3125,408.5625 623.1406,408.7813 C623.0313,408.9531 623,409.1094 623,409.5625 L623,409.6875 L621.5469,409.6875 L621.5469,407.2813 L625.5313,407.2813 L625.5313,408.1406 C625.5313,408.5469 625.5625,408.7188 625.6406,408.875 C625.8125,409.125 626.0938,409.2813 626.375,409.2813 C626.6406,409.2813 626.9063,409.1406 627.0781,408.9219 C627.1875,408.75 627.2188,408.6094 627.2188,408.1406 L627.2188,405.5938 L619.5938,405.5938 C619.1563,405.5938 619.0313,405.6094 618.875,405.7031 C618.625,405.8594 618.4688,406.1563 618.4688,406.4375 C618.4688,406.7188 618.6094,406.9688 618.8281,407.1406 C618.9844,407.25 619.1719,407.2813 619.5938,407.2813 L619.8438,407.2813 L619.8438,413.7969 L619.5938,413.7969 C619.1875,413.7969 619.0313,413.8125 618.875,413.9219 C618.625,414.0938 618.4688,414.3594 618.4688,414.6563 C618.4688,414.9219 618.6094,415.1719 618.8281,415.3281 C618.9688,415.4531 619.2031,415.5 619.5938,415.5 L627.5938,415.5 L627.5938,412.9219 C627.5938,412.4844 627.5625,412.3438 627.4844,412.1875 C627.3125,411.9375 627.0313,411.7813 626.75,411.7813 C626.4844,411.7813 626.2188,411.8906 626.0469,412.1406 C625.9375,412.2969 625.9063,412.4375 625.9063,412.9219 L625.9063,413.7969 L621.5469,413.7969 L621.5469,411.375 Z " fill="#000000"/><text fill="#000000" font-family="sans-serif" font-size="14" lengthAdjust="spacing" textLength="106" x="643.25" y="415.3467">CardsAccounts</text><line style="stroke:#181818;stroke-width:0.5;" x1="579.5" x2="780.5" y1="426.5" y2="426.5"/><ellipse cx="589.5" cy="440.1484" fill="#000000" rx="3" ry="3" style="stroke:#000000;stroke-width:1.0;"/><text fill="#000000" font-family="sans-serif" font-size="14" lengthAdjust="spacing" textLength="177" x="598.5" y="443.4951">id : number &#171;generated&#187;</text><line style="stroke:#181818;stroke-width:1.0;" x1="579.5" x2="780.5" y1="450.7969" y2="450.7969"/><text fill="#000000" font-family="sans-serif" font-size="14" lengthAdjust="spacing" textLength="158" x="584.5" y="467.792">card_id : number &#171;FK&#187;</text><text fill="#000000" font-family="sans-serif" font-size="14" lengthAdjust="spacing" textLength="184" x="584.5" y="484.0889">account_id : number &#171;FK&#187;</text><text fill="#000000" font-family="sans-serif" font-size="14" lengthAdjust="spacing" textLength="139" x="584.5" y="500.3857">other_details : text</text></g><!--class e03--><g id="elem_e03"><rect codeLine="41" fill="#F1F1F1" height="96.8906" id="e03" rx="2.5" ry="2.5" style="stroke:#181818;stroke-width:0.5;" width="267" x="546.5" y="188.5"/><ellipse cx="646.25" cy="204.5" fill="#ADD1B2" rx="11" ry="11" style="stroke:#181818;stroke-width:1.0;"/><path d="M645.0469,205.375 L646.5,205.375 L646.5,205.4844 C646.5,205.8906 646.5313,206.0469 646.6094,206.2031 C646.7656,206.4531 647.0469,206.6094 647.3438,206.6094 C647.5938,206.6094 647.8594,206.4688 648.0156,206.25 C648.1406,206.0938 648.1719,205.9375 648.1719,205.4844 L648.1719,203.5625 C648.1719,203.4063 648.1719,203.3594 648.1563,203.2031 C648.0938,202.7344 647.7813,202.4219 647.3281,202.4219 C647.0781,202.4219 646.8125,202.5625 646.6406,202.7813 C646.5313,202.9531 646.5,203.1094 646.5,203.5625 L646.5,203.6875 L645.0469,203.6875 L645.0469,201.2813 L649.0313,201.2813 L649.0313,202.1406 C649.0313,202.5469 649.0625,202.7188 649.1406,202.875 C649.3125,203.125 649.5938,203.2813 649.875,203.2813 C650.1406,203.2813 650.4063,203.1406 650.5781,202.9219 C650.6875,202.75 650.7188,202.6094 650.7188,202.1406 L650.7188,199.5938 L643.0938,199.5938 C642.6563,199.5938 642.5313,199.6094 642.375,199.7031 C642.125,199.8594 641.9688,200.1563 641.9688,200.4375 C641.9688,200.7188 642.1094,200.9688 642.3281,201.1406 C642.4844,201.25 642.6719,201.2813 643.0938,201.2813 L643.3438,201.2813 L643.3438,207.7969 L643.0938,207.7969 C642.6875,207.7969 642.5313,207.8125 642.375,207.9219 C642.125,208.0938 641.9688,208.3594 641.9688,208.6563 C641.9688,208.9219 642.1094,209.1719 642.3281,209.3281 C642.4688,209.4531 642.7031,209.5 643.0938,209.5 L651.0938,209.5 L651.0938,206.9219 C651.0938,206.4844 651.0625,206.3438 650.9844,206.1875 C650.8125,205.9375 650.5313,205.7813 650.25,205.7813 C649.9844,205.7813 649.7188,205.8906 649.5469,206.1406 C649.4375,206.2969 649.4063,206.4375 649.4063,206.9219 L649.4063,207.7969 L645.0469,207.7969 L645.0469,205.375 Z " fill="#000000"/><text fill="#000000" font-family="sans-serif" font-size="14" lengthAdjust="spacing" textLength="59" x="666.75" y="209.3467">Account</text><line style="stroke:#181818;stroke-width:0.5;" x1="547.5" x2="812.5" y1="220.5" y2="220.5"/><ellipse cx="557.5" cy="234.1484" fill="#000000" rx="3" ry="3" style="stroke:#000000;stroke-width:1.0;"/><text fill="#000000" font-family="sans-serif" font-size="14" lengthAdjust="spacing" textLength="241" x="566.5" y="237.4951">account_id : number &#171;generated&#187;</text><line style="stroke:#181818;stroke-width:1.0;" x1="547.5" x2="812.5" y1="244.7969" y2="244.7969"/><text fill="#000000" font-family="sans-serif" font-size="14" lengthAdjust="spacing" textLength="157" x="552.5" y="261.792">user_id : number &#171;FK&#187;</text><text fill="#000000" font-family="sans-serif" font-size="14" lengthAdjust="spacing" textLength="139" x="552.5" y="278.0889">other_details : text</text></g><!--class e06--><g id="elem_e06"><rect codeLine="48" fill="#F1F1F1" height="162.0781" id="e06" rx="2.5" ry="2.5" style="stroke:#181818;stroke-width:0.5;" width="203" x="340.5" y="370"/><ellipse cx="411.25" cy="386" fill="#ADD1B2" rx="11" ry="11" style="stroke:#181818;stroke-width:1.0;"/><path d="M410.0469,386.875 L411.5,386.875 L411.5,386.9844 C411.5,387.3906 411.5313,387.5469 411.6094,387.7031 C411.7656,387.9531 412.0469,388.1094 412.3438,388.1094 C412.5938,388.1094 412.8594,387.9688 413.0156,387.75 C413.1406,387.5938 413.1719,387.4375 413.1719,386.9844 L413.1719,385.0625 C413.1719,384.9063 413.1719,384.8594 413.1563,384.7031 C413.0938,384.2344 412.7813,383.9219 412.3281,383.9219 C412.0781,383.9219 411.8125,384.0625 411.6406,384.2813 C411.5313,384.4531 411.5,384.6094 411.5,385.0625 L411.5,385.1875 L410.0469,385.1875 L410.0469,382.7813 L414.0313,382.7813 L414.0313,383.6406 C414.0313,384.0469 414.0625,384.2188 414.1406,384.375 C414.3125,384.625 414.5938,384.7813 414.875,384.7813 C415.1406,384.7813 415.4063,384.6406 415.5781,384.4219 C415.6875,384.25 415.7188,384.1094 415.7188,383.6406 L415.7188,381.0938 L408.0938,381.0938 C407.6563,381.0938 407.5313,381.1094 407.375,381.2031 C407.125,381.3594 406.9688,381.6563 406.9688,381.9375 C406.9688,382.2188 407.1094,382.4688 407.3281,382.6406 C407.4844,382.75 407.6719,382.7813 408.0938,382.7813 L408.3438,382.7813 L408.3438,389.2969 L408.0938,389.2969 C407.6875,389.2969 407.5313,389.3125 407.375,389.4219 C407.125,389.5938 406.9688,389.8594 406.9688,390.1563 C406.9688,390.4219 407.1094,390.6719 407.3281,390.8281 C407.4688,390.9531 407.7031,391 408.0938,391 L416.0938,391 L416.0938,388.4219 C416.0938,387.9844 416.0625,387.8438 415.9844,387.6875 C415.8125,387.4375 415.5313,387.2813 415.25,387.2813 C414.9844,387.2813 414.7188,387.3906 414.5469,387.6406 C414.4375,387.7969 414.4063,387.9375 414.4063,388.4219 L414.4063,389.2969 L410.0469,389.2969 L410.0469,386.875 Z " fill="#000000"/><text fill="#000000" font-family="sans-serif" font-size="14" lengthAdjust="spacing" textLength="53" x="431.75" y="390.8467">Stream</text><line style="stroke:#181818;stroke-width:0.5;" x1="341.5" x2="542.5" y1="402" y2="402"/><ellipse cx="351.5" cy="415.6484" fill="#000000" rx="3" ry="3" style="stroke:#000000;stroke-width:1.0;"/><text fill="#000000" font-family="sans-serif" font-size="14" lengthAdjust="spacing" textLength="177" x="360.5" y="418.9951">id : number &#171;generated&#187;</text><text fill="#000000" font-family="sans-serif" font-size="14" lengthAdjust="spacing" textLength="117" x="360.5" y="435.292">version: number</text><text fill="#000000" font-family="sans-serif" font-size="14" lengthAdjust="spacing" textLength="153" x="360.5" y="451.5889">searchingText: string</text><line style="stroke:#181818;stroke-width:1.0;" x1="341.5" x2="542.5" y1="458.8906" y2="458.8906"/><text fill="#000000" font-family="sans-serif" font-size="14" lengthAdjust="spacing" textLength="171" x="346.5" y="475.8857">owner_id : number &#171;FK&#187;</text><text fill="#000000" font-family="sans-serif" font-size="14" lengthAdjust="spacing" textLength="185" x="346.5" y="492.1826">follower_id : number &#171;FK&#187;</text><text fill="#000000" font-family="sans-serif" font-size="14" lengthAdjust="spacing" textLength="154" x="346.5" y="508.4795">card_id: number &#171;FK&#187;</text><text fill="#000000" font-family="sans-serif" font-size="14" lengthAdjust="spacing" textLength="139" x="346.5" y="524.7764">other_details : text</text></g><!--link e01 to e02--><g id="link_e01_e02"><path codeLine="60" d="M463.25,112.139 C463.25,130.515 463.25,135.85 463.25,155.976 " fill="none" id="e01-e02" style="stroke:#181818;stroke-width:1.0;stroke-dasharray:7.0,7.0;"/><line style="stroke:#181818;stroke-width:1.0;" x1="463.25" x2="457.25" y1="112.139" y2="104.139"/><line style="stroke:#181818;stroke-width:1.0;" x1="463.25" x2="469.25" y1="112.139" y2="104.139"/><line style="stroke:#181818;stroke-width:1.0;" x1="463.25" x2="463.25" y1="112.139" y2="104.139"/><line style="stroke:#181818;stroke-width:1.0;" x1="459.25" x2="467.25" y1="114.139" y2="114.139"/><line style="stroke:#181818;stroke-width:1.0;" x1="467.25" x2="459.25" y1="159.976" y2="159.976"/><line style="stroke:#181818;stroke-width:1.0;" x1="467.25" x2="459.25" y1="156.976" y2="156.976"/><line style="stroke:#181818;stroke-width:1.0;" x1="463.25" x2="463.25" y1="155.976" y2="163.976"/></g><!--link e01 to e03--><g id="link_e01_e03"><path codeLine="61" d="M600.75,112.139 C600.75,138.18 600.75,154.165 600.75,180.227 " fill="none" id="e01-e03" style="stroke:#181818;stroke-width:1.0;stroke-dasharray:7.0,7.0;"/><line style="stroke:#181818;stroke-width:1.0;" x1="600.75" x2="594.75" y1="112.139" y2="104.139"/><line style="stroke:#181818;stroke-width:1.0;" x1="600.75" x2="606.75" y1="112.139" y2="104.139"/><line style="stroke:#181818;stroke-width:1.0;" x1="600.75" x2="600.75" y1="112.139" y2="104.139"/><line style="stroke:#181818;stroke-width:1.0;" x1="596.75" x2="604.75" y1="114.139" y2="114.139"/><line style="stroke:#181818;stroke-width:1.0;" x1="604.75" x2="596.75" y1="184.227" y2="184.227"/><line style="stroke:#181818;stroke-width:1.0;" x1="604.75" x2="596.75" y1="181.227" y2="181.227"/><line style="stroke:#181818;stroke-width:1.0;" x1="600.75" x2="600.75" y1="180.227" y2="188.227"/></g><!--link e02 to e05--><g id="link_e02_e05"><path codeLine="63" d="M287.75,318.048 C287.75,345.655 287.75,360.626 287.75,386.49 " fill="none" id="e02-e05" style="stroke:#181818;stroke-width:1.0;stroke-dasharray:7.0,7.0;"/><line style="stroke:#181818;stroke-width:1.0;" x1="287.75" x2="281.75" y1="318.048" y2="310.048"/><line style="stroke:#181818;stroke-width:1.0;" x1="287.75" x2="293.75" y1="318.048" y2="310.048"/><line style="stroke:#181818;stroke-width:1.0;" x1="287.75" x2="287.75" y1="318.048" y2="310.048"/><line style="stroke:#181818;stroke-width:1.0;" x1="283.75" x2="291.75" y1="320.048" y2="320.048"/><line style="stroke:#181818;stroke-width:1.0;" x1="291.75" x2="283.75" y1="390.49" y2="390.49"/><line style="stroke:#181818;stroke-width:1.0;" x1="291.75" x2="283.75" y1="387.49" y2="387.49"/><line style="stroke:#181818;stroke-width:1.0;" x1="287.75" x2="287.75" y1="386.49" y2="394.49"/></g><!--link e02 to e04--><g id="link_e02_e04"><path codeLine="65" d="M519.858,298 C585.811,298 646.167,298 646.167,298 C646.167,298 646.167,342.879 646.167,386.463 " fill="none" id="e02-e04" style="stroke:#181818;stroke-width:1.0;stroke-dasharray:7.0,7.0;"/><line style="stroke:#181818;stroke-width:1.0;" x1="519.858" x2="511.858" y1="298" y2="304"/><line style="stroke:#181818;stroke-width:1.0;" x1="519.858" x2="511.858" y1="298" y2="292"/><line style="stroke:#181818;stroke-width:1.0;" x1="519.858" x2="511.858" y1="298" y2="298"/><line style="stroke:#181818;stroke-width:1.0;" x1="521.858" x2="521.858" y1="302" y2="294"/><line style="stroke:#181818;stroke-width:1.0;" x1="650.167" x2="642.167" y1="390.463" y2="390.463"/><line style="stroke:#181818;stroke-width:1.0;" x1="650.167" x2="642.167" y1="387.463" y2="387.463"/><line style="stroke:#181818;stroke-width:1.0;" x1="646.167" x2="646.167" y1="386.463" y2="394.463"/></g><!--link e03 to e04--><g id="link_e03_e04"><path codeLine="66" d="M713.833,293.56 C713.833,325.869 713.833,352.434 713.833,386.297 " fill="none" id="e03-e04" style="stroke:#181818;stroke-width:1.0;stroke-dasharray:7.0,7.0;"/><line style="stroke:#181818;stroke-width:1.0;" x1="713.833" x2="707.833" y1="293.56" y2="285.56"/><line style="stroke:#181818;stroke-width:1.0;" x1="713.833" x2="719.833" y1="293.56" y2="285.56"/><line style="stroke:#181818;stroke-width:1.0;" x1="713.833" x2="713.833" y1="293.56" y2="285.56"/><line style="stroke:#181818;stroke-width:1.0;" x1="709.833" x2="717.833" y1="295.56" y2="295.56"/><line style="stroke:#181818;stroke-width:1.0;" x1="717.833" x2="709.833" y1="390.297" y2="390.297"/><line style="stroke:#181818;stroke-width:1.0;" x1="717.833" x2="709.833" y1="387.297" y2="387.297"/><line style="stroke:#181818;stroke-width:1.0;" x1="713.833" x2="713.833" y1="386.297" y2="394.297"/></g><!--link e02 to e06--><g id="link_e02_e06"><path codeLine="68" d="M426,318.048 C426,337.3 426,342.188 426,361.84 " fill="none" id="e02-e06" style="stroke:#181818;stroke-width:1.0;stroke-dasharray:7.0,7.0;"/><line style="stroke:#181818;stroke-width:1.0;" x1="426" x2="420" y1="318.048" y2="310.048"/><line style="stroke:#181818;stroke-width:1.0;" x1="426" x2="432" y1="318.048" y2="310.048"/><line style="stroke:#181818;stroke-width:1.0;" x1="426" x2="426" y1="318.048" y2="310.048"/><line style="stroke:#181818;stroke-width:1.0;" x1="422" x2="430" y1="320.048" y2="320.048"/><line style="stroke:#181818;stroke-width:1.0;" x1="430" x2="422" y1="365.84" y2="365.84"/><line style="stroke:#181818;stroke-width:1.0;" x1="430" x2="422" y1="362.84" y2="362.84"/><line style="stroke:#181818;stroke-width:1.0;" x1="426" x2="426" y1="361.84" y2="369.84"/></g><!--link e03 to e06--><g id="link_e03_e06"><path codeLine="69" d="M562.5,293.616 C562.5,336.087 562.5,383 562.5,383 C562.5,383 562.969,383 551.672,383 " fill="none" id="e03-e06" style="stroke:#181818;stroke-width:1.0;stroke-dasharray:7.0,7.0;"/><line style="stroke:#181818;stroke-width:1.0;" x1="562.5" x2="556.5" y1="293.616" y2="285.616"/><line style="stroke:#181818;stroke-width:1.0;" x1="562.5" x2="568.5" y1="293.616" y2="285.616"/><line style="stroke:#181818;stroke-width:1.0;" x1="562.5" x2="562.5" y1="293.616" y2="285.616"/><line style="stroke:#181818;stroke-width:1.0;" x1="558.5" x2="566.5" y1="295.616" y2="295.616"/><line style="stroke:#181818;stroke-width:1.0;" x1="547.672" x2="547.672" y1="387" y2="379"/><line style="stroke:#181818;stroke-width:1.0;" x1="550.672" x2="550.672" y1="387" y2="379"/><line style="stroke:#181818;stroke-width:1.0;" x1="551.672" x2="543.672" y1="383" y2="383"/></g><!--SRC=[dPDDRy8m38Rl_HKM5wH9e8sl0q98qwHfqexRpbL838sM9bLiwAh1Vr-WPS1eGUpMrtRzFdQIDYHQ8N22G9dZg5rggRqq60KfLauhoBoR6Km9Siq92Bimg41wbnFC4JcYJsqpuKKAHbla8aDmdXCNHMXPSm6j3qBV0a60zm_m7G7SBKCa3ht7O9Vf33rC9Wkqw0MZcav3HQUpBRCYnL33-CL1AYJfTSRQsNrmSp1v4bvL9htIH8R8HHCgh8pHYZ2U6iFCEOF2XlWAFGMJ_NyXOWHnl2i_pvMeDHCzl-vSN5YmZnMoq8OQm5yqiVD5nJyyua_ApCKvAYOuWwhPm0rGz2YbMrgc2cjGObqzjcPNKJQy3UcNgSAfQFebJNtB6gh_7z0RUnHfPJkwleJpAq8el4oqNRo7rcCWzk5x3-PosqGsTyQul2bRxVcMJORtjrbtk-lrzfMSolustJleuHyzYBOxFvAdwT5fUlG3]--></g></svg>