<svg xmlns="http://www.w3.org/2000/svg" xmlns:xlink="http://www.w3.org/1999/xlink" contentStyleType="text/css" height="572px" preserveAspectRatio="none" style="width:1536px;height:572px;background:#FFFFFF;" version="1.1" viewBox="0 0 1536 572" width="1536px" zoomAndPan="magnify"><defs/><g><!--cluster Components--><g id="cluster_Components"><path d="M8.5,6 L108.0742,6 A3.75,3.75 0 0 1 110.5742,8.5 L117.5742,28.2969 L846.5,28.2969 A2.5,2.5 0 0 1 849,30.7969 L849,562.95 A2.5,2.5 0 0 1 846.5,565.45 L8.5,565.45 A2.5,2.5 0 0 1 6,562.95 L6,8.5 A2.5,2.5 0 0 1 8.5,6 " fill="none" style="stroke:#000000;stroke-width:1.5;"/><line style="stroke:#000000;stroke-width:1.5;" x1="6" x2="117.5742" y1="28.2969" y2="28.2969"/><text fill="#000000" font-family="sans-serif" font-size="14" font-weight="bold" lengthAdjust="spacing" textLength="98.5742" x="10" y="20.9951">Components</text></g><!--cluster State Machine--><g id="cluster_State Machine"><path d="M875.5,6 L989.6895,6 A3.75,3.75 0 0 1 992.1895,8.5 L999.1895,28.2969 L1206.5,28.2969 A2.5,2.5 0 0 1 1209,30.7969 L1209,249.17 A2.5,2.5 0 0 1 1206.5,251.67 L875.5,251.67 A2.5,2.5 0 0 1 873,249.17 L873,8.5 A2.5,2.5 0 0 1 875.5,6 " fill="none" style="stroke:#000000;stroke-width:1.5;"/><line style="stroke:#000000;stroke-width:1.5;" x1="873" x2="999.1895" y1="28.2969" y2="28.2969"/><text fill="#000000" font-family="sans-serif" font-size="14" font-weight="bold" lengthAdjust="spacing" textLength="113.1895" x="877" y="20.9951">State Machine</text></g><!--cluster FileReader--><g id="cluster_FileReader"><path d="M1235.5,71.18 L1321.2998,71.18 A3.75,3.75 0 0 1 1323.7998,73.68 L1330.7998,93.4769 L1398.5,93.4769 A2.5,2.5 0 0 1 1401,95.9769 L1401,183.98 A2.5,2.5 0 0 1 1398.5,186.48 L1235.5,186.48 A2.5,2.5 0 0 1 1233,183.98 L1233,73.68 A2.5,2.5 0 0 1 1235.5,71.18 " fill="none" style="stroke:#000000;stroke-width:1.5;"/><line style="stroke:#000000;stroke-width:1.5;" x1="1233" x2="1330.7998" y1="93.4769" y2="93.4769"/><text fill="#000000" font-family="sans-serif" font-size="14" font-weight="bold" lengthAdjust="spacing" textLength="84.7998" x="1237" y="86.1751">FileReader</text></g><!--cluster Main--><g id="cluster_Main"><path d="M1427.5,71.18 L1466.6445,71.18 A3.75,3.75 0 0 1 1469.1445,73.68 L1476.1445,93.4769 L1526.5,93.4769 A2.5,2.5 0 0 1 1529,95.9769 L1529,183.98 A2.5,2.5 0 0 1 1526.5,186.48 L1427.5,186.48 A2.5,2.5 0 0 1 1425,183.98 L1425,73.68 A2.5,2.5 0 0 1 1427.5,71.18 " fill="none" style="stroke:#000000;stroke-width:1.5;"/><line style="stroke:#000000;stroke-width:1.5;" x1="1425" x2="1476.1445" y1="93.4769" y2="93.4769"/><text fill="#000000" font-family="sans-serif" font-size="14" font-weight="bold" lengthAdjust="spacing" textLength="38.1445" x="1429" y="86.1751">Main</text></g><!--class IComponent--><g id="elem_IComponent"><rect codeLine="2" fill="#F1F1F1" height="96.8906" id="IComponent" rx="2.5" ry="2.5" style="stroke:#181818;stroke-width:0.5;" width="135.9492" x="204.03" y="452.56"/><ellipse cx="227.3735" cy="468.56" fill="#B4A7E5" rx="11" ry="11" style="stroke:#181818;stroke-width:1.0;"/><path d="M223.2953,464.3256 L223.2953,462.1694 L230.686,462.1694 L230.686,464.3256 L228.2172,464.3256 L228.2172,472.4038 L230.686,472.4038 L230.686,474.56 L223.2953,474.56 L223.2953,472.4038 L225.7641,472.4038 L225.7641,464.3256 L223.2953,464.3256 Z " fill="#000000"/><text fill="#000000" font-family="sans-serif" font-size="14" font-style="italic" lengthAdjust="spacing" textLength="85.4082" x="243.2276" y="473.4067">IComponent</text><line style="stroke:#181818;stroke-width:0.5;" x1="205.03" x2="338.9792" y1="484.56" y2="484.56"/><ellipse cx="215.03" cy="498.2084" fill="none" rx="3" ry="3" style="stroke:#038048;stroke-width:1.0;"/><text fill="#000000" font-family="sans-serif" font-size="14" lengthAdjust="spacing" textLength="109.9492" x="224.03" y="501.5551">m_state : Enum</text><line style="stroke:#181818;stroke-width:0.5;" x1="205.03" x2="338.9792" y1="508.8569" y2="508.8569"/><ellipse cx="215.03" cy="522.5053" fill="#84BE84" rx="3" ry="3" style="stroke:#038048;stroke-width:1.0;"/><text fill="#000000" font-family="sans-serif" font-size="14" lengthAdjust="spacing" textLength="34.4258" x="224.03" y="525.852">run()</text><ellipse cx="215.03" cy="538.8022" fill="#84BE84" rx="3" ry="3" style="stroke:#038048;stroke-width:1.0;"/><text fill="#000000" font-family="sans-serif" font-size="14" lengthAdjust="spacing" textLength="41.1592" x="224.03" y="542.1489">stop()</text></g><!--class Vibrator--><g id="elem_Vibrator"><rect codeLine="9" fill="#F1F1F1" height="96.8906" id="Vibrator" rx="2.5" ry="2.5" style="stroke:#181818;stroke-width:0.5;" width="135.9492" x="22.03" y="295.67"/><ellipse cx="58.3826" cy="311.67" fill="#ADD1B2" rx="11" ry="11" style="stroke:#181818;stroke-width:1.0;"/><path d="M61.3513,317.3106 Q60.7732,317.6075 60.1326,317.7481 Q59.492,317.9044 58.7888,317.9044 Q56.2888,317.9044 54.9607,316.2638 Q53.6482,314.6075 53.6482,311.4825 Q53.6482,308.3575 54.9607,306.7013 Q56.2888,305.045 58.7888,305.045 Q59.492,305.045 60.1326,305.2013 Q60.7888,305.3575 61.3513,305.6544 L61.3513,308.3731 Q60.7263,307.795 60.1326,307.5294 Q59.5388,307.2481 58.9138,307.2481 Q57.5701,307.2481 56.8826,308.3263 Q56.1951,309.3888 56.1951,311.4825 Q56.1951,313.5763 56.8826,314.6544 Q57.5701,315.7169 58.9138,315.7169 Q59.5388,315.7169 60.1326,315.4513 Q60.7263,315.17 61.3513,314.5919 L61.3513,317.3106 Z " fill="#000000"/><text fill="#000000" font-family="sans-serif" font-size="14" lengthAdjust="spacing" textLength="56.499" x="77.1276" y="316.5167">Vibrator</text><line style="stroke:#181818;stroke-width:0.5;" x1="23.03" x2="156.9792" y1="327.67" y2="327.67"/><ellipse cx="33.03" cy="341.3184" fill="none" rx="3" ry="3" style="stroke:#038048;stroke-width:1.0;"/><text fill="#000000" font-family="sans-serif" font-size="14" lengthAdjust="spacing" textLength="109.9492" x="42.03" y="344.6651">m_state : Enum</text><line style="stroke:#181818;stroke-width:0.5;" x1="23.03" x2="156.9792" y1="351.9669" y2="351.9669"/><ellipse cx="33.03" cy="365.6153" fill="#84BE84" rx="3" ry="3" style="stroke:#038048;stroke-width:1.0;"/><text fill="#000000" font-family="sans-serif" font-size="14" lengthAdjust="spacing" textLength="34.4258" x="42.03" y="368.962">run()</text><ellipse cx="33.03" cy="381.9122" fill="#84BE84" rx="3" ry="3" style="stroke:#038048;stroke-width:1.0;"/><text fill="#000000" font-family="sans-serif" font-size="14" lengthAdjust="spacing" textLength="41.1592" x="42.03" y="385.2589">stop()</text></g><!--class EmergencyButton--><g id="elem_EmergencyButton"><rect codeLine="16" fill="#F1F1F1" height="96.8906" id="EmergencyButton" rx="2.5" ry="2.5" style="stroke:#181818;stroke-width:0.5;" width="158.1025" x="192.95" y="295.67"/><ellipse cx="207.95" cy="311.67" fill="#ADD1B2" rx="11" ry="11" style="stroke:#181818;stroke-width:1.0;"/><path d="M210.9188,317.3106 Q210.3406,317.6075 209.7,317.7481 Q209.0594,317.9044 208.3563,317.9044 Q205.8563,317.9044 204.5281,316.2638 Q203.2156,314.6075 203.2156,311.4825 Q203.2156,308.3575 204.5281,306.7013 Q205.8563,305.045 208.3563,305.045 Q209.0594,305.045 209.7,305.2013 Q210.3563,305.3575 210.9188,305.6544 L210.9188,308.3731 Q210.2938,307.795 209.7,307.5294 Q209.1063,307.2481 208.4813,307.2481 Q207.1375,307.2481 206.45,308.3263 Q205.7625,309.3888 205.7625,311.4825 Q205.7625,313.5763 206.45,314.6544 Q207.1375,315.7169 208.4813,315.7169 Q209.1063,315.7169 209.7,315.4513 Q210.2938,315.17 210.9188,314.5919 L210.9188,317.3106 Z " fill="#000000"/><text fill="#000000" font-family="sans-serif" font-size="14" lengthAdjust="spacing" textLength="126.1025" x="221.95" y="316.5167">EmergencyButton</text><line style="stroke:#181818;stroke-width:0.5;" x1="193.95" x2="350.0525" y1="327.67" y2="327.67"/><ellipse cx="203.95" cy="341.3184" fill="none" rx="3" ry="3" style="stroke:#038048;stroke-width:1.0;"/><text fill="#000000" font-family="sans-serif" font-size="14" lengthAdjust="spacing" textLength="109.9492" x="212.95" y="344.6651">m_state : Enum</text><line style="stroke:#181818;stroke-width:0.5;" x1="193.95" x2="350.0525" y1="351.9669" y2="351.9669"/><ellipse cx="203.95" cy="365.6153" fill="#84BE84" rx="3" ry="3" style="stroke:#038048;stroke-width:1.0;"/><text fill="#000000" font-family="sans-serif" font-size="14" lengthAdjust="spacing" textLength="34.4258" x="212.95" y="368.962">run()</text><ellipse cx="203.95" cy="381.9122" fill="#84BE84" rx="3" ry="3" style="stroke:#038048;stroke-width:1.0;"/><text fill="#000000" font-family="sans-serif" font-size="14" lengthAdjust="spacing" textLength="41.1592" x="212.95" y="385.2589">stop()</text></g><!--class BCHeadPhone--><g id="elem_BCHeadPhone"><rect codeLine="23" fill="#F1F1F1" height="96.8906" id="BCHeadPhone" rx="2.5" ry="2.5" style="stroke:#181818;stroke-width:0.5;" width="135.9492" x="386.03" y="295.67"/><ellipse cx="403.0981" cy="311.67" fill="#ADD1B2" rx="11" ry="11" style="stroke:#181818;stroke-width:1.0;"/><path d="M406.0668,317.3106 Q405.4887,317.6075 404.8481,317.7481 Q404.2074,317.9044 403.5043,317.9044 Q401.0043,317.9044 399.6762,316.2638 Q398.3637,314.6075 398.3637,311.4825 Q398.3637,308.3575 399.6762,306.7013 Q401.0043,305.045 403.5043,305.045 Q404.2074,305.045 404.8481,305.2013 Q405.5043,305.3575 406.0668,305.6544 L406.0668,308.3731 Q405.4418,307.795 404.8481,307.5294 Q404.2543,307.2481 403.6293,307.2481 Q402.2856,307.2481 401.5981,308.3263 Q400.9106,309.3888 400.9106,311.4825 Q400.9106,313.5763 401.5981,314.6544 Q402.2856,315.7169 403.6293,315.7169 Q404.2543,315.7169 404.8481,315.4513 Q405.4418,315.17 406.0668,314.5919 L406.0668,317.3106 Z " fill="#000000"/><text fill="#000000" font-family="sans-serif" font-size="14" lengthAdjust="spacing" textLength="99.3535" x="417.5576" y="316.5167">BCHeadPhone</text><line style="stroke:#181818;stroke-width:0.5;" x1="387.03" x2="520.9792" y1="327.67" y2="327.67"/><ellipse cx="397.03" cy="341.3184" fill="none" rx="3" ry="3" style="stroke:#038048;stroke-width:1.0;"/><text fill="#000000" font-family="sans-serif" font-size="14" lengthAdjust="spacing" textLength="109.9492" x="406.03" y="344.6651">m_state : Enum</text><line style="stroke:#181818;stroke-width:0.5;" x1="387.03" x2="520.9792" y1="351.9669" y2="351.9669"/><ellipse cx="397.03" cy="365.6153" fill="#84BE84" rx="3" ry="3" style="stroke:#038048;stroke-width:1.0;"/><text fill="#000000" font-family="sans-serif" font-size="14" lengthAdjust="spacing" textLength="34.4258" x="406.03" y="368.962">run()</text><ellipse cx="397.03" cy="381.9122" fill="#84BE84" rx="3" ry="3" style="stroke:#038048;stroke-width:1.0;"/><text fill="#000000" font-family="sans-serif" font-size="14" lengthAdjust="spacing" textLength="41.1592" x="406.03" y="385.2589">stop()</text></g><!--class Servomotor--><g id="elem_Servomotor"><rect codeLine="30" fill="#F1F1F1" height="96.8906" id="Servomotor" rx="2.5" ry="2.5" style="stroke:#181818;stroke-width:0.5;" width="275.4023" x="557.3" y="295.67"/><ellipse cx="649.6911" cy="311.67" fill="#ADD1B2" rx="11" ry="11" style="stroke:#181818;stroke-width:1.0;"/><path d="M652.6599,317.3106 Q652.0817,317.6075 651.4411,317.7481 Q650.8005,317.9044 650.0974,317.9044 Q647.5974,317.9044 646.2692,316.2638 Q644.9567,314.6075 644.9567,311.4825 Q644.9567,308.3575 646.2692,306.7013 Q647.5974,305.045 650.0974,305.045 Q650.8005,305.045 651.4411,305.2013 Q652.0974,305.3575 652.6599,305.6544 L652.6599,308.3731 Q652.0349,307.795 651.4411,307.5294 Q650.8474,307.2481 650.2224,307.2481 Q648.8786,307.2481 648.1911,308.3263 Q647.5036,309.3888 647.5036,311.4825 Q647.5036,313.5763 648.1911,314.6544 Q648.8786,315.7169 650.2224,315.7169 Q650.8474,315.7169 651.4411,315.4513 Q652.0349,315.17 652.6599,314.5919 L652.6599,317.3106 Z " fill="#000000"/><text fill="#000000" font-family="sans-serif" font-size="14" lengthAdjust="spacing" textLength="82.1201" x="670.1911" y="316.5167">Servomotor</text><line style="stroke:#181818;stroke-width:0.5;" x1="558.3" x2="831.7023" y1="327.67" y2="327.67"/><ellipse cx="568.3" cy="341.3184" fill="none" rx="3" ry="3" style="stroke:#038048;stroke-width:1.0;"/><text fill="#000000" font-family="sans-serif" font-size="14" lengthAdjust="spacing" textLength="144.7168" x="577.3" y="344.6651">m_position : Position</text><ellipse cx="568.3" cy="357.6153" fill="none" rx="3" ry="3" style="stroke:#038048;stroke-width:1.0;"/><text fill="#000000" font-family="sans-serif" font-size="14" lengthAdjust="spacing" textLength="109.9492" x="577.3" y="360.962">m_state : Enum</text><line style="stroke:#181818;stroke-width:0.5;" x1="558.3" x2="831.7023" y1="368.2638" y2="368.2638"/><ellipse cx="568.3" cy="381.9122" fill="#84BE84" rx="3" ry="3" style="stroke:#038048;stroke-width:1.0;"/><text fill="#000000" font-family="sans-serif" font-size="14" lengthAdjust="spacing" textLength="249.4023" x="577.3" y="385.2589">changePosition(inPosition: Position)</text></g><!--class ESP_32--><g id="elem_ESP_32"><rect codeLine="37" fill="#F1F1F1" height="194.6719" id="ESP_32" rx="2.5" ry="2.5" style="stroke:#181818;stroke-width:0.5;" width="321.3467" x="170.33" y="41"/><ellipse cx="301.2587" cy="57" fill="#ADD1B2" rx="11" ry="11" style="stroke:#181818;stroke-width:1.0;"/><path d="M304.2275,62.6406 Q303.6493,62.9375 303.0087,63.0781 Q302.3681,63.2344 301.665,63.2344 Q299.165,63.2344 297.8368,61.5938 Q296.5243,59.9375 296.5243,56.8125 Q296.5243,53.6875 297.8368,52.0313 Q299.165,50.375 301.665,50.375 Q302.3681,50.375 303.0087,50.5313 Q303.665,50.6875 304.2275,50.9844 L304.2275,53.7031 Q303.6025,53.125 303.0087,52.8594 Q302.415,52.5781 301.79,52.5781 Q300.4462,52.5781 299.7587,53.6563 Q299.0712,54.7188 299.0712,56.8125 Q299.0712,58.9063 299.7587,59.9844 Q300.4462,61.0469 301.79,61.0469 Q302.415,61.0469 303.0087,60.7813 Q303.6025,60.5 304.2275,59.9219 L304.2275,62.6406 Z " fill="#000000"/><text fill="#000000" font-family="sans-serif" font-size="14" lengthAdjust="spacing" textLength="50.9893" x="321.7587" y="61.8467">ESP_32</text><line style="stroke:#181818;stroke-width:0.5;" x1="171.33" x2="490.6767" y1="73" y2="73"/><ellipse cx="181.33" cy="86.6484" fill="none" rx="3" ry="3" style="stroke:#038048;stroke-width:1.0;"/><text fill="#000000" font-family="sans-serif" font-size="14" lengthAdjust="spacing" textLength="268.6797" x="190.33" y="89.9951">m_pLeftBCHeadPhone : BCHeadPhone</text><ellipse cx="181.33" cy="102.9453" fill="none" rx="3" ry="3" style="stroke:#038048;stroke-width:1.0;"/><text fill="#000000" font-family="sans-serif" font-size="14" lengthAdjust="spacing" textLength="278.7148" x="190.33" y="106.292">m_pRightBCHeadPhone : BCHeadPhone</text><text fill="#000000" font-family="sans-serif" font-size="14" lengthAdjust="spacing" textLength="4.4502" x="190.33" y="122.5889">&#160;</text><ellipse cx="181.33" cy="135.5391" fill="none" rx="3" ry="3" style="stroke:#038048;stroke-width:1.0;"/><text fill="#000000" font-family="sans-serif" font-size="14" lengthAdjust="spacing" textLength="182.9707" x="190.33" y="138.8857">m_pLeftVibrator : Vibrator</text><ellipse cx="181.33" cy="151.8359" fill="none" rx="3" ry="3" style="stroke:#038048;stroke-width:1.0;"/><text fill="#000000" font-family="sans-serif" font-size="14" lengthAdjust="spacing" textLength="193.0059" x="190.33" y="155.1826">m_pRightVibrator : Vibrator</text><text fill="#000000" font-family="sans-serif" font-size="14" lengthAdjust="spacing" textLength="4.4502" x="190.33" y="171.4795">&#160;</text><ellipse cx="181.33" cy="184.4297" fill="none" rx="3" ry="3" style="stroke:#038048;stroke-width:1.0;"/><text fill="#000000" font-family="sans-serif" font-size="14" lengthAdjust="spacing" textLength="207.3818" x="190.33" y="187.7764">m_pServomotor : Servomotor</text><ellipse cx="181.33" cy="200.7266" fill="none" rx="3" ry="3" style="stroke:#038048;stroke-width:1.0;"/><text fill="#000000" font-family="sans-serif" font-size="14" lengthAdjust="spacing" textLength="295.3467" x="190.33" y="204.0732">m_pEmergencyButton : EmergencyButton</text><ellipse cx="181.33" cy="217.0234" fill="none" rx="3" ry="3" style="stroke:#038048;stroke-width:1.0;"/><text fill="#000000" font-family="sans-serif" font-size="14" lengthAdjust="spacing" textLength="109.9492" x="190.33" y="220.3701">m_state : Enum</text><line style="stroke:#181818;stroke-width:0.5;" x1="171.33" x2="490.6767" y1="227.6719" y2="227.6719"/></g><!--class Position--><g id="elem_Position"><rect codeLine="50" fill="#F1F1F1" height="129.4844" id="Position" rx="2.5" ry="2.5" style="stroke:#181818;stroke-width:0.5;" width="127.4248" x="645.29" y="73.59"/><ellipse cx="678.4772" cy="89.59" fill="#EB937F" rx="11" ry="11" style="stroke:#181818;stroke-width:1.0;"/><path d="M682.5866,95.59 L674.8678,95.59 L674.8678,83.1994 L682.5866,83.1994 L682.5866,85.3556 L677.321,85.3556 L677.321,88.0275 L682.0866,88.0275 L682.0866,90.1838 L677.321,90.1838 L677.321,93.4338 L682.5866,93.4338 L682.5866,95.59 Z " fill="#000000"/><text fill="#000000" font-family="sans-serif" font-size="14" lengthAdjust="spacing" textLength="55.0088" x="696.5188" y="94.4367">Position</text><line style="stroke:#181818;stroke-width:0.5;" x1="646.29" x2="771.7148" y1="105.59" y2="105.59"/><text fill="#000000" font-family="sans-serif" font-size="14" lengthAdjust="spacing" textLength="115.4248" x="651.29" y="122.5851">Altitude_1000m,</text><text fill="#000000" font-family="sans-serif" font-size="14" lengthAdjust="spacing" textLength="115.4248" x="651.29" y="138.882">Altitude_2000m,</text><text fill="#000000" font-family="sans-serif" font-size="14" lengthAdjust="spacing" textLength="115.4248" x="651.29" y="155.1789">Altitude_3000m,</text><text fill="#000000" font-family="sans-serif" font-size="14" lengthAdjust="spacing" textLength="115.4248" x="651.29" y="171.4757">Altitude_4000m,</text><text fill="#000000" font-family="sans-serif" font-size="14" lengthAdjust="spacing" textLength="110.9746" x="651.29" y="187.7726">Altitude_5000m</text><line style="stroke:#181818;stroke-width:0.5;" x1="646.29" x2="771.7148" y1="195.0744" y2="195.0744"/></g><!--class StateMachine--><g id="elem_StateMachine"><rect codeLine="62" fill="#F1F1F1" height="194.6719" id="StateMachine" rx="2.5" ry="2.5" style="stroke:#181818;stroke-width:0.5;" width="304.7148" x="888.64" y="41"/><ellipse cx="988.9164" cy="57" fill="#ADD1B2" rx="11" ry="11" style="stroke:#181818;stroke-width:1.0;"/><path d="M991.8851,62.6406 Q991.307,62.9375 990.6664,63.0781 Q990.0257,63.2344 989.3226,63.2344 Q986.8226,63.2344 985.4945,61.5938 Q984.182,59.9375 984.182,56.8125 Q984.182,53.6875 985.4945,52.0313 Q986.8226,50.375 989.3226,50.375 Q990.0257,50.375 990.6664,50.5313 Q991.3226,50.6875 991.8851,50.9844 L991.8851,53.7031 Q991.2601,53.125 990.6664,52.8594 Q990.0726,52.5781 989.4476,52.5781 Q988.1039,52.5781 987.4164,53.6563 Q986.7289,54.7188 986.7289,56.8125 Q986.7289,58.9063 987.4164,59.9844 Q988.1039,61.0469 989.4476,61.0469 Q990.0726,61.0469 990.6664,60.7813 Q991.2601,60.5 991.8851,59.9219 L991.8851,62.6406 Z " fill="#000000"/><text fill="#000000" font-family="sans-serif" font-size="14" lengthAdjust="spacing" textLength="95.6621" x="1009.4164" y="61.8467">StateMachine</text><line style="stroke:#181818;stroke-width:0.5;" x1="889.64" x2="1192.3548" y1="73" y2="73"/><ellipse cx="899.64" cy="86.6484" fill="none" rx="3" ry="3" style="stroke:#038048;stroke-width:1.0;"/><text fill="#000000" font-family="sans-serif" font-size="14" lengthAdjust="spacing" textLength="119.1572" x="908.64" y="89.9951">m_pEsp : ESP_32</text><text fill="#000000" font-family="sans-serif" font-size="14" lengthAdjust="spacing" textLength="4.4502" x="908.64" y="106.292">&#160;</text><ellipse cx="899.64" cy="119.2422" fill="none" rx="3" ry="3" style="stroke:#038048;stroke-width:1.0;"/><text fill="#000000" font-family="sans-serif" font-size="14" lengthAdjust="spacing" textLength="268.6797" x="908.64" y="122.5889">m_pLeftBCHeadPhone : BCHeadPhone</text><ellipse cx="899.64" cy="135.5391" fill="none" rx="3" ry="3" style="stroke:#038048;stroke-width:1.0;"/><text fill="#000000" font-family="sans-serif" font-size="14" lengthAdjust="spacing" textLength="278.7148" x="908.64" y="138.8857">m_pRightBCHeadPhone : BCHeadPhone</text><text fill="#000000" font-family="sans-serif" font-size="14" lengthAdjust="spacing" textLength="4.4502" x="908.64" y="155.1826">&#160;</text><ellipse cx="899.64" cy="168.1328" fill="none" rx="3" ry="3" style="stroke:#038048;stroke-width:1.0;"/><text fill="#000000" font-family="sans-serif" font-size="14" lengthAdjust="spacing" textLength="182.9707" x="908.64" y="171.4795">m_pLeftVibrator : Vibrator</text><ellipse cx="899.64" cy="184.4297" fill="none" rx="3" ry="3" style="stroke:#038048;stroke-width:1.0;"/><text fill="#000000" font-family="sans-serif" font-size="14" lengthAdjust="spacing" textLength="193.0059" x="908.64" y="187.7764">m_pRightVibrator : Vibrator</text><text fill="#000000" font-family="sans-serif" font-size="14" lengthAdjust="spacing" textLength="4.4502" x="908.64" y="204.0732">&#160;</text><ellipse cx="899.64" cy="217.0234" fill="none" rx="3" ry="3" style="stroke:#038048;stroke-width:1.0;"/><text fill="#000000" font-family="sans-serif" font-size="14" lengthAdjust="spacing" textLength="207.3818" x="908.64" y="220.3701">m_pServomotor : Servomotor</text><line style="stroke:#181818;stroke-width:0.5;" x1="889.64" x2="1192.3548" y1="227.6719" y2="227.6719"/></g><!--class JsonFileReader--><g id="elem_JsonFileReader"><rect codeLine="77" fill="#F1F1F1" height="64.2969" id="JsonFileReader" rx="2.5" ry="2.5" style="stroke:#181818;stroke-width:0.5;" width="135.4824" x="1249.26" y="106.18"/><ellipse cx="1264.26" cy="122.18" fill="#ADD1B2" rx="11" ry="11" style="stroke:#181818;stroke-width:1.0;"/><path d="M1267.2288,127.8206 Q1266.6506,128.1175 1266.01,128.2581 Q1265.3694,128.4144 1264.6663,128.4144 Q1262.1663,128.4144 1260.8381,126.7738 Q1259.5256,125.1175 1259.5256,121.9925 Q1259.5256,118.8675 1260.8381,117.2113 Q1262.1663,115.555 1264.6663,115.555 Q1265.3694,115.555 1266.01,115.7113 Q1266.6663,115.8675 1267.2288,116.1644 L1267.2288,118.8831 Q1266.6038,118.305 1266.01,118.0394 Q1265.4163,117.7581 1264.7913,117.7581 Q1263.4475,117.7581 1262.76,118.8363 Q1262.0725,119.8988 1262.0725,121.9925 Q1262.0725,124.0863 1262.76,125.1644 Q1263.4475,126.2269 1264.7913,126.2269 Q1265.4163,126.2269 1266.01,125.9613 Q1266.6038,125.68 1267.2288,125.1019 L1267.2288,127.8206 Z " fill="#000000"/><text fill="#000000" font-family="sans-serif" font-size="14" lengthAdjust="spacing" textLength="103.4824" x="1278.26" y="127.0267">JsonFileReader</text><line style="stroke:#181818;stroke-width:0.5;" x1="1250.26" x2="1383.7424" y1="138.18" y2="138.18"/><line style="stroke:#181818;stroke-width:0.5;" x1="1250.26" x2="1383.7424" y1="146.18" y2="146.18"/><ellipse cx="1260.26" cy="159.8284" fill="#84BE84" rx="3" ry="3" style="stroke:#038048;stroke-width:1.0;"/><text fill="#000000" font-family="sans-serif" font-size="14" lengthAdjust="spacing" textLength="40.8447" x="1269.26" y="163.1751">load()</text></g><!--class Main--><g id="elem_Main"><rect codeLine="83" fill="#F1F1F1" height="64.2969" id="Main" rx="2.5" ry="2.5" style="stroke:#181818;stroke-width:0.5;" width="71.9033" x="1441.05" y="106.18"/><ellipse cx="1458.9671" cy="122.18" fill="#ADD1B2" rx="11" ry="11" style="stroke:#181818;stroke-width:1.0;"/><path d="M1461.9358,127.8206 Q1461.3577,128.1175 1460.7171,128.2581 Q1460.0765,128.4144 1459.3733,128.4144 Q1456.8733,128.4144 1455.5452,126.7738 Q1454.2327,125.1175 1454.2327,121.9925 Q1454.2327,118.8675 1455.5452,117.2113 Q1456.8733,115.555 1459.3733,115.555 Q1460.0765,115.555 1460.7171,115.7113 Q1461.3733,115.8675 1461.9358,116.1644 L1461.9358,118.8831 Q1461.3108,118.305 1460.7171,118.0394 Q1460.1233,117.7581 1459.4983,117.7581 Q1458.1546,117.7581 1457.4671,118.8363 Q1456.7796,119.8988 1456.7796,121.9925 Q1456.7796,124.0863 1457.4671,125.1644 Q1458.1546,126.2269 1459.4983,126.2269 Q1460.1233,126.2269 1460.7171,125.9613 Q1461.3108,125.68 1461.9358,125.1019 L1461.9358,127.8206 Z " fill="#000000"/><text fill="#000000" font-family="sans-serif" font-size="14" lengthAdjust="spacing" textLength="33.4209" x="1473.6153" y="127.0267">Main</text><line style="stroke:#181818;stroke-width:0.5;" x1="1442.05" x2="1511.9533" y1="138.18" y2="138.18"/><line style="stroke:#181818;stroke-width:0.5;" x1="1442.05" x2="1511.9533" y1="146.18" y2="146.18"/><ellipse cx="1452.05" cy="159.8284" fill="#84BE84" rx="3" ry="3" style="stroke:#038048;stroke-width:1.0;"/><text fill="#000000" font-family="sans-serif" font-size="14" lengthAdjust="spacing" textLength="45.9033" x="1461.05" y="163.1751">main()</text></g><!--link EmergencyButton to IComponent--><g id="link_EmergencyButton_IComponent"><path codeLine="88" d="M272,392.85 C272,411.69 272,415.3 272,434.16 " fill="none" id="EmergencyButton-to-IComponent" style="stroke:#181818;stroke-width:1.0;"/><polygon fill="none" points="272,452.16,278,434.16,266,434.16,272,452.16" style="stroke:#181818;stroke-width:1.0;"/></g><!--link Vibrator to IComponent--><g id="link_Vibrator_IComponent"><path codeLine="89" d="M146.09,392.85 C168.23,411.69 179.925,421.6307 202.075,440.4907 " fill="none" id="Vibrator-to-IComponent" style="stroke:#181818;stroke-width:1.0;"/><polygon fill="none" points="215.78,452.16,205.9648,435.9223,198.1852,445.059,215.78,452.16" style="stroke:#181818;stroke-width:1.0;"/></g><!--link BCHeadPhone to IComponent--><g id="link_BCHeadPhone_IComponent"><path codeLine="90" d="M397.91,392.85 C375.77,411.69 364.075,421.6307 341.925,440.4907 " fill="none" id="BCHeadPhone-to-IComponent" style="stroke:#181818;stroke-width:1.0;"/><polygon fill="none" points="328.22,452.16,345.8148,445.059,338.0352,435.9223,328.22,452.16" style="stroke:#181818;stroke-width:1.0;"/></g><!--link ESP_32 to BCHeadPhone--><g id="link_ESP_32_BCHeadPhone"><path codeLine="92" d="M395.6419,246.4231 C408.0419,266.9631 411.299,272.3635 422.009,290.1035 " fill="none" id="ESP_32-BCHeadPhone" style="stroke:#181818;stroke-width:1.0;"/><polygon fill="#181818" points="389.44,236.15,389.1166,243.3538,395.6419,246.4231,395.9653,239.2193,389.44,236.15" style="stroke:#181818;stroke-width:1.0;"/><polygon fill="#181818" points="425.11,295.24,423.8828,285.4679,422.5258,290.9596,417.0341,289.6026,425.11,295.24" style="stroke:#181818;stroke-width:1.0;"/></g><!--link ESP_32 to EmergencyButton--><g id="link_ESP_32_EmergencyButton"><path codeLine="93" d="M299.6311,247.6761 C293.6811,268.2161 292.6698,271.737 287.5298,289.477 " fill="none" id="ESP_32-EmergencyButton" style="stroke:#181818;stroke-width:1.0;"/><polygon fill="#181818" points="302.97,236.15,297.4585,240.8001,299.6311,247.6761,305.1426,243.026,302.97,236.15" style="stroke:#181818;stroke-width:1.0;"/><polygon fill="#181818" points="285.86,295.24,292.2066,287.7087,287.2515,290.4375,284.5227,285.4824,285.86,295.24" style="stroke:#181818;stroke-width:1.0;"/></g><!--link ESP_32 to Vibrator--><g id="link_ESP_32_Vibrator"><path codeLine="94" d="M207.3369,243.8984 C183.0469,264.4384 172.1716,273.6259 151.1916,291.3659 " fill="none" id="ESP_32-Vibrator" style="stroke:#181818;stroke-width:1.0;"/><polygon fill="#181818" points="216.5,236.15,209.3357,236.9699,207.3369,243.8984,214.5013,243.0786,216.5,236.15" style="stroke:#181818;stroke-width:1.0;"/><polygon fill="#181818" points="146.61,295.24,156.0652,292.4833,150.428,292.0116,150.8997,286.3744,146.61,295.24" style="stroke:#181818;stroke-width:1.0;"/></g><!--link ESP_32 to Servomotor--><g id="link_ESP_32_Servomotor"><path codeLine="95" d="M502.4514,235.3208 C542.9914,258.0108 569.2246,272.699 604.3946,292.389 " fill="none" id="ESP_32-Servomotor" style="stroke:#181818;stroke-width:1.0;"/><polygon fill="#181818" points="491.98,229.46,495.2621,235.8809,502.4514,235.3208,499.1693,228.8999,491.98,229.46" style="stroke:#181818;stroke-width:1.0;"/><polygon fill="#181818" points="609.63,295.32,603.731,287.4332,605.2672,292.8775,599.8229,294.4137,609.63,295.32" style="stroke:#181818;stroke-width:1.0;"/></g><!--SRC=[tPJFIyCm5CVl_Ik2f_cZC3Uzz31mOwBYO6pWTSJkhGssIKbIGNJ_kybCsvVCYS9Evb3wlj_Nb-IJbrOqVQ4Pa9E9A2l1WMjrGjuZOWRZ6kI6fa3kMzDPTfpBclTEkr1fKPcu4ygLqbG3ISYKr-LEttxPQK6L8a_iML8jv35hJakG6V3qRLnhBVWnIuydTq3NyznmE6RP9SXNKOg0GvfJdi5SAAQPu3t6czU4D6_-99LJIPVm1shB-MeuCFDx5HzXe_6c4up0oromBFyXTQzgU_99smJxzRvByh8GkGHXz7B2VaZ23laD932nJxKxgPj2CrslONNPx_VBYtrzS40V7j2l3kZNLdUhii_8BAvgBkzoj_8PJNF6eRc_hh-ivHpSOHQEgknkTuV_VuxUSC5eRba12xCUa3wN1oLuvs4oXQ1hTwMtNgaPPTmlOXKFgednfs7xnV772FrDetQZeO69XbxahkjP78yys5WFsnnxBLCiTXG_0G00]--></g></svg>