<svg xmlns="http://www.w3.org/2000/svg" xmlns:xlink="http://www.w3.org/1999/xlink" contentStyleType="text/css" height="539px" preserveAspectRatio="none" style="width:960px;height:539px;background:#FFFFFF;" version="1.1" viewBox="0 0 960 539" width="960px" zoomAndPan="magnify"><defs/><g><!--cluster Components--><g id="cluster_Components"><path d="M8.5,6 L109.5,6 A3.75,3.75 0 0 1 112,8.5 L119,28.2969 L636.5,28.2969 A2.5,2.5 0 0 1 639,30.7969 L639,530.36 A2.5,2.5 0 0 1 636.5,532.86 L8.5,532.86 A2.5,2.5 0 0 1 6,530.36 L6,8.5 A2.5,2.5 0 0 1 8.5,6 " fill="none" style="stroke:#000000;stroke-width:1.5;"/><line style="stroke:#000000;stroke-width:1.5;" x1="6" x2="119" y1="28.2969" y2="28.2969"/><text fill="#000000" font-family="sans-serif" font-size="14" font-weight="bold" lengthAdjust="spacing" textLength="100" x="10" y="20.9951">Components</text></g><!--cluster FileReader--><g id="cluster_FileReader"><path d="M665.5,54.89 L749.5,54.89 A3.75,3.75 0 0 1 752,57.39 L759,77.1869 L826.5,77.1869 A2.5,2.5 0 0 1 829,79.6869 L829,167.69 A2.5,2.5 0 0 1 826.5,170.19 L665.5,170.19 A2.5,2.5 0 0 1 663,167.69 L663,57.39 A2.5,2.5 0 0 1 665.5,54.89 " fill="none" style="stroke:#000000;stroke-width:1.5;"/><line style="stroke:#000000;stroke-width:1.5;" x1="663" x2="759" y1="77.1869" y2="77.1869"/><text fill="#000000" font-family="sans-serif" font-size="14" font-weight="bold" lengthAdjust="spacing" textLength="83" x="667" y="69.8851">FileReader</text></g><!--cluster Main--><g id="cluster_Main"><path d="M855.5,54.89 L892.5,54.89 A3.75,3.75 0 0 1 895,57.39 L902,77.1869 L950.5,77.1869 A2.5,2.5 0 0 1 953,79.6869 L953,167.69 A2.5,2.5 0 0 1 950.5,170.19 L855.5,170.19 A2.5,2.5 0 0 1 853,167.69 L853,57.39 A2.5,2.5 0 0 1 855.5,54.89 " fill="none" style="stroke:#000000;stroke-width:1.5;"/><line style="stroke:#000000;stroke-width:1.5;" x1="853" x2="902" y1="77.1869" y2="77.1869"/><text fill="#000000" font-family="sans-serif" font-size="14" font-weight="bold" lengthAdjust="spacing" textLength="36" x="857" y="69.8851">Main</text></g><!--class IComponent--><g id="elem_IComponent"><rect codeLine="2" fill="#F1F1F1" height="96.8906" id="IComponent" rx="2.5" ry="2.5" style="stroke:#181818;stroke-width:0.5;" width="124" x="103" y="419.97"/><ellipse cx="121.15" cy="435.97" fill="#B4A7E5" rx="11" ry="11" style="stroke:#181818;stroke-width:1.0;"/><path d="M117.0719,431.7356 L117.0719,429.5794 L124.4625,429.5794 L124.4625,431.7356 L121.9938,431.7356 L121.9938,439.8138 L124.4625,439.8138 L124.4625,441.97 L117.0719,441.97 L117.0719,439.8138 L119.5406,439.8138 L119.5406,431.7356 L117.0719,431.7356 Z " fill="#000000"/><text fill="#000000" font-family="sans-serif" font-size="14" font-style="italic" lengthAdjust="spacing" textLength="85" x="135.85" y="440.8167">IComponent</text><line style="stroke:#181818;stroke-width:0.5;" x1="104" x2="226" y1="451.97" y2="451.97"/><ellipse cx="114" cy="465.6184" fill="none" rx="3" ry="3" style="stroke:#038048;stroke-width:1.0;"/><text fill="#000000" font-family="sans-serif" font-size="14" lengthAdjust="spacing" textLength="98" x="123" y="468.9651">m_state : bool</text><line style="stroke:#181818;stroke-width:0.5;" x1="104" x2="226" y1="476.2669" y2="476.2669"/><ellipse cx="114" cy="489.9153" fill="#84BE84" rx="3" ry="3" style="stroke:#038048;stroke-width:1.0;"/><text fill="#000000" font-family="sans-serif" font-size="14" lengthAdjust="spacing" textLength="33" x="123" y="493.262">run()</text><ellipse cx="114" cy="506.2122" fill="#84BE84" rx="3" ry="3" style="stroke:#038048;stroke-width:1.0;"/><text fill="#000000" font-family="sans-serif" font-size="14" lengthAdjust="spacing" textLength="41" x="123" y="509.5589">stop()</text></g><!--class Vibrator--><g id="elem_Vibrator"><rect codeLine="9" fill="#F1F1F1" height="96.8906" id="Vibrator" rx="2.5" ry="2.5" style="stroke:#181818;stroke-width:0.5;" width="124" x="22" y="263.08"/><ellipse cx="54.55" cy="279.08" fill="#ADD1B2" rx="11" ry="11" style="stroke:#181818;stroke-width:1.0;"/><path d="M57.5188,284.7206 Q56.9406,285.0175 56.3,285.1581 Q55.6594,285.3144 54.9563,285.3144 Q52.4563,285.3144 51.1281,283.6738 Q49.8156,282.0175 49.8156,278.8925 Q49.8156,275.7675 51.1281,274.1113 Q52.4563,272.455 54.9563,272.455 Q55.6594,272.455 56.3,272.6113 Q56.9563,272.7675 57.5188,273.0644 L57.5188,275.7831 Q56.8938,275.205 56.3,274.9394 Q55.7063,274.6581 55.0813,274.6581 Q53.7375,274.6581 53.05,275.7363 Q52.3625,276.7988 52.3625,278.8925 Q52.3625,280.9863 53.05,282.0644 Q53.7375,283.1269 55.0813,283.1269 Q55.7063,283.1269 56.3,282.8613 Q56.8938,282.58 57.5188,282.0019 L57.5188,284.7206 Z " fill="#000000"/><text fill="#000000" font-family="sans-serif" font-size="14" lengthAdjust="spacing" textLength="53" x="72.45" y="283.9267">Vibrator</text><line style="stroke:#181818;stroke-width:0.5;" x1="23" x2="145" y1="295.08" y2="295.08"/><ellipse cx="33" cy="308.7284" fill="none" rx="3" ry="3" style="stroke:#038048;stroke-width:1.0;"/><text fill="#000000" font-family="sans-serif" font-size="14" lengthAdjust="spacing" textLength="98" x="42" y="312.0751">m_state : bool</text><line style="stroke:#181818;stroke-width:0.5;" x1="23" x2="145" y1="319.3769" y2="319.3769"/><ellipse cx="33" cy="333.0253" fill="#84BE84" rx="3" ry="3" style="stroke:#038048;stroke-width:1.0;"/><text fill="#000000" font-family="sans-serif" font-size="14" lengthAdjust="spacing" textLength="33" x="42" y="336.372">run()</text><ellipse cx="33" cy="349.3222" fill="#84BE84" rx="3" ry="3" style="stroke:#038048;stroke-width:1.0;"/><text fill="#000000" font-family="sans-serif" font-size="14" lengthAdjust="spacing" textLength="41" x="42" y="352.6689">stop()</text></g><!--class BCHeadPhone--><g id="elem_BCHeadPhone"><rect codeLine="16" fill="#F1F1F1" height="96.8906" id="BCHeadPhone" rx="2.5" ry="2.5" style="stroke:#181818;stroke-width:0.5;" width="133" x="180.5" y="263.08"/><ellipse cx="195.5" cy="279.08" fill="#ADD1B2" rx="11" ry="11" style="stroke:#181818;stroke-width:1.0;"/><path d="M198.4688,284.7206 Q197.8906,285.0175 197.25,285.1581 Q196.6094,285.3144 195.9063,285.3144 Q193.4063,285.3144 192.0781,283.6738 Q190.7656,282.0175 190.7656,278.8925 Q190.7656,275.7675 192.0781,274.1113 Q193.4063,272.455 195.9063,272.455 Q196.6094,272.455 197.25,272.6113 Q197.9063,272.7675 198.4688,273.0644 L198.4688,275.7831 Q197.8438,275.205 197.25,274.9394 Q196.6563,274.6581 196.0313,274.6581 Q194.6875,274.6581 194,275.7363 Q193.3125,276.7988 193.3125,278.8925 Q193.3125,280.9863 194,282.0644 Q194.6875,283.1269 196.0313,283.1269 Q196.6563,283.1269 197.25,282.8613 Q197.8438,282.58 198.4688,282.0019 L198.4688,284.7206 Z " fill="#000000"/><text fill="#000000" font-family="sans-serif" font-size="14" lengthAdjust="spacing" textLength="101" x="209.5" y="283.9267">BCHeadPhone</text><line style="stroke:#181818;stroke-width:0.5;" x1="181.5" x2="312.5" y1="295.08" y2="295.08"/><ellipse cx="191.5" cy="308.7284" fill="none" rx="3" ry="3" style="stroke:#038048;stroke-width:1.0;"/><text fill="#000000" font-family="sans-serif" font-size="14" lengthAdjust="spacing" textLength="98" x="200.5" y="312.0751">m_state : bool</text><line style="stroke:#181818;stroke-width:0.5;" x1="181.5" x2="312.5" y1="319.3769" y2="319.3769"/><ellipse cx="191.5" cy="333.0253" fill="#84BE84" rx="3" ry="3" style="stroke:#038048;stroke-width:1.0;"/><text fill="#000000" font-family="sans-serif" font-size="14" lengthAdjust="spacing" textLength="33" x="200.5" y="336.372">run()</text><ellipse cx="191.5" cy="349.3222" fill="#84BE84" rx="3" ry="3" style="stroke:#038048;stroke-width:1.0;"/><text fill="#000000" font-family="sans-serif" font-size="14" lengthAdjust="spacing" textLength="41" x="200.5" y="352.6689">stop()</text></g><!--class Servomotor--><g id="elem_Servomotor"><rect codeLine="23" fill="#F1F1F1" height="80.5938" id="Servomotor" rx="2.5" ry="2.5" style="stroke:#181818;stroke-width:0.5;" width="274" x="349" y="271.23"/><ellipse cx="441.75" cy="287.23" fill="#ADD1B2" rx="11" ry="11" style="stroke:#181818;stroke-width:1.0;"/><path d="M444.7188,292.8706 Q444.1406,293.1675 443.5,293.3081 Q442.8594,293.4644 442.1563,293.4644 Q439.6563,293.4644 438.3281,291.8238 Q437.0156,290.1675 437.0156,287.0425 Q437.0156,283.9175 438.3281,282.2613 Q439.6563,280.605 442.1563,280.605 Q442.8594,280.605 443.5,280.7613 Q444.1563,280.9175 444.7188,281.2144 L444.7188,283.9331 Q444.0938,283.355 443.5,283.0894 Q442.9063,282.8081 442.2813,282.8081 Q440.9375,282.8081 440.25,283.8863 Q439.5625,284.9488 439.5625,287.0425 Q439.5625,289.1363 440.25,290.2144 Q440.9375,291.2769 442.2813,291.2769 Q442.9063,291.2769 443.5,291.0113 Q444.0938,290.73 444.7188,290.1519 L444.7188,292.8706 Z " fill="#000000"/><text fill="#000000" font-family="sans-serif" font-size="14" lengthAdjust="spacing" textLength="80" x="462.25" y="292.0767">Servomotor</text><line style="stroke:#181818;stroke-width:0.5;" x1="350" x2="622" y1="303.23" y2="303.23"/><ellipse cx="360" cy="316.8784" fill="none" rx="3" ry="3" style="stroke:#038048;stroke-width:1.0;"/><text fill="#000000" font-family="sans-serif" font-size="14" lengthAdjust="spacing" textLength="143" x="369" y="320.2251">m_position : Position</text><line style="stroke:#181818;stroke-width:0.5;" x1="350" x2="622" y1="327.5269" y2="327.5269"/><ellipse cx="360" cy="341.1753" fill="#84BE84" rx="3" ry="3" style="stroke:#038048;stroke-width:1.0;"/><text fill="#000000" font-family="sans-serif" font-size="14" lengthAdjust="spacing" textLength="248" x="369" y="344.522">changePosition(inPosition: Position)</text></g><!--class ESP_32--><g id="elem_ESP_32"><rect codeLine="29" fill="#F1F1F1" height="162.0781" id="ESP_32" rx="2.5" ry="2.5" style="stroke:#181818;stroke-width:0.5;" width="306" x="94" y="41"/><ellipse cx="216.75" cy="57" fill="#ADD1B2" rx="11" ry="11" style="stroke:#181818;stroke-width:1.0;"/><path d="M219.7188,62.6406 Q219.1406,62.9375 218.5,63.0781 Q217.8594,63.2344 217.1563,63.2344 Q214.6563,63.2344 213.3281,61.5938 Q212.0156,59.9375 212.0156,56.8125 Q212.0156,53.6875 213.3281,52.0313 Q214.6563,50.375 217.1563,50.375 Q217.8594,50.375 218.5,50.5313 Q219.1563,50.6875 219.7188,50.9844 L219.7188,53.7031 Q219.0938,53.125 218.5,52.8594 Q217.9063,52.5781 217.2813,52.5781 Q215.9375,52.5781 215.25,53.6563 Q214.5625,54.7188 214.5625,56.8125 Q214.5625,58.9063 215.25,59.9844 Q215.9375,61.0469 217.2813,61.0469 Q217.9063,61.0469 218.5,60.7813 Q219.0938,60.5 219.7188,59.9219 L219.7188,62.6406 Z " fill="#000000"/><text fill="#000000" font-family="sans-serif" font-size="14" lengthAdjust="spacing" textLength="52" x="237.25" y="61.8467">ESP_32</text><line style="stroke:#181818;stroke-width:0.5;" x1="95" x2="399" y1="73" y2="73"/><ellipse cx="105" cy="86.6484" fill="none" rx="3" ry="3" style="stroke:#038048;stroke-width:1.0;"/><text fill="#000000" font-family="sans-serif" font-size="14" lengthAdjust="spacing" textLength="269" x="114" y="89.9951">m_pLeftBCHeadPhone : BCHeadPhone</text><ellipse cx="105" cy="102.9453" fill="none" rx="3" ry="3" style="stroke:#038048;stroke-width:1.0;"/><text fill="#000000" font-family="sans-serif" font-size="14" lengthAdjust="spacing" textLength="280" x="114" y="106.292">m_pRightBCHeadPhone : BCHeadPhone</text><text fill="#000000" font-family="sans-serif" font-size="14" lengthAdjust="spacing" textLength="4" x="114" y="122.5889">&#160;</text><ellipse cx="105" cy="135.5391" fill="none" rx="3" ry="3" style="stroke:#038048;stroke-width:1.0;"/><text fill="#000000" font-family="sans-serif" font-size="14" lengthAdjust="spacing" textLength="173" x="114" y="138.8857">m_pLeftVibrator : Vibrator</text><ellipse cx="105" cy="151.8359" fill="none" rx="3" ry="3" style="stroke:#038048;stroke-width:1.0;"/><text fill="#000000" font-family="sans-serif" font-size="14" lengthAdjust="spacing" textLength="184" x="114" y="155.1826">m_pRightVibrator : Vibrator</text><text fill="#000000" font-family="sans-serif" font-size="14" lengthAdjust="spacing" textLength="4" x="114" y="171.4795">&#160;</text><ellipse cx="105" cy="184.4297" fill="none" rx="3" ry="3" style="stroke:#038048;stroke-width:1.0;"/><text fill="#000000" font-family="sans-serif" font-size="14" lengthAdjust="spacing" textLength="202" x="114" y="187.7764">m_pServomotor : Servomotor</text><line style="stroke:#181818;stroke-width:0.5;" x1="95" x2="399" y1="195.0781" y2="195.0781"/></g><!--class Position--><g id="elem_Position"><rect codeLine="40" fill="#F1F1F1" height="129.4844" id="Position" rx="2.5" ry="2.5" style="stroke:#181818;stroke-width:0.5;" width="124" x="467" y="57.3"/><ellipse cx="498.65" cy="73.3" fill="#EB937F" rx="11" ry="11" style="stroke:#181818;stroke-width:1.0;"/><path d="M502.7594,79.3 L495.0406,79.3 L495.0406,66.9094 L502.7594,66.9094 L502.7594,69.0656 L497.4938,69.0656 L497.4938,71.7375 L502.2594,71.7375 L502.2594,73.8938 L497.4938,73.8938 L497.4938,77.1438 L502.7594,77.1438 L502.7594,79.3 Z " fill="#000000"/><text fill="#000000" font-family="sans-serif" font-size="14" lengthAdjust="spacing" textLength="55" x="516.35" y="78.1467">Position</text><line style="stroke:#181818;stroke-width:0.5;" x1="468" x2="590" y1="89.3" y2="89.3"/><text fill="#000000" font-family="sans-serif" font-size="14" lengthAdjust="spacing" textLength="112" x="473" y="106.2951">Altitude_1000m,</text><text fill="#000000" font-family="sans-serif" font-size="14" lengthAdjust="spacing" textLength="112" x="473" y="122.592">Altitude_2000m,</text><text fill="#000000" font-family="sans-serif" font-size="14" lengthAdjust="spacing" textLength="112" x="473" y="138.8889">Altitude_3000m,</text><text fill="#000000" font-family="sans-serif" font-size="14" lengthAdjust="spacing" textLength="112" x="473" y="155.1857">Altitude_4000m,</text><text fill="#000000" font-family="sans-serif" font-size="14" lengthAdjust="spacing" textLength="108" x="473" y="171.4826">Altitude_5000m</text><line style="stroke:#181818;stroke-width:0.5;" x1="468" x2="590" y1="178.7844" y2="178.7844"/></g><!--class JsonFileReader--><g id="elem_JsonFileReader"><rect codeLine="52" fill="#F1F1F1" height="64.2969" id="JsonFileReader" rx="2.5" ry="2.5" style="stroke:#181818;stroke-width:0.5;" width="134" x="679" y="89.89"/><ellipse cx="694" cy="105.89" fill="#ADD1B2" rx="11" ry="11" style="stroke:#181818;stroke-width:1.0;"/><path d="M696.9688,111.5306 Q696.3906,111.8275 695.75,111.9681 Q695.1094,112.1244 694.4063,112.1244 Q691.9063,112.1244 690.5781,110.4837 Q689.2656,108.8275 689.2656,105.7025 Q689.2656,102.5775 690.5781,100.9212 Q691.9063,99.265 694.4063,99.265 Q695.1094,99.265 695.75,99.4212 Q696.4063,99.5775 696.9688,99.8744 L696.9688,102.5931 Q696.3438,102.015 695.75,101.7494 Q695.1563,101.4681 694.5313,101.4681 Q693.1875,101.4681 692.5,102.5462 Q691.8125,103.6087 691.8125,105.7025 Q691.8125,107.7962 692.5,108.8744 Q693.1875,109.9369 694.5313,109.9369 Q695.1563,109.9369 695.75,109.6712 Q696.3438,109.39 696.9688,108.8119 L696.9688,111.5306 Z " fill="#000000"/><text fill="#000000" font-family="sans-serif" font-size="14" lengthAdjust="spacing" textLength="102" x="708" y="110.7367">JsonFileReader</text><line style="stroke:#181818;stroke-width:0.5;" x1="680" x2="812" y1="121.89" y2="121.89"/><line style="stroke:#181818;stroke-width:0.5;" x1="680" x2="812" y1="129.89" y2="129.89"/><ellipse cx="690" cy="143.5384" fill="#84BE84" rx="3" ry="3" style="stroke:#038048;stroke-width:1.0;"/><text fill="#000000" font-family="sans-serif" font-size="14" lengthAdjust="spacing" textLength="39" x="699" y="146.8851">load()</text></g><!--class Main--><g id="elem_Main"><rect codeLine="58" fill="#F1F1F1" height="64.2969" id="Main" rx="2.5" ry="2.5" style="stroke:#181818;stroke-width:0.5;" width="69" x="868.5" y="89.89"/><ellipse cx="885.75" cy="105.89" fill="#ADD1B2" rx="11" ry="11" style="stroke:#181818;stroke-width:1.0;"/><path d="M888.7188,111.5306 Q888.1406,111.8275 887.5,111.9681 Q886.8594,112.1244 886.1563,112.1244 Q883.6563,112.1244 882.3281,110.4837 Q881.0156,108.8275 881.0156,105.7025 Q881.0156,102.5775 882.3281,100.9212 Q883.6563,99.265 886.1563,99.265 Q886.8594,99.265 887.5,99.4212 Q888.1563,99.5775 888.7188,99.8744 L888.7188,102.5931 Q888.0938,102.015 887.5,101.7494 Q886.9063,101.4681 886.2813,101.4681 Q884.9375,101.4681 884.25,102.5462 Q883.5625,103.6087 883.5625,105.7025 Q883.5625,107.7962 884.25,108.8744 Q884.9375,109.9369 886.2813,109.9369 Q886.9063,109.9369 887.5,109.6712 Q888.0938,109.39 888.7188,108.8119 L888.7188,111.5306 Z " fill="#000000"/><text fill="#000000" font-family="sans-serif" font-size="14" lengthAdjust="spacing" textLength="32" x="900.25" y="110.7367">Main</text><line style="stroke:#181818;stroke-width:0.5;" x1="869.5" x2="936.5" y1="121.89" y2="121.89"/><line style="stroke:#181818;stroke-width:0.5;" x1="869.5" x2="936.5" y1="129.89" y2="129.89"/><ellipse cx="879.5" cy="143.5384" fill="#84BE84" rx="3" ry="3" style="stroke:#038048;stroke-width:1.0;"/><text fill="#000000" font-family="sans-serif" font-size="14" lengthAdjust="spacing" textLength="43" x="888.5" y="146.8851">main()</text></g><!--link Vibrator to IComponent--><g id="link_Vibrator_IComponent"><path codeLine="63" d="M108.96,360.26 C118.82,379.1 121.7805,384.7584 131.6405,403.6184 " fill="none" id="Vibrator-to-IComponent" style="stroke:#181818;stroke-width:1.0;"/><polygon fill="none" points="139.98,419.57,136.9577,400.8386,126.3233,406.3982,139.98,419.57" style="stroke:#181818;stroke-width:1.0;"/></g><!--link BCHeadPhone to IComponent--><g id="link_BCHeadPhone_IComponent"><path codeLine="64" d="M221.73,360.26 C211.75,379.1 208.7289,384.8002 198.7489,403.6602 " fill="none" id="BCHeadPhone-to-IComponent" style="stroke:#181818;stroke-width:1.0;"/><polygon fill="none" points="190.33,419.57,204.0522,406.4665,193.4456,400.8539,190.33,419.57" style="stroke:#181818;stroke-width:1.0;"/></g><!--link ESP_32 to BCHeadPhone--><g id="link_ESP_32_BCHeadPhone"><path codeLine="66" d="M247,215.37 C247,235.54 247,238.56 247,256.59 " fill="none" id="ESP_32-BCHeadPhone" style="stroke:#181818;stroke-width:1.0;"/><polygon fill="#181818" points="247,203.37,243,209.37,247,215.37,251,209.37,247,203.37" style="stroke:#181818;stroke-width:1.0;"/><polygon fill="#181818" points="247,262.59,251,253.59,247,257.59,243,253.59,247,262.59" style="stroke:#181818;stroke-width:1.0;"/></g><!--link ESP_32 to Vibrator--><g id="link_ESP_32_Vibrator"><path codeLine="67" d="M169.2856,212.4251 C151.7456,232.5951 145.2873,240.0326 129.6073,258.0626 " fill="none" id="ESP_32-Vibrator" style="stroke:#181818;stroke-width:1.0;"/><polygon fill="#181818" points="177.16,203.37,170.2045,205.2727,169.2856,212.4251,176.2412,210.5223,177.16,203.37" style="stroke:#181818;stroke-width:1.0;"/><polygon fill="#181818" points="125.67,262.59,134.5943,258.4238,128.9511,258.8172,128.5577,253.174,125.67,262.59" style="stroke:#181818;stroke-width:1.0;"/></g><!--link ESP_32 to Servomotor--><g id="link_ESP_32_Servomotor"><path codeLine="68" d="M358.8421,210.7759 C388.6121,234.1259 405.6695,247.5063 430.7395,267.1763 " fill="none" id="ESP_32-Servomotor" style="stroke:#181818;stroke-width:1.0;"/><polygon fill="#181818" points="349.4,203.37,351.6524,210.2203,358.8421,210.7759,356.5897,203.9256,349.4,203.37" style="stroke:#181818;stroke-width:1.0;"/><polygon fill="#181818" points="435.46,270.88,430.8484,262.1775,431.5263,267.7936,425.9102,268.4714,435.46,270.88" style="stroke:#181818;stroke-width:1.0;"/></g><!--SRC=[hLCxJyCm4DxpAwnEvH4fjB1ag0GL2118KIknHcvwJInYEx8T5kX_nw59V6uQfdgmVD-zxpjNDFkaEP39Kl9A2X16JyXtGEnXme3QqGp8IwziLSsvKhMONZXH6rbPsG4yrOOQ837PI5d-uVk3EYkfrkI3RHGrKfqpviFo6UWsAMonvmox1lKbkJmgDYkeo26HcXacnPI9xXcJxkKdgLgKE8DXhiTraivdDe_d-GOxWvkBSQkUvOhbnJ-cWwWz3N7Fo33UAIFF2aqeHkF2xO6ekT-tc-LzQPYfjv3UH574huVuR0IVZ-2t8_XTWxTLDNTWYwkwF_34IbZPIO7g_i21abSjXTFX5IWbtRQRjVT2lLCc_20DWbsvbR5hF-8m_5cWBnTWBezrGRijbs6uy6Z6UCyO1Xr7lm00]--></g></svg>