<svg xmlns="http://www.w3.org/2000/svg" xmlns:xlink="http://www.w3.org/1999/xlink" contentStyleType="text/css" height="539px" preserveAspectRatio="none" style="width:809px;height:539px;background:#FFFFFF;" version="1.1" viewBox="0 0 809 539" width="809px" zoomAndPan="magnify"><defs/><g><!--cluster Components--><g id="cluster_Components"><path d="M8.5,6 L109.5,6 A3.75,3.75 0 0 1 112,8.5 L119,28.2969 L485.5,28.2969 A2.5,2.5 0 0 1 488,30.7969 L488,530.36 A2.5,2.5 0 0 1 485.5,532.86 L8.5,532.86 A2.5,2.5 0 0 1 6,530.36 L6,8.5 A2.5,2.5 0 0 1 8.5,6 " fill="none" style="stroke:#000000;stroke-width:1.5;"/><line style="stroke:#000000;stroke-width:1.5;" x1="6" x2="119" y1="28.2969" y2="28.2969"/><text fill="#000000" font-family="sans-serif" font-size="14" font-weight="bold" lengthAdjust="spacing" textLength="100" x="10" y="20.9951">Components</text></g><!--cluster FileReader--><g id="cluster_FileReader"><path d="M514.5,54.89 L598.5,54.89 A3.75,3.75 0 0 1 601,57.39 L608,77.1869 L675.5,77.1869 A2.5,2.5 0 0 1 678,79.6869 L678,167.69 A2.5,2.5 0 0 1 675.5,170.19 L514.5,170.19 A2.5,2.5 0 0 1 512,167.69 L512,57.39 A2.5,2.5 0 0 1 514.5,54.89 " fill="none" style="stroke:#000000;stroke-width:1.5;"/><line style="stroke:#000000;stroke-width:1.5;" x1="512" x2="608" y1="77.1869" y2="77.1869"/><text fill="#000000" font-family="sans-serif" font-size="14" font-weight="bold" lengthAdjust="spacing" textLength="83" x="516" y="69.8851">FileReader</text></g><!--cluster Main--><g id="cluster_Main"><path d="M704.5,54.89 L741.5,54.89 A3.75,3.75 0 0 1 744,57.39 L751,77.1869 L799.5,77.1869 A2.5,2.5 0 0 1 802,79.6869 L802,167.69 A2.5,2.5 0 0 1 799.5,170.19 L704.5,170.19 A2.5,2.5 0 0 1 702,167.69 L702,57.39 A2.5,2.5 0 0 1 704.5,54.89 " fill="none" style="stroke:#000000;stroke-width:1.5;"/><line style="stroke:#000000;stroke-width:1.5;" x1="702" x2="751" y1="77.1869" y2="77.1869"/><text fill="#000000" font-family="sans-serif" font-size="14" font-weight="bold" lengthAdjust="spacing" textLength="36" x="706" y="69.8851">Main</text></g><!--class IComponent--><g id="elem_IComponent"><rect codeLine="2" fill="#F1F1F1" height="96.8906" id="IComponent" rx="2.5" ry="2.5" style="stroke:#181818;stroke-width:0.5;" width="124" x="185" y="419.97"/><ellipse cx="203.15" cy="435.97" fill="#B4A7E5" rx="11" ry="11" style="stroke:#181818;stroke-width:1.0;"/><path d="M199.0719,431.7356 L199.0719,429.5794 L206.4625,429.5794 L206.4625,431.7356 L203.9938,431.7356 L203.9938,439.8138 L206.4625,439.8138 L206.4625,441.97 L199.0719,441.97 L199.0719,439.8138 L201.5406,439.8138 L201.5406,431.7356 L199.0719,431.7356 Z " fill="#000000"/><text fill="#000000" font-family="sans-serif" font-size="14" font-style="italic" lengthAdjust="spacing" textLength="85" x="217.85" y="440.8167">IComponent</text><line style="stroke:#181818;stroke-width:0.5;" x1="186" x2="308" y1="451.97" y2="451.97"/><ellipse cx="196" cy="465.6184" fill="none" rx="3" ry="3" style="stroke:#038048;stroke-width:1.0;"/><text fill="#000000" font-family="sans-serif" font-size="14" lengthAdjust="spacing" textLength="98" x="205" y="468.9651">m_state : bool</text><line style="stroke:#181818;stroke-width:0.5;" x1="186" x2="308" y1="476.2669" y2="476.2669"/><ellipse cx="196" cy="489.9153" fill="#84BE84" rx="3" ry="3" style="stroke:#038048;stroke-width:1.0;"/><text fill="#000000" font-family="sans-serif" font-size="14" lengthAdjust="spacing" textLength="33" x="205" y="493.262">run()</text><ellipse cx="196" cy="506.2122" fill="#84BE84" rx="3" ry="3" style="stroke:#038048;stroke-width:1.0;"/><text fill="#000000" font-family="sans-serif" font-size="14" lengthAdjust="spacing" textLength="41" x="205" y="509.5589">stop()</text></g><!--class Vibrator--><g id="elem_Vibrator"><rect codeLine="9" fill="#F1F1F1" height="96.8906" id="Vibrator" rx="2.5" ry="2.5" style="stroke:#181818;stroke-width:0.5;" width="124" x="22" y="263.08"/><ellipse cx="54.55" cy="279.08" fill="#ADD1B2" rx="11" ry="11" style="stroke:#181818;stroke-width:1.0;"/><path d="M57.5188,284.7206 Q56.9406,285.0175 56.3,285.1581 Q55.6594,285.3144 54.9563,285.3144 Q52.4563,285.3144 51.1281,283.6738 Q49.8156,282.0175 49.8156,278.8925 Q49.8156,275.7675 51.1281,274.1113 Q52.4563,272.455 54.9563,272.455 Q55.6594,272.455 56.3,272.6113 Q56.9563,272.7675 57.5188,273.0644 L57.5188,275.7831 Q56.8938,275.205 56.3,274.9394 Q55.7063,274.6581 55.0813,274.6581 Q53.7375,274.6581 53.05,275.7363 Q52.3625,276.7988 52.3625,278.8925 Q52.3625,280.9863 53.05,282.0644 Q53.7375,283.1269 55.0813,283.1269 Q55.7063,283.1269 56.3,282.8613 Q56.8938,282.58 57.5188,282.0019 L57.5188,284.7206 Z " fill="#000000"/><text fill="#000000" font-family="sans-serif" font-size="14" lengthAdjust="spacing" textLength="53" x="72.45" y="283.9267">Vibrator</text><line style="stroke:#181818;stroke-width:0.5;" x1="23" x2="145" y1="295.08" y2="295.08"/><ellipse cx="33" cy="308.7284" fill="none" rx="3" ry="3" style="stroke:#038048;stroke-width:1.0;"/><text fill="#000000" font-family="sans-serif" font-size="14" lengthAdjust="spacing" textLength="98" x="42" y="312.0751">m_state : bool</text><line style="stroke:#181818;stroke-width:0.5;" x1="23" x2="145" y1="319.3769" y2="319.3769"/><ellipse cx="33" cy="333.0253" fill="#84BE84" rx="3" ry="3" style="stroke:#038048;stroke-width:1.0;"/><text fill="#000000" font-family="sans-serif" font-size="14" lengthAdjust="spacing" textLength="33" x="42" y="336.372">run()</text><ellipse cx="33" cy="349.3222" fill="#84BE84" rx="3" ry="3" style="stroke:#038048;stroke-width:1.0;"/><text fill="#000000" font-family="sans-serif" font-size="14" lengthAdjust="spacing" textLength="41" x="42" y="352.6689">stop()</text></g><!--class BCHeadPhone--><g id="elem_BCHeadPhone"><rect codeLine="16" fill="#F1F1F1" height="96.8906" id="BCHeadPhone" rx="2.5" ry="2.5" style="stroke:#181818;stroke-width:0.5;" width="133" x="180.5" y="263.08"/><ellipse cx="195.5" cy="279.08" fill="#ADD1B2" rx="11" ry="11" style="stroke:#181818;stroke-width:1.0;"/><path d="M198.4688,284.7206 Q197.8906,285.0175 197.25,285.1581 Q196.6094,285.3144 195.9063,285.3144 Q193.4063,285.3144 192.0781,283.6738 Q190.7656,282.0175 190.7656,278.8925 Q190.7656,275.7675 192.0781,274.1113 Q193.4063,272.455 195.9063,272.455 Q196.6094,272.455 197.25,272.6113 Q197.9063,272.7675 198.4688,273.0644 L198.4688,275.7831 Q197.8438,275.205 197.25,274.9394 Q196.6563,274.6581 196.0313,274.6581 Q194.6875,274.6581 194,275.7363 Q193.3125,276.7988 193.3125,278.8925 Q193.3125,280.9863 194,282.0644 Q194.6875,283.1269 196.0313,283.1269 Q196.6563,283.1269 197.25,282.8613 Q197.8438,282.58 198.4688,282.0019 L198.4688,284.7206 Z " fill="#000000"/><text fill="#000000" font-family="sans-serif" font-size="14" lengthAdjust="spacing" textLength="101" x="209.5" y="283.9267">BCHeadPhone</text><line style="stroke:#181818;stroke-width:0.5;" x1="181.5" x2="312.5" y1="295.08" y2="295.08"/><ellipse cx="191.5" cy="308.7284" fill="none" rx="3" ry="3" style="stroke:#038048;stroke-width:1.0;"/><text fill="#000000" font-family="sans-serif" font-size="14" lengthAdjust="spacing" textLength="98" x="200.5" y="312.0751">m_state : bool</text><line style="stroke:#181818;stroke-width:0.5;" x1="181.5" x2="312.5" y1="319.3769" y2="319.3769"/><ellipse cx="191.5" cy="333.0253" fill="#84BE84" rx="3" ry="3" style="stroke:#038048;stroke-width:1.0;"/><text fill="#000000" font-family="sans-serif" font-size="14" lengthAdjust="spacing" textLength="33" x="200.5" y="336.372">run()</text><ellipse cx="191.5" cy="349.3222" fill="#84BE84" rx="3" ry="3" style="stroke:#038048;stroke-width:1.0;"/><text fill="#000000" font-family="sans-serif" font-size="14" lengthAdjust="spacing" textLength="41" x="200.5" y="352.6689">stop()</text></g><!--class Servomotor--><g id="elem_Servomotor"><rect codeLine="23" fill="#F1F1F1" height="96.8906" id="Servomotor" rx="2.5" ry="2.5" style="stroke:#181818;stroke-width:0.5;" width="124" x="348" y="263.08"/><ellipse cx="368.4" cy="279.08" fill="#ADD1B2" rx="11" ry="11" style="stroke:#181818;stroke-width:1.0;"/><path d="M371.3688,284.7206 Q370.7906,285.0175 370.15,285.1581 Q369.5094,285.3144 368.8063,285.3144 Q366.3063,285.3144 364.9781,283.6738 Q363.6656,282.0175 363.6656,278.8925 Q363.6656,275.7675 364.9781,274.1113 Q366.3063,272.455 368.8063,272.455 Q369.5094,272.455 370.15,272.6113 Q370.8063,272.7675 371.3688,273.0644 L371.3688,275.7831 Q370.7438,275.205 370.15,274.9394 Q369.5563,274.6581 368.9313,274.6581 Q367.5875,274.6581 366.9,275.7363 Q366.2125,276.7988 366.2125,278.8925 Q366.2125,280.9863 366.9,282.0644 Q367.5875,283.1269 368.9313,283.1269 Q369.5563,283.1269 370.15,282.8613 Q370.7438,282.58 371.3688,282.0019 L371.3688,284.7206 Z " fill="#000000"/><text fill="#000000" font-family="sans-serif" font-size="14" lengthAdjust="spacing" textLength="80" x="383.6" y="283.9267">Servomotor</text><line style="stroke:#181818;stroke-width:0.5;" x1="349" x2="471" y1="295.08" y2="295.08"/><ellipse cx="359" cy="308.7284" fill="none" rx="3" ry="3" style="stroke:#038048;stroke-width:1.0;"/><text fill="#000000" font-family="sans-serif" font-size="14" lengthAdjust="spacing" textLength="98" x="368" y="312.0751">m_state : bool</text><line style="stroke:#181818;stroke-width:0.5;" x1="349" x2="471" y1="319.3769" y2="319.3769"/><ellipse cx="359" cy="333.0253" fill="#84BE84" rx="3" ry="3" style="stroke:#038048;stroke-width:1.0;"/><text fill="#000000" font-family="sans-serif" font-size="14" lengthAdjust="spacing" textLength="33" x="368" y="336.372">run()</text><ellipse cx="359" cy="349.3222" fill="#84BE84" rx="3" ry="3" style="stroke:#038048;stroke-width:1.0;"/><text fill="#000000" font-family="sans-serif" font-size="14" lengthAdjust="spacing" textLength="41" x="368" y="352.6689">stop()</text></g><!--class ESP_32--><g id="elem_ESP_32"><rect codeLine="30" fill="#F1F1F1" height="162.0781" id="ESP_32" rx="2.5" ry="2.5" style="stroke:#181818;stroke-width:0.5;" width="306" x="94" y="41"/><ellipse cx="216.75" cy="57" fill="#ADD1B2" rx="11" ry="11" style="stroke:#181818;stroke-width:1.0;"/><path d="M219.7188,62.6406 Q219.1406,62.9375 218.5,63.0781 Q217.8594,63.2344 217.1563,63.2344 Q214.6563,63.2344 213.3281,61.5938 Q212.0156,59.9375 212.0156,56.8125 Q212.0156,53.6875 213.3281,52.0313 Q214.6563,50.375 217.1563,50.375 Q217.8594,50.375 218.5,50.5313 Q219.1563,50.6875 219.7188,50.9844 L219.7188,53.7031 Q219.0938,53.125 218.5,52.8594 Q217.9063,52.5781 217.2813,52.5781 Q215.9375,52.5781 215.25,53.6563 Q214.5625,54.7188 214.5625,56.8125 Q214.5625,58.9063 215.25,59.9844 Q215.9375,61.0469 217.2813,61.0469 Q217.9063,61.0469 218.5,60.7813 Q219.0938,60.5 219.7188,59.9219 L219.7188,62.6406 Z " fill="#000000"/><text fill="#000000" font-family="sans-serif" font-size="14" lengthAdjust="spacing" textLength="52" x="237.25" y="61.8467">ESP_32</text><line style="stroke:#181818;stroke-width:0.5;" x1="95" x2="399" y1="73" y2="73"/><ellipse cx="105" cy="86.6484" fill="none" rx="3" ry="3" style="stroke:#038048;stroke-width:1.0;"/><text fill="#000000" font-family="sans-serif" font-size="14" lengthAdjust="spacing" textLength="269" x="114" y="89.9951">m_pLeftBCHeadPhone : BCHeadPhone</text><ellipse cx="105" cy="102.9453" fill="none" rx="3" ry="3" style="stroke:#038048;stroke-width:1.0;"/><text fill="#000000" font-family="sans-serif" font-size="14" lengthAdjust="spacing" textLength="280" x="114" y="106.292">m_pRightBCHeadPhone : BCHeadPhone</text><text fill="#000000" font-family="sans-serif" font-size="14" lengthAdjust="spacing" textLength="4" x="114" y="122.5889">&#160;</text><ellipse cx="105" cy="135.5391" fill="none" rx="3" ry="3" style="stroke:#038048;stroke-width:1.0;"/><text fill="#000000" font-family="sans-serif" font-size="14" lengthAdjust="spacing" textLength="173" x="114" y="138.8857">m_pLeftVibrator : Vibrator</text><ellipse cx="105" cy="151.8359" fill="none" rx="3" ry="3" style="stroke:#038048;stroke-width:1.0;"/><text fill="#000000" font-family="sans-serif" font-size="14" lengthAdjust="spacing" textLength="184" x="114" y="155.1826">m_pRightVibrator : Vibrator</text><text fill="#000000" font-family="sans-serif" font-size="14" lengthAdjust="spacing" textLength="4" x="114" y="171.4795">&#160;</text><ellipse cx="105" cy="184.4297" fill="none" rx="3" ry="3" style="stroke:#038048;stroke-width:1.0;"/><text fill="#000000" font-family="sans-serif" font-size="14" lengthAdjust="spacing" textLength="202" x="114" y="187.7764">m_pServomotor : Servomotor</text><line style="stroke:#181818;stroke-width:0.5;" x1="95" x2="399" y1="195.0781" y2="195.0781"/></g><!--class JsonFileReader--><g id="elem_JsonFileReader"><rect codeLine="44" fill="#F1F1F1" height="64.2969" id="JsonFileReader" rx="2.5" ry="2.5" style="stroke:#181818;stroke-width:0.5;" width="134" x="528" y="89.89"/><ellipse cx="543" cy="105.89" fill="#ADD1B2" rx="11" ry="11" style="stroke:#181818;stroke-width:1.0;"/><path d="M545.9688,111.5306 Q545.3906,111.8275 544.75,111.9681 Q544.1094,112.1244 543.4063,112.1244 Q540.9063,112.1244 539.5781,110.4837 Q538.2656,108.8275 538.2656,105.7025 Q538.2656,102.5775 539.5781,100.9212 Q540.9063,99.265 543.4063,99.265 Q544.1094,99.265 544.75,99.4212 Q545.4063,99.5775 545.9688,99.8744 L545.9688,102.5931 Q545.3438,102.015 544.75,101.7494 Q544.1563,101.4681 543.5313,101.4681 Q542.1875,101.4681 541.5,102.5462 Q540.8125,103.6087 540.8125,105.7025 Q540.8125,107.7962 541.5,108.8744 Q542.1875,109.9369 543.5313,109.9369 Q544.1563,109.9369 544.75,109.6712 Q545.3438,109.39 545.9688,108.8119 L545.9688,111.5306 Z " fill="#000000"/><text fill="#000000" font-family="sans-serif" font-size="14" lengthAdjust="spacing" textLength="102" x="557" y="110.7367">JsonFileReader</text><line style="stroke:#181818;stroke-width:0.5;" x1="529" x2="661" y1="121.89" y2="121.89"/><line style="stroke:#181818;stroke-width:0.5;" x1="529" x2="661" y1="129.89" y2="129.89"/><ellipse cx="539" cy="143.5384" fill="#84BE84" rx="3" ry="3" style="stroke:#038048;stroke-width:1.0;"/><text fill="#000000" font-family="sans-serif" font-size="14" lengthAdjust="spacing" textLength="39" x="548" y="146.8851">load()</text></g><!--class Main--><g id="elem_Main"><rect codeLine="50" fill="#F1F1F1" height="64.2969" id="Main" rx="2.5" ry="2.5" style="stroke:#181818;stroke-width:0.5;" width="69" x="717.5" y="89.89"/><ellipse cx="734.75" cy="105.89" fill="#ADD1B2" rx="11" ry="11" style="stroke:#181818;stroke-width:1.0;"/><path d="M737.7188,111.5306 Q737.1406,111.8275 736.5,111.9681 Q735.8594,112.1244 735.1563,112.1244 Q732.6563,112.1244 731.3281,110.4837 Q730.0156,108.8275 730.0156,105.7025 Q730.0156,102.5775 731.3281,100.9212 Q732.6563,99.265 735.1563,99.265 Q735.8594,99.265 736.5,99.4212 Q737.1563,99.5775 737.7188,99.8744 L737.7188,102.5931 Q737.0938,102.015 736.5,101.7494 Q735.9063,101.4681 735.2813,101.4681 Q733.9375,101.4681 733.25,102.5462 Q732.5625,103.6087 732.5625,105.7025 Q732.5625,107.7962 733.25,108.8744 Q733.9375,109.9369 735.2813,109.9369 Q735.9063,109.9369 736.5,109.6712 Q737.0938,109.39 737.7188,108.8119 L737.7188,111.5306 Z " fill="#000000"/><text fill="#000000" font-family="sans-serif" font-size="14" lengthAdjust="spacing" textLength="32" x="749.25" y="110.7367">Main</text><line style="stroke:#181818;stroke-width:0.5;" x1="718.5" x2="785.5" y1="121.89" y2="121.89"/><line style="stroke:#181818;stroke-width:0.5;" x1="718.5" x2="785.5" y1="129.89" y2="129.89"/><ellipse cx="728.5" cy="143.5384" fill="#84BE84" rx="3" ry="3" style="stroke:#038048;stroke-width:1.0;"/><text fill="#000000" font-family="sans-serif" font-size="14" lengthAdjust="spacing" textLength="43" x="737.5" y="146.8851">main()</text></g><!--link Vibrator to IComponent--><g id="link_Vibrator_IComponent"><path codeLine="55" d="M134.24,360.26 C154.07,379.1 163.764,388.3084 183.604,407.1684 " fill="none" id="Vibrator-to-IComponent" style="stroke:#181818;stroke-width:1.0;"/><polygon fill="none" points="196.65,419.57,187.7378,402.8197,179.4701,411.517,196.65,419.57" style="stroke:#181818;stroke-width:1.0;"/></g><!--link Servomotor to IComponent--><g id="link_Servomotor_IComponent"><path codeLine="56" d="M359.76,360.26 C339.93,379.1 330.236,388.3084 310.396,407.1684 " fill="none" id="Servomotor-to-IComponent" style="stroke:#181818;stroke-width:1.0;"/><polygon fill="none" points="297.35,419.57,314.5299,411.517,306.2622,402.8197,297.35,419.57" style="stroke:#181818;stroke-width:1.0;"/></g><!--link BCHeadPhone to IComponent--><g id="link_BCHeadPhone_IComponent"><path codeLine="57" d="M247,360.26 C247,379.1 247,382.71 247,401.57 " fill="none" id="BCHeadPhone-to-IComponent" style="stroke:#181818;stroke-width:1.0;"/><polygon fill="none" points="247,419.57,253,401.57,241,401.57,247,419.57" style="stroke:#181818;stroke-width:1.0;"/></g><!--link ESP_32 to BCHeadPhone--><g id="link_ESP_32_BCHeadPhone"><path codeLine="59" d="M247,215.37 C247,235.54 247,238.56 247,256.59 " fill="none" id="ESP_32-BCHeadPhone" style="stroke:#181818;stroke-width:1.0;"/><polygon fill="#181818" points="247,203.37,243,209.37,247,215.37,251,209.37,247,203.37" style="stroke:#181818;stroke-width:1.0;"/><polygon fill="#181818" points="247,262.59,251,253.59,247,257.59,243,253.59,247,262.59" style="stroke:#181818;stroke-width:1.0;"/></g><!--link ESP_32 to Vibrator--><g id="link_ESP_32_Vibrator"><path codeLine="60" d="M169.2856,212.4251 C151.7456,232.5951 145.2873,240.0326 129.6073,258.0626 " fill="none" id="ESP_32-Vibrator" style="stroke:#181818;stroke-width:1.0;"/><polygon fill="#181818" points="177.16,203.37,170.2045,205.2727,169.2856,212.4251,176.2412,210.5223,177.16,203.37" style="stroke:#181818;stroke-width:1.0;"/><polygon fill="#181818" points="125.67,262.59,134.5943,258.4238,128.9511,258.8172,128.5577,253.174,125.67,262.59" style="stroke:#181818;stroke-width:1.0;"/></g><!--link ESP_32 to Servomotor--><g id="link_ESP_32_Servomotor"><path codeLine="61" d="M324.7144,212.4251 C342.2544,232.5951 348.7127,240.0326 364.3927,258.0626 " fill="none" id="ESP_32-Servomotor" style="stroke:#181818;stroke-width:1.0;"/><polygon fill="#181818" points="316.84,203.37,317.7588,210.5223,324.7144,212.4251,323.7955,205.2727,316.84,203.37" style="stroke:#181818;stroke-width:1.0;"/><polygon fill="#181818" points="368.33,262.59,365.4423,253.174,365.0489,258.8172,359.4057,258.4238,368.33,262.59" style="stroke:#181818;stroke-width:1.0;"/></g><!--SRC=[hLAnRi8m4Dtp5HOJBSf2jmmCHLI0G48WTKL7EC0YyLcsoqBvzpebSSvGTOe7ItVlxldUysd8pt14qHjJgKcXShOdhedmHog7vW0vYba0QwWw0_Eb-YzjQ1rf7xU9SciTE1IPs14Ll_dR7SuBi5Pyofq1HwPBplVn566_ElbXkwJTeBbGIHqFEzcijcz3pyXRz08FZil8kAYeSYsFftzAdrY3uLdm_fdlhwAeYdcHCMDgUTMTU9MwsQiFMU3QpuIcsQkx-BabrMBSre9WN_jwYwYM85LCKcLuQ-bZtXh4fEdtYArnmaGyGjpGHoofl-mrJKUHrpmVREF9zi4V]--></g></svg>