<svg xmlns="http://www.w3.org/2000/svg" xmlns:xlink="http://www.w3.org/1999/xlink" contentStyleType="text/css" height="1817px" preserveAspectRatio="none" style="width:2110px;height:1817px;background:#FFFFFF;" version="1.1" viewBox="0 0 2110 1817" width="2110px" zoomAndPan="magnify"><defs/><g><rect fill="none" height="658.0547" style="stroke:#000000;stroke-width:1.5;" width="1610.6318" x="71.9238" y="98.2969"/><rect fill="none" height="949.3828" style="stroke:#000000;stroke-width:1.5;" width="2094.833" x="10" y="770.3516"/><line style="stroke:#181818;stroke-width:0.5;stroke-dasharray:5.0,5.0;" x1="45" x2="45" y1="81.2969" y2="1736.7344"/><line style="stroke:#181818;stroke-width:0.5;stroke-dasharray:5.0,5.0;" x1="108.9238" x2="108.9238" y1="81.2969" y2="1736.7344"/><line style="stroke:#181818;stroke-width:0.5;stroke-dasharray:5.0,5.0;" x1="486.9141" x2="486.9141" y1="81.2969" y2="1736.7344"/><line style="stroke:#181818;stroke-width:0.5;stroke-dasharray:5.0,5.0;" x1="728.9609" x2="728.9609" y1="81.2969" y2="1736.7344"/><line style="stroke:#181818;stroke-width:0.5;stroke-dasharray:5.0,5.0;" x1="830.4434" x2="830.4434" y1="81.2969" y2="1736.7344"/><line style="stroke:#181818;stroke-width:0.5;stroke-dasharray:5.0,5.0;" x1="945.4326" x2="945.4326" y1="81.2969" y2="1736.7344"/><line style="stroke:#181818;stroke-width:0.5;stroke-dasharray:5.0,5.0;" x1="1105.0674" x2="1105.0674" y1="81.2969" y2="1736.7344"/><line style="stroke:#181818;stroke-width:0.5;stroke-dasharray:5.0,5.0;" x1="1242.7373" x2="1242.7373" y1="81.2969" y2="1736.7344"/><line style="stroke:#181818;stroke-width:0.5;stroke-dasharray:5.0,5.0;" x1="1359.5176" x2="1359.5176" y1="81.2969" y2="1736.7344"/><line style="stroke:#181818;stroke-width:0.5;stroke-dasharray:5.0,5.0;" x1="1474.333" x2="1474.333" y1="81.2969" y2="1736.7344"/><line style="stroke:#181818;stroke-width:0.5;stroke-dasharray:5.0,5.0;" x1="1602.4531" x2="1602.4531" y1="81.2969" y2="1736.7344"/><line style="stroke:#181818;stroke-width:0.5;stroke-dasharray:5.0,5.0;" x1="1724.5557" x2="1724.5557" y1="81.2969" y2="1736.7344"/><line style="stroke:#181818;stroke-width:0.5;stroke-dasharray:5.0,5.0;" x1="1801.2441" x2="1801.2441" y1="81.2969" y2="1736.7344"/><line style="stroke:#181818;stroke-width:0.5;stroke-dasharray:5.0,5.0;" x1="2046.5537" x2="2046.5537" y1="81.2969" y2="1736.7344"/><text fill="#000000" font-family="sans-serif" font-size="14" lengthAdjust="spacing" textLength="45.9238" x="20" y="77.9951">Mobile</text><ellipse cx="45.9619" cy="13.5" fill="#E2E2F0" rx="8" ry="8" style="stroke:#181818;stroke-width:0.5;"/><path d="M45.9619,21.5 L45.9619,48.5 M32.9619,29.5 L58.9619,29.5 M45.9619,48.5 L32.9619,63.5 M45.9619,48.5 L58.9619,63.5 " fill="none" style="stroke:#181818;stroke-width:0.5;"/><text fill="#000000" font-family="sans-serif" font-size="14" lengthAdjust="spacing" textLength="45.9238" x="20" y="1748.7295">Mobile</text><ellipse cx="45.9619" cy="1760.5313" fill="#E2E2F0" rx="8" ry="8" style="stroke:#181818;stroke-width:0.5;"/><path d="M45.9619,1768.5313 L45.9619,1795.5313 M32.9619,1776.5313 L58.9619,1776.5313 M45.9619,1795.5313 L32.9619,1810.5313 M45.9619,1795.5313 L58.9619,1810.5313 " fill="none" style="stroke:#181818;stroke-width:0.5;"/><rect fill="#E2E2F0" height="30.2969" rx="2.5" ry="2.5" style="stroke:#181818;stroke-width:0.5;" width="54.749" x="81.9238" y="50"/><text fill="#000000" font-family="sans-serif" font-size="14" lengthAdjust="spacing" textLength="40.749" x="88.9238" y="69.9951">Setup</text><rect fill="#E2E2F0" height="30.2969" rx="2.5" ry="2.5" style="stroke:#181818;stroke-width:0.5;" width="54.749" x="81.9238" y="1735.7344"/><text fill="#000000" font-family="sans-serif" font-size="14" lengthAdjust="spacing" textLength="40.749" x="88.9238" y="1755.7295">Setup</text><rect fill="#E2E2F0" height="30.2969" rx="2.5" ry="2.5" style="stroke:#181818;stroke-width:0.5;" width="109.6621" x="432.9141" y="50"/><text fill="#000000" font-family="sans-serif" font-size="14" lengthAdjust="spacing" textLength="95.6621" x="439.9141" y="69.9951">StateMachine</text><rect fill="#E2E2F0" height="30.2969" rx="2.5" ry="2.5" style="stroke:#181818;stroke-width:0.5;" width="109.6621" x="432.9141" y="1735.7344"/><text fill="#000000" font-family="sans-serif" font-size="14" lengthAdjust="spacing" textLength="95.6621" x="439.9141" y="1755.7295">StateMachine</text><rect fill="#E2E2F0" height="30.2969" rx="2.5" ry="2.5" style="stroke:#181818;stroke-width:0.5;" width="117.4824" x="670.9609" y="50"/><text fill="#000000" font-family="sans-serif" font-size="14" lengthAdjust="spacing" textLength="103.4824" x="677.9609" y="69.9951">JsonFileReader</text><rect fill="#E2E2F0" height="30.2969" rx="2.5" ry="2.5" style="stroke:#181818;stroke-width:0.5;" width="117.4824" x="670.9609" y="1735.7344"/><text fill="#000000" font-family="sans-serif" font-size="14" lengthAdjust="spacing" textLength="103.4824" x="677.9609" y="1755.7295">JsonFileReader</text><rect fill="#E2E2F0" height="30.2969" rx="2.5" ry="2.5" style="stroke:#181818;stroke-width:0.5;" width="64.9893" x="798.4434" y="50"/><text fill="#000000" font-family="sans-serif" font-size="14" lengthAdjust="spacing" textLength="50.9893" x="805.4434" y="69.9951">ESP_32</text><rect fill="#E2E2F0" height="30.2969" rx="2.5" ry="2.5" style="stroke:#181818;stroke-width:0.5;" width="64.9893" x="798.4434" y="1735.7344"/><text fill="#000000" font-family="sans-serif" font-size="14" lengthAdjust="spacing" textLength="50.9893" x="805.4434" y="1755.7295">ESP_32</text><rect fill="#E2E2F0" height="30.2969" rx="2.5" ry="2.5" style="stroke:#181818;stroke-width:0.5;" width="144.6348" x="873.4326" y="50"/><text fill="#000000" font-family="sans-serif" font-size="14" lengthAdjust="spacing" textLength="130.6348" x="880.4326" y="69.9951">Left BCHeadPhone</text><rect fill="#E2E2F0" height="30.2969" rx="2.5" ry="2.5" style="stroke:#181818;stroke-width:0.5;" width="144.6348" x="873.4326" y="1735.7344"/><text fill="#000000" font-family="sans-serif" font-size="14" lengthAdjust="spacing" textLength="130.6348" x="880.4326" y="1755.7295">Left BCHeadPhone</text><rect fill="#E2E2F0" height="30.2969" rx="2.5" ry="2.5" style="stroke:#181818;stroke-width:0.5;" width="154.6699" x="1028.0674" y="50"/><text fill="#000000" font-family="sans-serif" font-size="14" lengthAdjust="spacing" textLength="140.6699" x="1035.0674" y="69.9951">Right BCHeadPhone</text><rect fill="#E2E2F0" height="30.2969" rx="2.5" ry="2.5" style="stroke:#181818;stroke-width:0.5;" width="154.6699" x="1028.0674" y="1735.7344"/><text fill="#000000" font-family="sans-serif" font-size="14" lengthAdjust="spacing" textLength="140.6699" x="1035.0674" y="1755.7295">Right BCHeadPhone</text><rect fill="#E2E2F0" height="30.2969" rx="2.5" ry="2.5" style="stroke:#181818;stroke-width:0.5;" width="101.7803" x="1192.7373" y="50"/><text fill="#000000" font-family="sans-serif" font-size="14" lengthAdjust="spacing" textLength="87.7803" x="1199.7373" y="69.9951">Left Vibrator</text><rect fill="#E2E2F0" height="30.2969" rx="2.5" ry="2.5" style="stroke:#181818;stroke-width:0.5;" width="101.7803" x="1192.7373" y="1735.7344"/><text fill="#000000" font-family="sans-serif" font-size="14" lengthAdjust="spacing" textLength="87.7803" x="1199.7373" y="1755.7295">Left Vibrator</text><rect fill="#E2E2F0" height="30.2969" rx="2.5" ry="2.5" style="stroke:#181818;stroke-width:0.5;" width="111.8154" x="1304.5176" y="50"/><text fill="#000000" font-family="sans-serif" font-size="14" lengthAdjust="spacing" textLength="97.8154" x="1311.5176" y="69.9951">Right Vibrator</text><rect fill="#E2E2F0" height="30.2969" rx="2.5" ry="2.5" style="stroke:#181818;stroke-width:0.5;" width="111.8154" x="1304.5176" y="1735.7344"/><text fill="#000000" font-family="sans-serif" font-size="14" lengthAdjust="spacing" textLength="97.8154" x="1311.5176" y="1755.7295">Right Vibrator</text><rect fill="#E2E2F0" height="30.2969" rx="2.5" ry="2.5" style="stroke:#181818;stroke-width:0.5;" width="96.1201" x="1426.333" y="50"/><text fill="#000000" font-family="sans-serif" font-size="14" lengthAdjust="spacing" textLength="82.1201" x="1433.333" y="69.9951">Servomotor</text><rect fill="#E2E2F0" height="30.2969" rx="2.5" ry="2.5" style="stroke:#181818;stroke-width:0.5;" width="96.1201" x="1426.333" y="1735.7344"/><text fill="#000000" font-family="sans-serif" font-size="14" lengthAdjust="spacing" textLength="82.1201" x="1433.333" y="1755.7295">Servomotor</text><rect fill="#E2E2F0" height="30.2969" rx="2.5" ry="2.5" style="stroke:#181818;stroke-width:0.5;" width="140.1025" x="1532.4531" y="50"/><text fill="#000000" font-family="sans-serif" font-size="14" lengthAdjust="spacing" textLength="126.1025" x="1539.4531" y="69.9951">EmergencyButton</text><rect fill="#E2E2F0" height="30.2969" rx="2.5" ry="2.5" style="stroke:#181818;stroke-width:0.5;" width="140.1025" x="1532.4531" y="1735.7344"/><text fill="#000000" font-family="sans-serif" font-size="14" lengthAdjust="spacing" textLength="126.1025" x="1539.4531" y="1755.7295">EmergencyButton</text><rect fill="#E2E2F0" height="30.2969" rx="2.5" ry="2.5" style="stroke:#181818;stroke-width:0.5;" width="85.6885" x="1682.5557" y="50"/><text fill="#000000" font-family="sans-serif" font-size="14" lengthAdjust="spacing" textLength="71.6885" x="1689.5557" y="69.9951">Main Loop</text><rect fill="#E2E2F0" height="30.2969" rx="2.5" ry="2.5" style="stroke:#181818;stroke-width:0.5;" width="85.6885" x="1682.5557" y="1735.7344"/><text fill="#000000" font-family="sans-serif" font-size="14" lengthAdjust="spacing" textLength="71.6885" x="1689.5557" y="1755.7295">Main Loop</text><rect fill="#E2E2F0" height="30.2969" rx="2.5" ry="2.5" style="stroke:#181818;stroke-width:0.5;" width="47.4209" x="1778.2441" y="50"/><text fill="#000000" font-family="sans-serif" font-size="14" lengthAdjust="spacing" textLength="33.4209" x="1785.2441" y="69.9951">Main</text><rect fill="#E2E2F0" height="30.2969" rx="2.5" ry="2.5" style="stroke:#181818;stroke-width:0.5;" width="47.4209" x="1778.2441" y="1735.7344"/><text fill="#000000" font-family="sans-serif" font-size="14" lengthAdjust="spacing" textLength="33.4209" x="1785.2441" y="1755.7295">Main</text><rect fill="#E2E2F0" height="30.2969" rx="2.5" ry="2.5" style="stroke:#181818;stroke-width:0.5;" width="95.2793" x="1999.5537" y="50"/><text fill="#000000" font-family="sans-serif" font-size="14" lengthAdjust="spacing" textLength="81.2793" x="2006.5537" y="69.9951">Component</text><rect fill="#E2E2F0" height="30.2969" rx="2.5" ry="2.5" style="stroke:#181818;stroke-width:0.5;" width="95.2793" x="1999.5537" y="1735.7344"/><text fill="#000000" font-family="sans-serif" font-size="14" lengthAdjust="spacing" textLength="81.2793" x="2006.5537" y="1755.7295">Component</text><path d="M71.9238,98.2969 L173.4243,98.2969 L173.4243,105.4297 L163.4243,115.4297 L71.9238,115.4297 L71.9238,98.2969 " fill="#EEEEEE" style="stroke:#000000;stroke-width:1.5;"/><rect fill="none" height="658.0547" style="stroke:#000000;stroke-width:1.5;" width="1610.6318" x="71.9238" y="98.2969"/><text fill="#000000" font-family="sans-serif" font-size="13" font-weight="bold" lengthAdjust="spacing" textLength="56.5005" x="86.9238" y="111.3638">"Setup"</text><polygon fill="#181818" points="475.7451,132.5625,485.7451,136.5625,475.7451,140.5625,479.7451,136.5625" style="stroke:#181818;stroke-width:1.0;"/><line style="stroke:#181818;stroke-width:1.0;" x1="109.2983" x2="481.7451" y1="136.5625" y2="136.5625"/><text fill="#000000" font-family="sans-serif" font-size="13" lengthAdjust="spacing" textLength="41.5518" x="116.2983" y="131.4966">create</text><polygon fill="#181818" points="717.7021,161.6953,727.7021,165.6953,717.7021,169.6953,721.7021,165.6953" style="stroke:#181818;stroke-width:1.0;"/><line style="stroke:#181818;stroke-width:1.0;" x1="487.7451" x2="723.7021" y1="165.6953" y2="165.6953"/><text fill="#000000" font-family="sans-serif" font-size="13" lengthAdjust="spacing" textLength="118.3457" x="494.7451" y="160.6294">loadMandatories()</text><polygon fill="#181818" points="475.7451,190.8281,485.7451,194.8281,475.7451,198.8281,479.7451,194.8281" style="stroke:#181818;stroke-width:1.0;"/><line style="stroke:#181818;stroke-width:1.0;" x1="109.2983" x2="481.7451" y1="194.8281" y2="194.8281"/><text fill="#000000" font-family="sans-serif" font-size="13" lengthAdjust="spacing" textLength="214.7222" x="116.2983" y="189.7622">ask for mandatories components</text><polygon fill="#181818" points="120.2983,219.9609,110.2983,223.9609,120.2983,227.9609,116.2983,223.9609" style="stroke:#181818;stroke-width:1.0;"/><line style="stroke:#181818;stroke-width:1.0;stroke-dasharray:2.0,2.0;" x1="114.2983" x2="486.7451" y1="223.9609" y2="223.9609"/><text fill="#000000" font-family="sans-serif" font-size="13" lengthAdjust="spacing" textLength="354.4468" x="126.2983" y="218.895">returns  a list of components required to run the mask</text><polygon fill="#181818" points="933.75,249.0938,943.75,253.0938,933.75,257.0938,937.75,253.0938" style="stroke:#181818;stroke-width:1.0;"/><line style="stroke:#181818;stroke-width:1.0;" x1="109.2983" x2="939.75" y1="253.0938" y2="253.0938"/><text fill="#000000" font-family="sans-serif" font-size="13" lengthAdjust="spacing" textLength="129.1812" x="116.2983" y="248.0278">create if mandatory</text><polygon fill="#181818" points="498.7451,278.2266,488.7451,282.2266,498.7451,286.2266,494.7451,282.2266" style="stroke:#181818;stroke-width:1.0;"/><line style="stroke:#181818;stroke-width:1.0;stroke-dasharray:2.0,2.0;" x1="492.7451" x2="944.75" y1="282.2266" y2="282.2266"/><text fill="#000000" font-family="sans-serif" font-size="13" lengthAdjust="spacing" textLength="142.6255" x="504.7451" y="277.1606">ask for WAITING state</text><polygon fill="#181818" points="1093.4023,307.3594,1103.4023,311.3594,1093.4023,315.3594,1097.4023,311.3594" style="stroke:#181818;stroke-width:1.0;"/><line style="stroke:#181818;stroke-width:1.0;" x1="109.2983" x2="1099.4023" y1="311.3594" y2="311.3594"/><text fill="#000000" font-family="sans-serif" font-size="13" lengthAdjust="spacing" textLength="129.1812" x="116.2983" y="306.2935">create if mandatory</text><polygon fill="#181818" points="498.7451,336.4922,488.7451,340.4922,498.7451,344.4922,494.7451,340.4922" style="stroke:#181818;stroke-width:1.0;"/><line style="stroke:#181818;stroke-width:1.0;stroke-dasharray:2.0,2.0;" x1="492.7451" x2="1104.4023" y1="340.4922" y2="340.4922"/><text fill="#000000" font-family="sans-serif" font-size="13" lengthAdjust="spacing" textLength="142.6255" x="504.7451" y="335.4263">ask for WAITING state</text><polygon fill="#181818" points="1231.6274,365.625,1241.6274,369.625,1231.6274,373.625,1235.6274,369.625" style="stroke:#181818;stroke-width:1.0;"/><line style="stroke:#181818;stroke-width:1.0;" x1="109.2983" x2="1237.6274" y1="369.625" y2="369.625"/><text fill="#000000" font-family="sans-serif" font-size="13" lengthAdjust="spacing" textLength="129.1812" x="116.2983" y="364.5591">create if mandatory</text><polygon fill="#181818" points="498.7451,394.7578,488.7451,398.7578,498.7451,402.7578,494.7451,398.7578" style="stroke:#181818;stroke-width:1.0;"/><line style="stroke:#181818;stroke-width:1.0;stroke-dasharray:2.0,2.0;" x1="492.7451" x2="1242.6274" y1="398.7578" y2="398.7578"/><text fill="#000000" font-family="sans-serif" font-size="13" lengthAdjust="spacing" textLength="142.6255" x="504.7451" y="393.6919">ask for WAITING state</text><polygon fill="#181818" points="1348.4253,423.8906,1358.4253,427.8906,1348.4253,431.8906,1352.4253,427.8906" style="stroke:#181818;stroke-width:1.0;"/><line style="stroke:#181818;stroke-width:1.0;" x1="109.2983" x2="1354.4253" y1="427.8906" y2="427.8906"/><text fill="#000000" font-family="sans-serif" font-size="13" lengthAdjust="spacing" textLength="129.1812" x="116.2983" y="422.8247">create if mandatory</text><polygon fill="#181818" points="498.7451,453.0234,488.7451,457.0234,498.7451,461.0234,494.7451,457.0234" style="stroke:#181818;stroke-width:1.0;"/><line style="stroke:#181818;stroke-width:1.0;stroke-dasharray:2.0,2.0;" x1="492.7451" x2="1359.4253" y1="457.0234" y2="457.0234"/><text fill="#000000" font-family="sans-serif" font-size="13" lengthAdjust="spacing" textLength="142.6255" x="504.7451" y="451.9575">ask for WAITING state</text><polygon fill="#181818" points="1462.3931,482.1563,1472.3931,486.1563,1462.3931,490.1563,1466.3931,486.1563" style="stroke:#181818;stroke-width:1.0;"/><line style="stroke:#181818;stroke-width:1.0;" x1="109.2983" x2="1468.3931" y1="486.1563" y2="486.1563"/><text fill="#000000" font-family="sans-serif" font-size="13" lengthAdjust="spacing" textLength="129.1812" x="116.2983" y="481.0903">create if mandatory</text><polygon fill="#181818" points="498.7451,511.2891,488.7451,515.2891,498.7451,519.2891,494.7451,515.2891" style="stroke:#181818;stroke-width:1.0;"/><line style="stroke:#181818;stroke-width:1.0;stroke-dasharray:2.0,2.0;" x1="492.7451" x2="1473.3931" y1="515.2891" y2="515.2891"/><text fill="#000000" font-family="sans-serif" font-size="13" lengthAdjust="spacing" textLength="142.6255" x="504.7451" y="510.2231">ask for WAITING state</text><polygon fill="#181818" points="1590.5044,540.4219,1600.5044,544.4219,1590.5044,548.4219,1594.5044,544.4219" style="stroke:#181818;stroke-width:1.0;"/><line style="stroke:#181818;stroke-width:1.0;" x1="109.2983" x2="1596.5044" y1="544.4219" y2="544.4219"/><text fill="#000000" font-family="sans-serif" font-size="13" lengthAdjust="spacing" textLength="129.1812" x="116.2983" y="539.356">create if mandatory</text><polygon fill="#181818" points="498.7451,569.5547,488.7451,573.5547,498.7451,577.5547,494.7451,573.5547" style="stroke:#181818;stroke-width:1.0;"/><line style="stroke:#181818;stroke-width:1.0;stroke-dasharray:2.0,2.0;" x1="492.7451" x2="1601.5044" y1="573.5547" y2="573.5547"/><text fill="#000000" font-family="sans-serif" font-size="13" lengthAdjust="spacing" textLength="142.6255" x="504.7451" y="568.4888">ask for WAITING state</text><polygon fill="#181818" points="933.75,598.6875,943.75,602.6875,933.75,606.6875,937.75,602.6875" style="stroke:#181818;stroke-width:1.0;"/><line style="stroke:#181818;stroke-width:1.0;" x1="487.7451" x2="939.75" y1="602.6875" y2="602.6875"/><text fill="#000000" font-family="sans-serif" font-size="13" lengthAdjust="spacing" textLength="158.5137" x="494.7451" y="597.6216">Switch state to WAITING</text><polygon fill="#181818" points="1093.4023,627.8203,1103.4023,631.8203,1093.4023,635.8203,1097.4023,631.8203" style="stroke:#181818;stroke-width:1.0;"/><line style="stroke:#181818;stroke-width:1.0;" x1="487.7451" x2="1099.4023" y1="631.8203" y2="631.8203"/><text fill="#000000" font-family="sans-serif" font-size="13" lengthAdjust="spacing" textLength="158.5137" x="494.7451" y="626.7544">Switch state to WAITING</text><polygon fill="#181818" points="1231.6274,656.9531,1241.6274,660.9531,1231.6274,664.9531,1235.6274,660.9531" style="stroke:#181818;stroke-width:1.0;"/><line style="stroke:#181818;stroke-width:1.0;" x1="487.7451" x2="1237.6274" y1="660.9531" y2="660.9531"/><text fill="#000000" font-family="sans-serif" font-size="13" lengthAdjust="spacing" textLength="158.5137" x="494.7451" y="655.8872">Switch state to WAITING</text><polygon fill="#181818" points="1348.4253,686.0859,1358.4253,690.0859,1348.4253,694.0859,1352.4253,690.0859" style="stroke:#181818;stroke-width:1.0;"/><line style="stroke:#181818;stroke-width:1.0;" x1="487.7451" x2="1354.4253" y1="690.0859" y2="690.0859"/><text fill="#000000" font-family="sans-serif" font-size="13" lengthAdjust="spacing" textLength="158.5137" x="494.7451" y="685.02">Switch state to WAITING</text><polygon fill="#181818" points="1462.3931,715.2188,1472.3931,719.2188,1462.3931,723.2188,1466.3931,719.2188" style="stroke:#181818;stroke-width:1.0;"/><line style="stroke:#181818;stroke-width:1.0;" x1="487.7451" x2="1468.3931" y1="719.2188" y2="719.2188"/><text fill="#000000" font-family="sans-serif" font-size="13" lengthAdjust="spacing" textLength="158.5137" x="494.7451" y="714.1528">Switch state to WAITING</text><polygon fill="#181818" points="1590.5044,744.3516,1600.5044,748.3516,1590.5044,752.3516,1594.5044,748.3516" style="stroke:#181818;stroke-width:1.0;"/><line style="stroke:#181818;stroke-width:1.0;" x1="487.7451" x2="1596.5044" y1="748.3516" y2="748.3516"/><text fill="#000000" font-family="sans-serif" font-size="13" lengthAdjust="spacing" textLength="158.5137" x="494.7451" y="743.2856">Switch state to WAITING</text><path d="M10,770.3516 L103.9976,770.3516 L103.9976,777.4844 L93.9976,787.4844 L10,787.4844 L10,770.3516 " fill="#EEEEEE" style="stroke:#000000;stroke-width:1.5;"/><rect fill="none" height="949.3828" style="stroke:#000000;stroke-width:1.5;" width="2094.833" x="10" y="770.3516"/><text fill="#000000" font-family="sans-serif" font-size="13" font-weight="bold" lengthAdjust="spacing" textLength="48.9976" x="25" y="783.4185">"Loop"</text><polygon fill="#181818" points="1789.9546,804.6172,1799.9546,808.6172,1789.9546,812.6172,1793.9546,808.6172" style="stroke:#181818;stroke-width:1.0;"/><line style="stroke:#181818;stroke-width:1.0;" x1="45.9619" x2="1795.9546" y1="808.6172" y2="808.6172"/><text fill="#000000" font-family="sans-serif" font-size="13" lengthAdjust="spacing" textLength="40.9424" x="52.9619" y="803.5513">Action</text><line style="stroke:#181818;stroke-width:1.0;" x1="1801.9546" x2="1843.9546" y1="837.75" y2="837.75"/><line style="stroke:#181818;stroke-width:1.0;" x1="1843.9546" x2="1843.9546" y1="837.75" y2="850.75"/><line style="stroke:#181818;stroke-width:1.0;" x1="1802.9546" x2="1843.9546" y1="850.75" y2="850.75"/><polygon fill="#181818" points="1812.9546,846.75,1802.9546,850.75,1812.9546,854.75,1808.9546,850.75" style="stroke:#181818;stroke-width:1.0;"/><text fill="#000000" font-family="sans-serif" font-size="13" lengthAdjust="spacing" textLength="231.2388" x="1808.9546" y="832.6841">prepare the State Machine Request</text><polygon fill="#181818" points="498.7451,875.8828,488.7451,879.8828,498.7451,883.8828,494.7451,879.8828" style="stroke:#181818;stroke-width:1.0;"/><line style="stroke:#181818;stroke-width:1.0;" x1="492.7451" x2="1800.9546" y1="879.8828" y2="879.8828"/><text fill="#000000" font-family="sans-serif" font-size="13" lengthAdjust="spacing" textLength="159.1104" x="504.7451" y="874.8169">Send Standard Rrequest</text><line style="stroke:#181818;stroke-width:1.0;" x1="487.7451" x2="529.7451" y1="909.0156" y2="909.0156"/><line style="stroke:#181818;stroke-width:1.0;" x1="529.7451" x2="529.7451" y1="909.0156" y2="922.0156"/><line style="stroke:#181818;stroke-width:1.0;" x1="488.7451" x2="529.7451" y1="922.0156" y2="922.0156"/><polygon fill="#181818" points="498.7451,918.0156,488.7451,922.0156,498.7451,926.0156,494.7451,922.0156" style="stroke:#181818;stroke-width:1.0;"/><text fill="#000000" font-family="sans-serif" font-size="13" lengthAdjust="spacing" textLength="213.7764" x="494.7451" y="903.9497">Save Request in Standard queue</text><polygon fill="#181818" points="1789.9546,947.1484,1799.9546,951.1484,1789.9546,955.1484,1793.9546,951.1484" style="stroke:#181818;stroke-width:1.0;"/><line style="stroke:#181818;stroke-width:1.0;" x1="1602.5044" x2="1795.9546" y1="951.1484" y2="951.1484"/><text fill="#000000" font-family="sans-serif" font-size="13" lengthAdjust="spacing" textLength="59.9727" x="1609.5044" y="946.0825">Send IRQ</text><line style="stroke:#181818;stroke-width:1.0;" x1="1801.9546" x2="1843.9546" y1="980.2813" y2="980.2813"/><line style="stroke:#181818;stroke-width:1.0;" x1="1843.9546" x2="1843.9546" y1="980.2813" y2="993.2813"/><line style="stroke:#181818;stroke-width:1.0;" x1="1802.9546" x2="1843.9546" y1="993.2813" y2="993.2813"/><polygon fill="#181818" points="1812.9546,989.2813,1802.9546,993.2813,1812.9546,997.2813,1808.9546,993.2813" style="stroke:#181818;stroke-width:1.0;"/><text fill="#000000" font-family="sans-serif" font-size="13" lengthAdjust="spacing" textLength="231.2388" x="1808.9546" y="975.2153">prepare the State Machine Request</text><polygon fill="#181818" points="498.7451,1018.4141,488.7451,1022.4141,498.7451,1026.4141,494.7451,1022.4141" style="stroke:#181818;stroke-width:1.0;"/><line style="stroke:#181818;stroke-width:1.0;" x1="492.7451" x2="1800.9546" y1="1022.4141" y2="1022.4141"/><text fill="#000000" font-family="sans-serif" font-size="13" lengthAdjust="spacing" textLength="167.9463" x="504.7451" y="1017.3481">Send Emergency Request</text><line style="stroke:#181818;stroke-width:1.0;" x1="487.7451" x2="529.7451" y1="1051.5469" y2="1051.5469"/><line style="stroke:#181818;stroke-width:1.0;" x1="529.7451" x2="529.7451" y1="1051.5469" y2="1064.5469"/><line style="stroke:#181818;stroke-width:1.0;" x1="488.7451" x2="529.7451" y1="1064.5469" y2="1064.5469"/><polygon fill="#181818" points="498.7451,1060.5469,488.7451,1064.5469,498.7451,1068.5469,494.7451,1064.5469" style="stroke:#181818;stroke-width:1.0;"/><text fill="#000000" font-family="sans-serif" font-size="13" lengthAdjust="spacing" textLength="227.957" x="494.7451" y="1046.481">Save Request in Emergency queue</text><polygon fill="#181818" points="2035.1934,1089.6797,2045.1934,1093.6797,2035.1934,1097.6797,2039.1934,1093.6797" style="stroke:#181818;stroke-width:1.0;"/><line style="stroke:#181818;stroke-width:1.0;" x1="487.7451" x2="2041.1934" y1="1093.6797" y2="1093.6797"/><text fill="#000000" font-family="sans-serif" font-size="13" lengthAdjust="spacing" textLength="92.8091" x="494.7451" y="1088.6138">run onCalled()</text><polygon fill="#181818" points="498.7451,1167.2109,488.7451,1171.2109,498.7451,1175.2109,494.7451,1171.2109" style="stroke:#181818;stroke-width:1.0;"/><line style="stroke:#181818;stroke-width:1.0;stroke-dasharray:2.0,2.0;" x1="492.7451" x2="2046.1934" y1="1171.2109" y2="1171.2109"/><text fill="#000000" font-family="sans-serif" font-size="13" lengthAdjust="spacing" textLength="149.7476" x="504.7451" y="1166.145">ask for WORKING state</text><path d="M296,1106.6797 L296,1221.6797 L482,1221.6797 L482,1116.6797 L472,1106.6797 L296,1106.6797 " fill="#FEFFDD" style="stroke:#181818;stroke-width:0.5;"/><path d="M472,1106.6797 L472,1116.6797 L482,1116.6797 L472,1106.6797 " fill="#FEFFDD" style="stroke:#181818;stroke-width:0.5;"/><text fill="#000000" font-family="sans-serif" font-size="13" lengthAdjust="spacing" textLength="131.8535" x="302" y="1123.7466">Component can be :</text><text fill="#000000" font-family="sans-serif" font-size="13" lengthAdjust="spacing" textLength="117.1714" x="302" y="1138.8794">LeftBCHeadPhone</text><text fill="#000000" font-family="sans-serif" font-size="13" lengthAdjust="spacing" textLength="126.4897" x="302" y="1154.0122">RightBCHeadPhone</text><text fill="#000000" font-family="sans-serif" font-size="13" lengthAdjust="spacing" textLength="77.3779" x="302" y="1169.145">LeftVibrator</text><text fill="#000000" font-family="sans-serif" font-size="13" lengthAdjust="spacing" textLength="86.6963" x="302" y="1184.2778">RightVibrator</text><text fill="#000000" font-family="sans-serif" font-size="13" lengthAdjust="spacing" textLength="76.2544" x="302" y="1199.4106">Servomotor</text><text fill="#000000" font-family="sans-serif" font-size="13" lengthAdjust="spacing" textLength="165.0327" x="302" y="1214.5435">based on queues request</text><polygon fill="#181818" points="933.75,1244.7422,943.75,1248.7422,933.75,1252.7422,937.75,1248.7422" style="stroke:#181818;stroke-width:1.0;"/><line style="stroke:#181818;stroke-width:1.0;" x1="487.7451" x2="939.75" y1="1248.7422" y2="1248.7422"/><text fill="#000000" font-family="sans-serif" font-size="13" lengthAdjust="spacing" textLength="165.6357" x="494.7451" y="1243.6763">Switch state to WORKING</text><polygon fill="#181818" points="1093.4023,1273.875,1103.4023,1277.875,1093.4023,1281.875,1097.4023,1277.875" style="stroke:#181818;stroke-width:1.0;"/><line style="stroke:#181818;stroke-width:1.0;" x1="487.7451" x2="1099.4023" y1="1277.875" y2="1277.875"/><text fill="#000000" font-family="sans-serif" font-size="13" lengthAdjust="spacing" textLength="165.6357" x="494.7451" y="1272.8091">Switch state to WORKING</text><polygon fill="#181818" points="1231.6274,1303.0078,1241.6274,1307.0078,1231.6274,1311.0078,1235.6274,1307.0078" style="stroke:#181818;stroke-width:1.0;"/><line style="stroke:#181818;stroke-width:1.0;" x1="487.7451" x2="1237.6274" y1="1307.0078" y2="1307.0078"/><text fill="#000000" font-family="sans-serif" font-size="13" lengthAdjust="spacing" textLength="165.6357" x="494.7451" y="1301.9419">Switch state to WORKING</text><polygon fill="#181818" points="1348.4253,1332.1406,1358.4253,1336.1406,1348.4253,1340.1406,1352.4253,1336.1406" style="stroke:#181818;stroke-width:1.0;"/><line style="stroke:#181818;stroke-width:1.0;" x1="487.7451" x2="1354.4253" y1="1336.1406" y2="1336.1406"/><text fill="#000000" font-family="sans-serif" font-size="13" lengthAdjust="spacing" textLength="165.6357" x="494.7451" y="1331.0747">Switch state to WORKING</text><polygon fill="#181818" points="1462.3931,1361.2734,1472.3931,1365.2734,1462.3931,1369.2734,1466.3931,1365.2734" style="stroke:#181818;stroke-width:1.0;"/><line style="stroke:#181818;stroke-width:1.0;" x1="487.7451" x2="1468.3931" y1="1365.2734" y2="1365.2734"/><text fill="#000000" font-family="sans-serif" font-size="13" lengthAdjust="spacing" textLength="165.6357" x="494.7451" y="1360.2075">Switch state to WORKING</text><polygon fill="#181818" points="1590.5044,1390.4063,1600.5044,1394.4063,1590.5044,1398.4063,1594.5044,1394.4063" style="stroke:#181818;stroke-width:1.0;"/><line style="stroke:#181818;stroke-width:1.0;" x1="487.7451" x2="1596.5044" y1="1394.4063" y2="1394.4063"/><text fill="#000000" font-family="sans-serif" font-size="13" lengthAdjust="spacing" textLength="165.6357" x="494.7451" y="1389.3403">Switch state to WORKING</text><polygon fill="#181818" points="2035.1934,1419.5391,2045.1934,1423.5391,2035.1934,1427.5391,2039.1934,1423.5391" style="stroke:#181818;stroke-width:1.0;"/><line style="stroke:#181818;stroke-width:1.0;" x1="487.7451" x2="2041.1934" y1="1423.5391" y2="1423.5391"/><text fill="#000000" font-family="sans-serif" font-size="13" lengthAdjust="spacing" textLength="92.8091" x="494.7451" y="1418.4731">run onCalled()</text><line style="stroke:#181818;stroke-width:1.0;" x1="2047.1934" x2="2089.1934" y1="1452.6719" y2="1452.6719"/><line style="stroke:#181818;stroke-width:1.0;" x1="2089.1934" x2="2089.1934" y1="1452.6719" y2="1465.6719"/><line style="stroke:#181818;stroke-width:1.0;" x1="2048.1934" x2="2089.1934" y1="1465.6719" y2="1465.6719"/><polygon fill="#181818" points="2058.1934,1461.6719,2048.1934,1465.6719,2058.1934,1469.6719,2054.1934,1465.6719" style="stroke:#181818;stroke-width:1.0;"/><text fill="#000000" font-family="sans-serif" font-size="13" lengthAdjust="spacing" textLength="26.3491" x="2054.1934" y="1447.606">do()</text><polygon fill="#181818" points="498.7451,1490.8047,488.7451,1494.8047,498.7451,1498.8047,494.7451,1494.8047" style="stroke:#181818;stroke-width:1.0;"/><line style="stroke:#181818;stroke-width:1.0;stroke-dasharray:2.0,2.0;" x1="492.7451" x2="2046.1934" y1="1494.8047" y2="1494.8047"/><text fill="#000000" font-family="sans-serif" font-size="13" lengthAdjust="spacing" textLength="142.6255" x="504.7451" y="1489.7388">ask for WAITING state</text><polygon fill="#181818" points="933.75,1519.9375,943.75,1523.9375,933.75,1527.9375,937.75,1523.9375" style="stroke:#181818;stroke-width:1.0;"/><line style="stroke:#181818;stroke-width:1.0;" x1="487.7451" x2="939.75" y1="1523.9375" y2="1523.9375"/><text fill="#000000" font-family="sans-serif" font-size="13" lengthAdjust="spacing" textLength="158.5137" x="494.7451" y="1518.8716">Switch state to WAITING</text><polygon fill="#181818" points="1093.4023,1549.0703,1103.4023,1553.0703,1093.4023,1557.0703,1097.4023,1553.0703" style="stroke:#181818;stroke-width:1.0;"/><line style="stroke:#181818;stroke-width:1.0;" x1="487.7451" x2="1099.4023" y1="1553.0703" y2="1553.0703"/><text fill="#000000" font-family="sans-serif" font-size="13" lengthAdjust="spacing" textLength="158.5137" x="494.7451" y="1548.0044">Switch state to WAITING</text><polygon fill="#181818" points="1231.6274,1578.2031,1241.6274,1582.2031,1231.6274,1586.2031,1235.6274,1582.2031" style="stroke:#181818;stroke-width:1.0;"/><line style="stroke:#181818;stroke-width:1.0;" x1="487.7451" x2="1237.6274" y1="1582.2031" y2="1582.2031"/><text fill="#000000" font-family="sans-serif" font-size="13" lengthAdjust="spacing" textLength="158.5137" x="494.7451" y="1577.1372">Switch state to WAITING</text><polygon fill="#181818" points="1348.4253,1607.3359,1358.4253,1611.3359,1348.4253,1615.3359,1352.4253,1611.3359" style="stroke:#181818;stroke-width:1.0;"/><line style="stroke:#181818;stroke-width:1.0;" x1="487.7451" x2="1354.4253" y1="1611.3359" y2="1611.3359"/><text fill="#000000" font-family="sans-serif" font-size="13" lengthAdjust="spacing" textLength="158.5137" x="494.7451" y="1606.27">Switch state to WAITING</text><polygon fill="#181818" points="1462.3931,1636.4688,1472.3931,1640.4688,1462.3931,1644.4688,1466.3931,1640.4688" style="stroke:#181818;stroke-width:1.0;"/><line style="stroke:#181818;stroke-width:1.0;" x1="487.7451" x2="1468.3931" y1="1640.4688" y2="1640.4688"/><text fill="#000000" font-family="sans-serif" font-size="13" lengthAdjust="spacing" textLength="158.5137" x="494.7451" y="1635.4028">Switch state to WAITING</text><polygon fill="#181818" points="1590.5044,1665.6016,1600.5044,1669.6016,1590.5044,1673.6016,1594.5044,1669.6016" style="stroke:#181818;stroke-width:1.0;"/><line style="stroke:#181818;stroke-width:1.0;" x1="487.7451" x2="1596.5044" y1="1669.6016" y2="1669.6016"/><text fill="#000000" font-family="sans-serif" font-size="13" lengthAdjust="spacing" textLength="158.5137" x="494.7451" y="1664.5356">Switch state to WAITING</text><line style="stroke:#181818;stroke-width:1.0;" x1="487.7451" x2="529.7451" y1="1698.7344" y2="1698.7344"/><line style="stroke:#181818;stroke-width:1.0;" x1="529.7451" x2="529.7451" y1="1698.7344" y2="1711.7344"/><line style="stroke:#181818;stroke-width:1.0;" x1="488.7451" x2="529.7451" y1="1711.7344" y2="1711.7344"/><polygon fill="#181818" points="498.7451,1707.7344,488.7451,1711.7344,498.7451,1715.7344,494.7451,1711.7344" style="stroke:#181818;stroke-width:1.0;"/><text fill="#000000" font-family="sans-serif" font-size="13" lengthAdjust="spacing" textLength="136.3286" x="494.7451" y="1693.6685">Remove the Request</text><!--SRC=[xLLDZzCm4BtdLups18UzmAq7fDsAZy8MbXJ14Rd9T6jjQWVRATf_pzXkFkoaQPiLua8lZSVpvdd6upSiCrB1KgvvWKbICcLunaic35ojq5Jb5J0DxYk9jmqpk6JPbWlqNXr3wFfHI_6E259aEIhd79gYq6zNzpzVlt9-_ZFSliEDWTlv1uBUR-M1tHexjX2HyeTj7-AiHp6EvJjVAqOLQYXgmr3ymDcPXhrNgFPo9slFTXbLOOVg0KNsT5iP8uKlHsYBwhPaNC2TbFxMxCekaWSbgxA-pmJevpxX-armPp23J26jlKjtXpp32oFVGh9yoKHky-EeNxmSZSpq8soeqtOj0ZAvAwdimkW1HXl2nPg1edybD023Wci3SjE1qkwlYYlCmKXGbG2pHMBHZqbudgW_ccI1Rvf3FJb8x7bzF9iVDujlYy_lGPkcR3LVt5mZX3tNQOpTzZoHNkFsZDpEe0hzfd6rhsE4gECqZILwLoDKiUVPV8Elgj-Lgz_SP5kFiIrz23A87kYnI-1HmrpCF14RtEWbmFub7KCdA7AQLmVXyuheGlf1PuCvhPp1JMOuwQZRivPsfrH8uefEJzn9e3vAIeg3sWIWg0LMT01heyvHEQIgW-YL8qAoVSC05Bi9GfOA8HbkmkRKZdYHVlqx6JMy0UB2ZDeWTKh3RsDUQxmT0IJiKinPKM1-c3JjzjWJ_99-wZn11nIICY-ezwCm6HEm9l3W41WMwfwWzcKlqYUtN3DDyuhkpHN0Zx2wcBRCzeIJzS9dF5alHk2dzE8KyqJik5wC0C_GYmFwcVqN-kRoeWxzFoJ-rP0uGxjItCczLynQyUni-GC0]--></g></svg>