<svg xmlns="http://www.w3.org/2000/svg" xmlns:xlink="http://www.w3.org/1999/xlink" contentStyleType="text/css" height="454px" preserveAspectRatio="none" style="width:1134px;height:454px;background:#FFFFFF;" version="1.1" viewBox="0 0 1134 454" width="1134px" zoomAndPan="magnify"><defs/><g><!--entity BLE--><g id="elem_BLE"><ellipse cx="351.5205" cy="133" fill="#F1F1F1" rx="8" ry="8" style="stroke:#181818;stroke-width:0.5;"/><text fill="#000000" font-family="sans-serif" font-size="14" lengthAdjust="spacing" textLength="67.9629" x="317.5391" y="162.9951">Bluetooth</text></g><!--entity ESP32--><g id="elem_ESP32"><rect fill="#F1F1F1" height="46.2969" rx="2.5" ry="2.5" style="stroke:#181818;stroke-width:0.5;" width="83.9893" x="423.5305" y="251.12"/><rect fill="#F1F1F1" height="10" style="stroke:#181818;stroke-width:0.5;" width="15" x="487.5198" y="256.12"/><rect fill="#F1F1F1" height="2" style="stroke:#181818;stroke-width:0.5;" width="4" x="485.5198" y="258.12"/><rect fill="#F1F1F1" height="2" style="stroke:#181818;stroke-width:0.5;" width="4" x="485.5198" y="262.12"/><text fill="#000000" font-family="sans-serif" font-size="14" lengthAdjust="spacing" textLength="43.9893" x="438.5305" y="284.1151">ESP32</text></g><!--entity SMT--><g id="elem_SMT"><ellipse cx="51.5205" cy="415.53" fill="#F1F1F1" rx="8" ry="8" style="stroke:#181818;stroke-width:0.5;"/><text fill="#000000" font-family="sans-serif" font-size="14" lengthAdjust="spacing" textLength="91.041" x="6" y="445.5251">Servomoteur</text></g><!--entity MVT--><g id="elem_MVT"><ellipse cx="217.5205" cy="415.53" fill="#F1F1F1" rx="8" ry="8" style="stroke:#181818;stroke-width:0.5;"/><text fill="#000000" font-family="sans-serif" font-size="14" lengthAdjust="spacing" textLength="140.6221" x="147.2095" y="445.5251">Moteur vibrant droit</text></g><!--entity ED--><g id="elem_ED"><ellipse cx="465.5205" cy="415.53" fill="#F1F1F1" rx="8" ry="8" style="stroke:#181818;stroke-width:0.5;"/><text fill="#000000" font-family="sans-serif" font-size="14" lengthAdjust="spacing" textLength="255.6367" x="337.7021" y="445.5251">Ecouteur &#224; conduction osseuse droit</text></g><!--entity EG--><g id="elem_EG"><ellipse cx="780.5205" cy="415.53" fill="#F1F1F1" rx="8" ry="8" style="stroke:#181818;stroke-width:0.5;"/><text fill="#000000" font-family="sans-serif" font-size="14" lengthAdjust="spacing" textLength="274.5723" x="643.2344" y="445.5251">Ecouteur &#224; conduction osseuse gauche</text></g><!--entity MVG--><g id="elem_MVG"><ellipse cx="1047.5205" cy="415.53" fill="#F1F1F1" rx="8" ry="8" style="stroke:#181818;stroke-width:0.5;"/><text fill="#000000" font-family="sans-serif" font-size="14" lengthAdjust="spacing" textLength="159.5576" x="967.7417" y="445.5251">Moteur vibrant gauche</text></g><!--entity BAU--><g id="elem_BAU"><ellipse cx="522.5205" cy="133" fill="#F1F1F1" rx="8" ry="8" style="stroke:#181818;stroke-width:0.5;"/><text fill="#000000" font-family="sans-serif" font-size="14" lengthAdjust="spacing" textLength="175.8477" x="434.5967" y="162.9951">Bouton d'arr&#234;t d'urgence</text></g><!--entity Smartphone--><g id="elem_Smartphone"><ellipse cx="351.5205" cy="14" fill="#F1F1F1" rx="8" ry="8" style="stroke:#181818;stroke-width:0.5;"/><text fill="#000000" font-family="sans-serif" font-size="14" lengthAdjust="spacing" textLength="86.1602" x="308.4404" y="43.9951">Smartphone</text></g><g id="elem_GMN19"><path d="M164.9305,239 L164.9305,309.5313 A0,0 0 0 0 164.9305,309.5313 L388.1161,309.5313 A0,0 0 0 0 388.1161,309.5313 L388.1161,278.26 L423.0305,274.26 L388.1161,270.26 L388.1161,249 L378.1161,239 L164.9305,239 A0,0 0 0 0 164.9305,239 " fill="#FEFFDD" style="stroke:#181818;stroke-width:0.5;"/><path d="M378.1161,239 L378.1161,249 L388.1161,249 L378.1161,239 " fill="#FEFFDD" style="stroke:#181818;stroke-width:0.5;"/><text fill="#000000" font-family="sans-serif" font-size="13" lengthAdjust="spacing" textLength="171.5645" x="170.9305" y="256.0669">Si IRQ, alors passe en &#233;tat</text><text fill="#000000" font-family="sans-serif" font-size="13" lengthAdjust="spacing" textLength="167.1782" x="170.9305" y="271.1997">Arr&#234;t d'urgence, l'altitude</text><text fill="#000000" font-family="sans-serif" font-size="13" lengthAdjust="spacing" textLength="202.1855" x="170.9305" y="286.3325">passe &#224; 0m, et repasse en &#233;tat</text><text fill="#000000" font-family="sans-serif" font-size="13" lengthAdjust="spacing" textLength="121.0435" x="170.9305" y="301.4653">Pr&#234;t &#224; fonctionner.</text></g><!--link BLE to ESP32--><g id="link_BLE_ESP32"><path d="M357.9805,141.89 C374.9305,162.6 421.2105,219.14 447.2005,250.88 " fill="none" id="BLE-ESP32" style="stroke:#181818;stroke-width:1.0;stroke-dasharray:7.0,7.0;"/></g><!--link ESP32 to SMT--><g id="link_ESP32_SMT"><path d="M431.0305,297.85 C422.9305,302.33 414.1405,306.56 405.5205,309.53 C318.4705,339.55 288.3305,311.81 200.5205,339.53 C144.1805,357.32 88.0832,391.1599 65.5532,405.4899 " fill="none" id="ESP32-to-SMT" style="stroke:#181818;stroke-width:1.0;stroke-dasharray:7.0,7.0;"/><polygon fill="#181818" points="60.4905,408.71,70.2313,407.255,64.7094,406.0266,65.9378,400.5047,60.4905,408.71" style="stroke:#181818;stroke-width:1.0;"/><text fill="#000000" font-family="sans-serif" font-size="13" lengthAdjust="spacing" textLength="108.4116" x="201.5205" y="352.5969">Modifie l'altitude</text></g><!--link ESP32 to MVT--><g id="link_ESP32_MVT"><path d="M426.6205,297.84 C419.6305,301.8 412.3805,305.83 405.5205,309.53 C379.6305,323.5 372.3605,325.46 346.5205,339.53 C300.7905,364.43 252.4735,393.3531 231.6235,405.9731 " fill="none" id="ESP32-to-MVT" style="stroke:#181818;stroke-width:1.0;stroke-dasharray:7.0,7.0;"/><polygon fill="#181818" points="226.4905,409.08,236.2612,407.8417,230.768,406.4909,232.1187,400.9977,226.4905,409.08" style="stroke:#181818;stroke-width:1.0;"/><text fill="#000000" font-family="sans-serif" font-size="13" lengthAdjust="spacing" textLength="109.3193" x="347.5205" y="352.5969">Signale direction</text></g><!--link ESP32 to ED--><g id="link_ESP32_ED"><path d="M465.5205,297.64 C465.5205,329.47 465.5205,380.25 465.5205,400.82 " fill="none" id="ESP32-to-ED" style="stroke:#181818;stroke-width:1.0;stroke-dasharray:7.0,7.0;"/><polygon fill="#181818" points="465.5205,406.82,469.5205,397.82,465.5205,401.82,461.5205,397.82,465.5205,406.82" style="stroke:#181818;stroke-width:1.0;"/><text fill="#000000" font-family="sans-serif" font-size="13" lengthAdjust="spacing" textLength="92.4346" x="466.5205" y="352.5969">&#201;met Musique</text></g><!--link ESP32 to EG--><g id="link_ESP32_EG"><path d="M508.0005,294.05 C582.7305,327.09 727.9328,391.284 766.0928,408.154 " fill="none" id="ESP32-to-EG" style="stroke:#181818;stroke-width:1.0;stroke-dasharray:7.0,7.0;"/><polygon fill="#181818" points="771.5805,410.58,764.9664,403.2825,767.0075,408.5583,761.7317,410.5994,771.5805,410.58" style="stroke:#181818;stroke-width:1.0;"/><text fill="#000000" font-family="sans-serif" font-size="13" lengthAdjust="spacing" textLength="92.4346" x="642.5205" y="352.5969">&#201;met Musique</text></g><!--link ESP32 to MVG--><g id="link_ESP32_MVG"><path d="M507.8505,284.57 C591.3805,303.06 783.2405,346.13 943.5205,386.53 C978.8805,395.44 1014.9327,405.4023 1032.8627,410.4223 " fill="none" id="ESP32-to-MVG" style="stroke:#181818;stroke-width:1.0;stroke-dasharray:7.0,7.0;"/><polygon fill="#181818" points="1038.6405,412.04,1031.0522,405.7616,1033.8257,410.6919,1028.8953,413.4654,1038.6405,412.04" style="stroke:#181818;stroke-width:1.0;"/><text fill="#000000" font-family="sans-serif" font-size="13" lengthAdjust="spacing" textLength="109.3193" x="813.5205" y="352.5969">Signale direction</text></g><!--link BAU to ESP32--><g id="link_BAU_ESP32"><path d="M519.2905,141.89 C510.8105,162.6 489.9431,213.5871 476.9531,245.3271 " fill="none" id="BAU-to-ESP32" style="stroke:#181818;stroke-width:1.0;stroke-dasharray:7.0,7.0;"/><polygon fill="#181818" points="474.6805,250.88,481.7914,244.0657,476.5744,246.2525,474.3875,241.0355,474.6805,250.88" style="stroke:#181818;stroke-width:1.0;"/><text fill="#000000" font-family="sans-serif" font-size="13" lengthAdjust="spacing" textLength="23.0991" x="497.5205" y="205.0669">IRQ</text></g><!--link Smartphone to BLE--><g id="link_Smartphone_BLE"><path d="M351.5205,22.68 C351.5205,43.82 351.5205,96.78 351.5205,118.14 " fill="none" id="Smartphone-to-BLE" style="stroke:#181818;stroke-width:1.0;"/><polygon fill="#181818" points="351.5205,124.14,355.5205,115.14,351.5205,119.14,347.5205,115.14,351.5205,124.14" style="stroke:#181818;stroke-width:1.0;"/></g><!--SRC=[ZP71IiD048Rl-nH3BbLeY-YjXq93Gn0CLAEzb1pMxAHTI7RgPhRlu5jurTV8YxdTAAIbY9U5OUR_zlzdj66qbImHehXso4IyYq2s43yaGlW7fbFO9FdgxhOGukeQeXpjWHfYT3OCvjcp27q_EOUDBmkOGPIHqfL6g4UoPirEOTJhio25WtwrqZ0eIve3A5kVW7mPGBdU6baZA6snP4tcXvEKv0Af-u2IZ7AX2TIsw5eSS9Cb3Bd9il3Kxhr1Xior-itX_uXRwSeTziZq59a6fvUOPsa7Z6oTdiPDYp_InjwQzw96qjhkowzjvEmMJTcpuiMBsFYd2AoUEeFxfqSXyaPQtk_884mcy_winfk26Yi6gdwF2oBNHyKOP4ssXRtqiG4DT9yiMIpElXqF3YlwMR-rcsOCVWKMpzIh8FO35PcGog2T2ZJgwEGR]--></g></svg>